<svg xmlns="http://www.w3.org/2000/svg" xmlns:xlink="http://www.w3.org/1999/xlink" width="168" height="117"><defs><linearGradient id="c" x1="50%" x2="50%" y1="0%" y2="100%"><stop offset="0%" stop-color="#40385F"/><stop offset="100%" stop-color="#1E1A31"/></linearGradient><path id="a" d="M6 0h156a6 6 0 0 1 6 6v105a6 6 0 0 1-6 6H6a6 6 0 0 1-6-6V6a6 6 0 0 1 6-6z"/></defs><g fill="none" fill-rule="evenodd"><mask id="b" fill="#fff"><use xlink:href="#a"/></mask><g mask="url(#b)"><path fill="url(#c)" d="M115.77 58.1C115.77 26.01 89.85 0 57.88 0 25.92 0 0 26.01 0 58.1c0 32.1 25.92 58.1 57.88 58.1 31.97 0 57.89-26 57.89-58.1z" transform="translate(10 50.7)"/><g fill="#FFF"><path d="M54.26 131.51l-5.21-3.73L81.87 82l5.21 3.74z" opacity=".5"/><path d="M71.17 103.74h1.75a14.6 14.6 0 0 1 0 29.23H51.44a3.2 3.2 0 1 1 0-6.42h21.48a8.19 8.19 0 0 0 0-16.39H62.84a14.61 14.61 0 0 1 0-29.22h21.48a3.21 3.21 0 0 1 0 6.42H62.84a8.2 8.2 0 0 0 0 16.38h8.33z"/></g><g fill-rule="nonzero"><path fill="#FFF" d="M158.75 16c34.3 0 62.1 27.47 62.1 61.35 0 33.9-27.8 61.36-62.1 61.36-34.29 0-62.09-27.47-62.09-61.36 0-33.88 27.8-61.35 62.1-61.35z"/><path fill="#00F" d="M155.72 86.58l-6.26 1.36-.77-2.9 6.64-1.2z"/><path fill="#00F" d="M149.46 87.94l-5.44 1.82-1.17-3.02 5.84-1.7z"/><path fill="#0028FF" d="M155.33 83.84l-6.65 1.2-.7-3.37 7-1.02z"/><path fill="#0018FF" d="M148.69 85.04l-5.84 1.7-1.06-3.52 6.2-1.55z"/><path fill="#0000F1" d="M156.14 88.78l-5.84 1.5-.84-2.34 6.26-1.36z"/><path fill="#0000DA" d="M150.3 90.28l-5.02 1.92-1.26-2.44 5.44-1.82z"/><path fill="#0058FF" d="M154.99 80.65l-7 1.02-.6-3.78 7.3-.82z"/><path fill="#0048FF" d="M147.99 81.67l-6.2 1.55-.92-3.95 6.51-1.38z"/><path fill="#0014FF" d="M162.56 85.68l-6.84.9-.39-2.74 7.2-.7z"/><path fill="#0000DA" d="M156.58 90.4l-5.41 1.6-.87-1.72 5.84-1.5z"/><path fill="#0000E8" d="M144.02 89.76l-4.46 2.26-1.56-3.1 4.85-2.18z"/><path fill="#0000C4" d="M151.17 92l-4.57 2.01-1.32-1.8 5.02-1.93z"/><path fill="#003CFF" d="M162.54 83.13l-7.2.71-.35-3.2 7.53-.5z"/><path fill="#0008FF" d="M142.85 86.74L138 88.91l-1.42-3.63 5.2-2.06z"/><path fill="#00F" d="M162.6 87.72l-6.46 1.06-.42-2.2 6.84-.9z"/><path fill="#0000C8" d="M145.28 92.2l-4.04 2.33-1.68-2.5 4.46-2.27z"/><path fill="#0090FF" d="M154.69 77.07l-7.3.82-.5-4.1 7.56-.6z"/><path fill="#0084FF" d="M147.38 77.89l-6.51 1.38-.76-4.27 6.77-1.2z"/><path fill="#0068FF" d="M162.52 80.14l-7.53.5-.3-3.57 7.81-.28z"/><path fill="#003CFF" d="M141.79 83.22l-5.2 2.06-1.24-4.08 5.52-1.93z"/><path fill="#0000F6" d="M162.63 89.22l-6.05 1.18-.44-1.62 6.45-1.06z"/><path fill="#0000D1" d="M157.03 91.4l-4.97 1.68-.89-1.07 5.41-1.6z"/><path fill="#0000AD" d="M146.6 94.01l-3.6 2.37-1.76-1.85 4.04-2.32z"/><path fill="#00B" d="M152.06 93.08l-4.11 2.06L146.6 94l4.57-2z"/><path fill="#009CFF" d="M162.5 76.79l-7.81.28-.24-3.88 8.05-.04z"/><path fill="#0078FF" d="M140.87 79.27l-5.52 1.93-1-4.41L140.1 75z"/><path fill="#0000ED" d="M162.67 90.12l-5.64 1.28-.45-1 6.05-1.18z"/><path fill="#0CF" d="M154.45 73.19l-7.56.6-.38-4.3 7.76-.39z"/><path fill="#002CFF" d="M169.68 85.22l-7.12.46-.03-2.55 7.44-.25z"/><path fill="#00C4FF" d="M146.88 73.8l-6.77 1.2-.57-4.5 6.97-1z"/><path fill="#0014FF" d="M169.36 87.09l-6.77.63-.03-2.04 7.12-.46z"/><path fill="#0050FF" d="M169.98 82.88l-7.44.25-.02-2.98 7.73-.03z"/><path fill="#0000DA" d="M139.56 92.02l-3.4 2.64-1.93-3.16 3.77-2.59z"/><path fill="#00F" d="M138 88.91l-3.77 2.6-1.75-3.7 4.1-2.53z"/><path fill="#0000A4" d="M147.95 95.14l-3.16 2.38-1.79-1.14 3.6-2.37z"/><path fill="#0000B6" d="M141.24 94.53l-3 2.67-2.08-2.54 3.4-2.64z"/><path fill="#0000D6" d="M157.48 91.75l-4.53 1.72-.89-.39 4.97-1.68z"/><path fill="#0004FF" d="M169.04 88.44l-6.41.78-.04-1.5 6.77-.63z"/><path fill="#0078FF" d="M170.25 80.12l-7.73.02-.02-3.35 8 .22z"/><path fill="#0000BF" d="M152.95 93.47l-3.66 2.08-1.34-.41 4.11-2.06z"/><path fill="#00D8FF" d="M162.5 73.15l-8.06.04-.18-4.09 8.24.2z"/><path fill="#0034FF" d="M136.58 85.28l-4.1 2.52-1.51-4.15 4.39-2.45z"/><path fill="#0000F1" d="M162.72 90.4l-5.24 1.35-.45-.35 5.64-1.28z"/><path fill="#00009F" d="M143 96.38l-2.6 2.67-2.17-1.85 3.01-2.67z"/><path fill="#00BCFF" d="M140.11 75l-5.77 1.79-.76-4.66 5.96-1.63z"/><path fill="#00F" d="M168.72 89.23l-6.05.9-.04-.91 6.41-.78z"/><path fill="#23FFD4" d="M154.26 69.1l-7.75.4-.24-4.43 7.88-.16z"/><path fill="#00ACFF" d="M170.49 77.01l-7.99-.22v-3.64l8.2.47z"/><path fill="#1CFFDB" d="M146.51 69.5l-6.97 1-.38-4.61 7.1-.81z"/><path fill="#0000AD" d="M149.29 95.55l-2.72 2.38-1.78-.4 3.16-2.4z"/><path fill="#0070FF" d="M135.35 81.2l-4.38 2.45-1.25-4.52 4.62-2.34z"/><path fill="#0000E8" d="M157.92 91.44l-4.11 1.73-.86.3 4.53-1.72z"/><path fill="#000096" d="M144.8 97.52l-2.2 2.66-2.2-1.13 2.6-2.67z"/><path fill="#26FFD1" d="M162.5 69.3l-8.23-.2-.12-4.19 8.36.45z"/><path fill="#00F" d="M168.4 89.44l-5.68.97-.05-.3 6.05-.88z"/><path fill="#0000D1" d="M153.81 93.17l-3.23 2.06-1.3.32 3.67-2.08z"/><path fill="#00E0FB" d="M170.7 73.63l-8.2-.48V69.3l8.36.73z"/><path fill="#00F" d="M162.76 90.07l-4.84 1.37-.44.31 5.24-1.34z"/><path fill="#19FFDE" d="M139.54 70.5l-5.96 1.64-.5-4.78 6.08-1.47z"/><path fill="#0000D1" d="M136.16 94.66l-2.36 2.94-2.25-3.16 2.68-2.93z"/><path fill="#0000A8" d="M138.23 97.2l-2.01 2.92-2.42-2.52 2.36-2.94z"/><path fill="#5AFF9D" d="M154.15 64.91l-7.88.16-.1-4.42 7.94.06z"/><path fill="#00F" d="M134.23 91.5l-2.68 2.94-2.03-3.72 2.96-2.92z"/><path fill="#00B8FF" d="M134.34 76.79l-4.62 2.34-.95-4.77 4.8-2.22z"/><path fill="#5AFF9D" d="M146.27 65.07l-7.1.82-.17-4.62 7.17-.62z"/><path fill="#0000BF" d="M150.58 95.23l-2.28 2.34-1.73.35 2.72-2.37z"/><path fill="#00009B" d="M146.57 97.93l-1.77 2.61-2.2-.36 2.2-2.66z"/><path fill="#000092" d="M140.4 99.05l-1.66 2.88-2.52-1.81 2.01-2.92z"/><path fill="#000CFF" d="M168.1 89.07l-5.34 1-.04.34 5.68-.97z"/><path fill="#002CFF" d="M132.48 87.8l-2.96 2.92-1.77-4.2 3.22-2.88z"/><path fill="#5DFF9A" d="M162.51 65.36l-8.36-.45-.04-4.2 8.42.7z"/><path fill="#2CFFCA" d="M170.86 70.04l-8.36-.73.01-3.95 8.47 1z"/><path fill="#00F" d="M158.34 90.46l-3.71 1.7-.82 1 4.11-1.72z"/><path fill="#000CFF" d="M162.81 89.11l-4.47 1.35-.42.98 4.84-1.37z"/><path fill="#0000F1" d="M154.63 92.16l-2.82 2.02-1.23 1.05 3.23-2.06z"/><path fill="#56FFA0" d="M139.16 65.89l-6.09 1.47-.23-4.8 6.16-1.3z"/><path fill="#000089" d="M142.6 100.18l-1.3 2.83-2.56-1.08 1.66-2.88z"/><path fill="#006CFF" d="M130.97 83.65l-3.22 2.87-1.45-4.57 3.42-2.82z"/><path fill="#16FFE1" d="M133.58 72.13l-4.8 2.23-.63-4.91 4.92-2.1z"/><path fill="#94FF63" d="M154.11 60.71l-7.95-.06.04-4.31 7.94.27z"/><path fill="#0024FF" d="M167.82 88.12l-5.01 1-.05.95 5.34-1z"/><path fill="#0000AD" d="M148.3 97.57l-1.38 2.56-2.12.41 1.77-2.62z"/><path fill="#5DFF9A" d="M170.98 66.36l-8.47-1 .02-3.96 8.52 1.26z"/><path fill="#94FF63" d="M146.16 60.65l-7.16.62.04-4.51 7.16-.42z"/><path fill="#0000DF" d="M151.81 94.18l-1.88 2.28-1.63 1.11 2.29-2.34z"/><path fill="#90FF66" d="M162.53 61.4l-8.42-.69.03-4.1 8.41.92z"/><path fill="#00008D" d="M144.8 100.54l-.94 2.76-2.55-.3 1.3-2.82z"/><path fill="#001CFF" d="M158.72 88.84l-3.35 1.63-.75 1.69 3.72-1.7z"/><path fill="#0030FF" d="M162.86 87.55l-4.14 1.29-.38 1.62 4.47-1.35z"/><path fill="#00B0FF" d="M129.72 79.13l-3.42 2.82-1.1-4.85 3.57-2.74z"/><path fill="#0000C8" d="M133.8 97.6l-1.39 3.12-2.5-3.1 1.64-3.18z"/><path fill="#0000A4" d="M136.22 100.12l-1.12 3.06-2.69-2.46 1.4-3.12z"/><path fill="#0008FF" d="M155.37 90.48l-2.44 1.94-1.12 1.76 2.81-2.02z"/><path fill="#00F" d="M131.55 94.44l-1.65 3.17-2.26-3.7 1.88-3.2z"/><path fill="#94FF63" d="M139 61.27l-6.15 1.3.05-4.69 6.15-1.12z"/><path fill="#003CFF" d="M173.08 87.49l-5.26.63.28.95 5.53-.64z"/><path fill="#56FFA0" d="M133.07 67.36l-4.92 2.09-.28-4.93 4.97-1.96z"/><path fill="#000089" d="M138.74 101.93l-.83 3-2.81-1.75 1.12-3.07z"/><path fill="#04F" d="M167.57 86.61l-4.71.94-.05 1.56 5.01-.99z"/><path fill="#90FF66" d="M171.05 62.66l-8.52-1.26.02-3.86 8.52 1.5z"/><path fill="#CAFF2C" d="M154.14 56.61l-7.94-.27.19-4.1 7.86.48z"/><path fill="#0000CD" d="M149.93 96.47l-1 2.48-2 1.18 1.37-2.56z"/><path fill="#0028FF" d="M129.52 90.72l-1.88 3.2-1.97-4.2 2.08-3.2z"/><path fill="#CEFF29" d="M146.2 56.34l-7.15.42.26-4.29 7.08-.23z"/><path fill="#C7FF30" d="M162.55 57.54l-8.4-.93.1-3.89 8.33 1.14z"/><path fill="#00009F" d="M146.92 100.13l-.58 2.68-2.48.5.94-2.77z"/><path fill="#00F" d="M152.93 92.42l-1.5 2.2-1.5 1.85 1.88-2.3z"/><path fill="navy" d="M141.3 103l-.53 2.9-2.86-.98.83-2.99z"/><path fill="#16FFE1" d="M128.77 74.36l-3.58 2.74-.73-5 3.69-2.65z"/><path fill="#0058FF" d="M162.9 85.41l-3.84 1.2-.34 2.23 4.14-1.3z"/><path fill="#0048FF" d="M159.06 86.6l-3.03 1.55-.66 2.32 3.35-1.63z"/><path fill="#0058FF" d="M172.58 86.03l-5 .58.24 1.51 5.26-.63z"/><path fill="#0068FF" d="M127.75 86.52l-2.08 3.21-1.62-4.58 2.25-3.2z"/><path fill="#006CFF" d="M167.36 84.57l-4.46.85-.04 2.13 4.71-.94z"/><path fill="#0038FF" d="M156.03 88.15l-2.1 1.84-1 2.43 2.44-1.94z"/><path fill="#C1FF36" d="M171.07 59.03l-8.52-1.5.03-3.67 8.45 1.72z"/><path fill="#000084" d="M143.86 103.3l-.25 2.81-2.84-.2.54-2.9z"/><path fill="#97FF60" d="M132.84 62.56l-4.97 1.96.07-4.82 4.96-1.82z"/><path fill="#D1FF26" d="M139.04 56.76l-6.14 1.13.35-4.46 6.06-.96z"/><path fill="#FFEA00" d="M154.25 52.72l-7.86-.48.32-3.77 7.7.66z"/><path fill="#00F" d="M151.42 94.63l-.65 2.39-1.84 1.93 1-2.48z"/><path fill="#0000C4" d="M148.93 98.95l-.25 2.6-2.34 1.27.58-2.69z"/><path fill="#FBF100" d="M162.58 53.86l-8.33-1.14.17-3.59 8.2 1.34z"/><path fill="#0080FF" d="M172.15 84.08l-4.8.5.22 2.03 5-.58z"/><path fill="#FFE200" d="M146.39 52.24l-7.08.23.48-3.95 6.92-.05z"/><path fill="#53FFA4" d="M128.15 69.45l-3.69 2.66-.32-5.03 3.73-2.56z"/><path fill="#00B0FF" d="M126.3 81.95l-2.25 3.2-1.23-4.88 2.37-3.17z"/><path fill="#002CFF" d="M153.92 89.99l-1.18 2.1-1.32 2.53 1.51-2.2z"/><path fill="#00009F" d="M135.1 103.18l-.24 2.97-2.8-2.42.35-3z"/><path fill="#0000C8" d="M132.41 100.72l-.35 3.01-2.61-3.08.45-3.04z"/><path fill="#008CFF" d="M162.95 82.76l-3.6 1.06-.29 2.79 3.84-1.2z"/><path fill="#007CFF" d="M159.35 83.82l-2.77 1.4-.55 2.93 3.03-1.54z"/><path fill="#000089" d="M137.9 104.92l-.11 2.92-2.93-1.7.24-2.96z"/><path fill="#00009B" d="M146.34 102.81l.02 2.7-2.75.6.25-2.8z"/><path fill="#0000FA" d="M129.9 97.61l-.45 3.04-2.36-3.66.55-3.07z"/><path fill="#009CFF" d="M167.19 82.06l-4.24.7-.05 2.65 4.46-.84z"/><path fill="#F1FC06" d="M171.03 55.58l-8.45-1.72.04-3.4 8.32 1.93z"/><path fill="#0070FF" d="M156.58 85.22l-1.83 1.72-.83 3.05 2.11-1.84z"/><path fill="navy" d="M140.77 105.91v2.87l-2.98-.94.12-2.92z"/><path fill="#D4FF23" d="M132.9 57.88l-4.96 1.82.42-4.6 4.9-1.67z"/><path fill="#FFDB00" d="M139.3 52.47l-6.05.96.63-4.11 5.9-.8z"/><path fill="#0024FF" d="M127.64 93.92l-.55 3.06-2.05-4.17.63-3.08z"/><path fill="#00ACFF" d="M171.8 81.7l-4.61.36.17 2.51 4.78-.49z"/><path fill="#FFB200" d="M154.42 49.13l-7.71-.66.45-3.35 7.5.83z"/><path fill="#13FCE4" d="M125.2 77.1l-2.38 3.18-.81-5.05 2.45-3.12z"/><path fill="#0000F1" d="M150.77 97.02l.05 2.49-2.14 2.03.25-2.6z"/><path fill="#FFBD00" d="M162.62 50.47l-8.2-1.34.24-3.18 8 1.5z"/><path fill="#0020FF" d="M152.74 92.09l-.35 2.28-1.62 2.65.65-2.4z"/><path fill="#97FF60" d="M127.87 64.52l-3.73 2.56.08-4.94 3.72-2.44z"/><path fill="#FFA700" d="M146.7 48.47l-6.91.05.68-3.5 6.7.1z"/><path fill="#00C4FF" d="M162.99 79.65l-3.42.89-.22 3.28 3.6-1.06z"/><path fill="#000084" d="M143.6 106.11l.12 2.81-2.96-.14v-2.87z"/><path fill="#00B" d="M148.68 101.54l.28 2.6-2.6 1.38-.02-2.7z"/><path fill="#0068FF" d="M154.75 86.94l-.9 1.97-1.11 3.18 1.18-2.1z"/><path fill="#00D0FF" d="M167.06 79.12l-4.07.53-.04 3.11 4.24-.7z"/><path fill="#0064FF" d="M125.67 89.73l-.63 3.08-1.69-4.57.7-3.1z"/><path fill="#00B8FF" d="M159.57 80.54l-2.56 1.24-.43 3.45 2.77-1.4z"/><path fill="#FFC800" d="M170.94 52.39l-8.32-1.92.04-3.02 8.15 2.1z"/><path fill="#00DCFE" d="M171.53 78.94l-4.47.18.13 2.94 4.6-.36z"/><path fill="#00B0FF" d="M157.01 81.78l-1.61 1.56-.65 3.6 1.83-1.72z"/><path fill="#000096" d="M146.36 105.52l.23 2.75-2.87.65-.11-2.81z"/><path fill="#53FFA4" d="M124.46 72.1l-2.45 3.13-.36-5.09 2.48-3.06z"/><path fill="gold" d="M133.25 53.43l-4.88 1.67.77-4.25 4.74-1.53z"/><path fill="#FF7A00" d="M154.66 45.95l-7.5-.83.58-2.84 7.22.97z"/><path fill="#FF9C00" d="M139.79 48.52l-5.9.8.9-3.65 5.68-.65z"/><path fill="#FF8900" d="M162.66 47.45l-8-1.5.3-2.7 7.74 1.64z"/><path fill="#00009F" d="M134.86 106.15l.34 2.7-2.8-2.4-.34-2.72z"/><path fill="#0000C8" d="M132.06 103.73l.35 2.72-2.61-3.08-.35-2.72z"/><path fill="#0018FF" d="M152.4 94.37l.3 2.39-1.88 2.75-.05-2.5z"/><path fill="#00ACFF" d="M124.05 85.15l-.7 3.09-1.28-4.88.75-3.09z"/><path fill="#000089" d="M137.79 107.84l.33 2.71-2.92-1.7-.34-2.7z"/><path fill="#005CFF" d="M153.84 88.91l-.1 2.17-1.35 3.3.35-2.29z"/><path fill="#16FFE1" d="M163.02 76.16l-3.29.68-.16 3.7 3.42-.9z"/><path fill="#0000ED" d="M150.82 99.5l.53 2.5-2.38 2.14-.3-2.6z"/><path fill="#1CFFDB" d="M166.99 75.84l-3.97.32-.03 3.49 4.07-.53z"/><path fill="#D7FF1F" d="M127.94 59.7l-3.72 2.44.5-4.71 3.65-2.33z"/><path fill="#0000FA" d="M129.45 100.65l.35 2.72-2.35-3.65-.36-2.74z"/><path fill="#FF6F00" d="M147.16 45.12l-6.7-.1.87-2.97 6.41.23z"/><path fill="#FF9800" d="M170.8 49.55l-8.14-2.1.04-2.56 7.92 2.23z"/><path fill="#13FCE4" d="M159.74 76.84l-2.43 1.05-.3 3.89 2.57-1.24z"/><path fill="#00A8FF" d="M155.4 83.34l-.7 1.83-.86 3.74.9-1.97z"/><path fill="navy" d="M140.76 108.78l.33 2.7-2.97-.93-.33-2.7z"/><path fill="#23FFD4" d="M171.37 75.87l-4.38-.03.07 3.28 4.47-.18z"/><path fill="#0024FF" d="M127.1 96.99l.35 2.73-2.05-4.16-.36-2.74z"/><path fill="#00B" d="M148.97 104.14l.33 2.7-2.7 1.43-.24-2.75z"/><path fill="#0CF4EB" d="M157.31 77.9l-1.47 1.38-.44 4.06 1.62-1.56z"/><path fill="#13FCE4" d="M122.82 80.28l-.75 3.08-.84-5.05.78-3.08z"/><path fill="#FF6000" d="M162.7 44.89l-7.74-1.64.36-2.13 7.43 1.74z"/><path fill="#97FF60" d="M124.14 67.08l-2.5 3.06.1-5 2.48-3z"/><path fill="#000084" d="M143.72 108.92l.33 2.72-2.96-.15-.33-2.71z"/><path fill="#FF4E00" d="M154.96 43.25l-7.22-.97.7-2.23 6.88 1.07z"/><path fill="#FF9400" d="M133.88 49.32l-4.74 1.53 1.11-3.8 4.53-1.38z"/><path fill="#FF6400" d="M140.47 45.02l-5.69.65 1.15-3.1 5.4-.52z"/><path fill="#50FFA7" d="M166.97 72.29l-3.92.08-.03 3.78 3.97-.32z"/><path fill="#4DFFAA" d="M163.05 72.37l-3.23.46-.09 4.01 3.29-.69z"/><path fill="#0058FF" d="M153.75 91.08l.54 2.27-1.58 3.4-.32-2.38z"/><path fill="#FF6F00" d="M170.62 47.12l-7.92-2.23.05-2.03 7.65 2.33z"/><path fill="#0068FF" d="M125.04 92.81l.36 2.75-1.68-4.56-.37-2.76z"/><path fill="#0014FF" d="M152.7 96.76l.75 2.38-2.1 2.86-.53-2.5z"/><path fill="#00A0FF" d="M154.7 85.17l.1 2.03-1.05 3.88.09-2.17z"/><path fill="#53FFA4" d="M171.3 72.57l-4.33-.28.02 3.55 4.38.03z"/><path fill="#FF3F00" d="M147.74 42.29l-6.4-.24 1.02-2.34 6.07.34z"/><path fill="#FFD300" d="M128.37 55.1l-3.65 2.33.9-4.38 3.52-2.2z"/><path fill="#49FFAD" d="M159.82 72.83l-2.35.84-.16 4.22 2.42-1.05z"/><path fill="#09F0EE" d="M155.84 79.28l-.55 1.67-.6 4.22.7-1.83z"/><path fill="#00009B" d="M146.6 108.28l.31 2.72-2.86.64-.33-2.71z"/><path fill="#0000E8" d="M151.34 102l.44 2.64-2.48 2.2-.34-2.7z"/><path fill="#FF3B00" d="M162.75 42.86l-7.43-1.74.4-1.5 7.08 1.8z"/><path fill="#0000A8" d="M135.2 108.86l.53 2.43-2.77-2.39-.55-2.45z"/><path fill="#0000CD" d="M132.4 106.44l.56 2.46-2.58-3.04-.58-2.49z"/><path fill="#53FFA4" d="M122.01 75.23l-.78 3.08-.38-5.11.8-3.06z"/><path fill="#46FFB1" d="M157.47 73.67l-1.4 1.19-.23 4.42 1.47-1.38z"/><path fill="#FF2900" d="M155.32 41.12l-6.89-1.07.78-1.57 6.5 1.14z"/><path fill="#00B0FF" d="M123.35 88.24l.37 2.76-1.28-4.86-.37-2.78z"/><path fill="#80FF77" d="M167 68.57l-3.93-.18-.02 3.98 3.92-.08z"/><path fill="#000092" d="M138.12 110.55l.5 2.42-2.9-1.68-.52-2.43z"/><path fill="#80FF77" d="M163.07 68.39l-3.23.2-.02 4.24 3.23-.46z"/><path fill="#FF4E00" d="M170.4 45.2l-7.65-2.34.05-1.44 7.33 2.4z"/><path fill="#D7FF1F" d="M124.22 62.14l-2.48 3 .56-4.81 2.42-2.9z"/><path fill="#00F" d="M129.8 103.37l.58 2.5-2.33-3.62-.6-2.53z"/><path fill="#80FF77" d="M171.35 69.11l-4.35-.54-.03 3.72 4.33.28z"/><path fill="#FF3000" d="M141.33 42.05l-5.4.52 1.38-2.46 5.05-.4z"/><path fill="#FF5900" d="M134.78 45.67l-4.53 1.39 1.42-3.23 4.26-1.26z"/><path fill="#000084" d="M141.1 111.49l.46 2.4-2.94-.92-.5-2.42z"/><path fill="#80FF77" d="M159.84 68.6l-2.37.6v4.47l2.35-.84z"/><path fill="#009CFF" d="M154.8 87.2l.72 2.16-1.23 3.99-.54-2.27z"/><path fill="#00B" d="M149.3 106.84l.32 2.73-2.7 1.43-.33-2.73z"/><path fill="#0054FF" d="M154.29 93.35l.92 2.28-1.76 3.5-.74-2.38z"/><path fill="#FF1600" d="M148.43 40.05l-6.07-.35 1.18-1.64 5.67.42z"/><path fill="#0028FF" d="M127.45 99.72l.6 2.53-2.02-4.11-.63-2.58z"/><path fill="#06ECF1" d="M155.29 80.95l.24 1.9-.72 4.35-.11-2.03z"/><path fill="#FF9100" d="M129.14 50.85l-3.51 2.2 1.3-3.91 3.32-2.08z"/><path fill="#F20" d="M162.8 41.42l-7.08-1.8.43-.83 6.7 1.83z"/><path fill="#43FFB4" d="M156.07 74.86l-.48 1.5-.3 4.6.55-1.68z"/><path fill="#0014FF" d="M153.45 99.14l.52 2.6-2.2 2.9-.42-2.64z"/><path fill="#B4FF43" d="M167.09 64.77l-4-.46-.02 4.08 3.93.17z"/><path fill="#00008D" d="M144.05 111.64l.43 2.41-2.92-.15-.47-2.41z"/><path fill="#FF3800" d="M170.13 43.81l-7.33-2.38.05-.8 6.99 2.4z"/><path fill="#13FCE4" d="M122.07 83.36l.37 2.78-.84-5.03-.37-2.8z"/><path fill="#ADFF49" d="M171.5 65.6l-4.41-.83-.09 3.8 4.35.54z"/><path fill="#B7FF40" d="M163.09 64.31l-3.32-.05.07 4.34 3.23-.21z"/><path fill="#F60B00" d="M155.72 39.62l-6.5-1.14.85-.86 6.08 1.17z"/><path fill="#80FF77" d="M157.47 69.2l-1.4 1v4.66l1.4-1.2z"/><path fill="#97FF60" d="M121.65 70.14l-.8 3.06.1-5.04.8-3.03z"/><path fill="#0068FF" d="M125.4 95.56l.63 2.58-1.66-4.5-.65-2.64z"/><path fill="#BAFF3C" d="M159.77 64.27l-2.44.36.14 4.58 2.37-.61z"/><path fill="#FFD000" d="M124.72 57.43l-2.42 2.9 1.02-4.47 2.3-2.8z"/><path fill="#F10800" d="M142.37 39.7l-5.06.41 1.56-1.73 4.67-.32z"/><path fill="#0000ED" d="M151.78 104.64l.31 2.75-2.47 2.18-.32-2.73z"/><path fill="#DF0000" d="M149.21 38.48l-5.67-.42 1.28-.9 5.25.46z"/><path fill="#E4FF13" d="M167.22 61l-4.12-.74-.01 4.06 4 .45z"/><path fill="#FA0F00" d="M162.85 40.62l-6.7-1.82.46-.12 6.29 1.8z"/><path fill="#FF2500" d="M135.93 42.57l-4.26 1.26 1.7-2.56 3.94-1.16z"/><path fill="#00009F" d="M146.91 111l.4 2.43-2.83.62-.43-2.4z"/><path fill="#FF2500" d="M169.84 43.02l-7-2.4.05-.14 6.63 2.36z"/><path fill="#DBFF1C" d="M171.74 62.13L167.22 61l-.13 3.77 4.4.83z"/><path fill="#EBFF0C" d="M163.1 60.26l-3.46-.32.13 4.33 3.32.05z"/><path fill="#02E8F4" d="M155.53 82.85l.84 2.05-.85 4.46-.71-2.16z"/><path fill="#0098FF" d="M155.52 89.36l1.06 2.2-1.37 4.07-.92-2.28z"/><path fill="#43FFB4" d="M155.59 76.36l.32 1.76-.37 4.73-.25-1.9z"/><path fill="#DF0000" d="M156.15 38.8l-6.08-1.18.9-.11 5.64 1.16z"/><path fill="#0000B2" d="M135.73 111.29l.51 2.04-2.71-2.34-.57-2.09z"/><path fill="#0000DA" d="M132.96 108.9l.57 2.09L131 108l-.62-2.14z"/><path fill="#80FF77" d="M156.2 70.2l-.61 1.32v4.84l.62-1.5z"/><path fill="#00B0FF" d="M123.72 91l.65 2.63-1.27-4.8-.66-2.69z"/><path fill="#F50" d="M130.25 47.06l-3.33 2.08 1.66-3.34 3.1-1.97z"/><path fill="#53FFA4" d="M121.22 78.3l.38 2.8-.38-5.08-.37-2.82z"/><path fill="#00009B" d="M138.62 112.97l.46 2-2.84-1.64-.51-2.04z"/><path fill="#BEFF39" d="M157.33 64.63l-1.49.78.23 4.78 1.4-.98z"/><path fill="#0050FF" d="M155.2 95.63l.6 2.55-1.84 3.55-.51-2.6z"/><path fill="#00F" d="M130.38 105.87L131 108l-2.29-3.55-.66-2.21z"/><path fill="gold" d="M167.41 57.36l-4.31-1.02v3.92l4.12.74z"/><path fill="#F1FC06" d="M159.63 59.95l-2.6.12.3 4.56 2.44-.36z"/><path fill="#ED0400" d="M162.9 40.48l-6.29-1.8.47.59 5.86 1.73z"/><path fill="#FF1E00" d="M169.52 42.84l-6.62-2.36.04.52 6.25 2.29z"/><path fill="#FFE200" d="M172.08 58.78l-4.67-1.42-.19 3.64 4.52 1.13z"/><path fill="#D7FF1F" d="M121.74 65.13l-.79 3.03.58-4.84.77-3z"/><path fill="#000092" d="M141.56 113.9l.4 2-2.88-.92-.46-2.01z"/><path fill="#FC0" d="M163.1 56.34l-3.67-.59.2 4.2 3.46.31z"/><path fill="#C80000" d="M150.07 37.65l-5.24-.49 1.36-.13 4.78.5z"/><path fill="#0000C4" d="M149.61 109.57l.38 2.45-2.67 1.4-.41-2.42z"/><path fill="#CD0000" d="M143.54 38.06l-4.67.32 1.71-.96 4.24-.27z"/><path fill="#0030FF" d="M128.05 102.25l.66 2.21-1.98-4.02-.7-2.3z"/><path fill="#D10000" d="M156.61 38.67l-5.64-1.16.93.64 5.18 1.12z"/><path fill="#0014FF" d="M153.97 101.73l.3 2.77-2.18 2.9-.31-2.76z"/><path fill="#FFA700" d="M167.64 53.95l-4.55-1.3v3.69l4.32 1.02z"/><path fill="#FF1E00" d="M169.19 43.29L162.94 41l.04 1.19 5.87 2.16z"/><path fill="#FF8D00" d="M125.63 53.05l-2.31 2.8 1.45-4 2.15-2.7z"/><path fill="#FFB600" d="M172.51 55.66l-4.87-1.7-.23 3.4 4.67 1.42z"/><path fill="#F10800" d="M162.94 41l-5.86-1.73.47 1.3 5.43 1.62z"/><path fill="#E40000" d="M137.3 40.11l-3.93 1.16 1.93-1.84 3.57-1.05z"/><path fill="#FFC100" d="M159.43 55.75l-2.83-.11.44 4.43 2.6-.13z"/><path fill="#FF9800" d="M163.09 52.65l-3.94-.84.28 3.94 3.66.59z"/><path fill="#000096" d="M144.48 114.05l.35 2-2.87-.16-.4-2z"/><path fill="#F8F500" d="M157.04 60.07l-1.65.56.45 4.78 1.49-.78z"/><path fill="#13FCE4" d="M122.44 86.14l.66 2.7-.83-4.98-.67-2.75z"/><path fill="#C1FF36" d="M155.84 65.4l-.56 1.16.3 4.96.49-1.33z"/><path fill="#FF7E00" d="M167.9 50.87l-4.83-1.56.02 3.34 4.55 1.3z"/><path fill="#83FF73" d="M155.59 71.53l.62 1.61v4.98l-.62-1.76z"/><path fill="#FF2900" d="M168.85 44.35l-5.87-2.16.04 1.81 5.5 2z"/><path fill="#40FFB7" d="M155.9 78.12l.9 1.94-.43 4.84-.84-2.05z"/><path fill="#FF9100" d="M173.02 52.84l-5.12-1.97-.26 3.08 4.87 1.7z"/><path fill="#00E4F8" d="M156.37 84.9l1.16 2.1-.95 4.55-1.06-2.19z"/><path fill="#FF1300" d="M162.98 42.19l-5.43-1.63.45 1.96 5.02 1.48z"/><path fill="#D60000" d="M157.08 39.27l-5.18-1.12.93 1.38 4.72 1.03z"/><path fill="#FF5900" d="M168.2 48.2l-5.15-1.8.02 2.9 4.83 1.57z"/><path fill="#97FF60" d="M120.85 73.2l.48 2.82.14-5.02-.49-2.84z"/><path fill="#FF3B00" d="M168.52 46l-5.5-2 .03 2.4 5.15 1.8z"/><path fill="#0070FF" d="M126.03 98.14l.7 2.3-1.63-4.42-.73-2.39z"/><path fill="#FF6C00" d="M163.07 49.3l-4.26-1.07.34 3.58 3.94.84z"/><path fill="#FF6F00" d="M173.58 50.41l-5.38-2.22-.3 2.68 5.12 1.97z"/><path fill="#FF1E00" d="M131.67 43.83l-3.09 1.97 1.98-2.68 2.8-1.85z"/><path fill="#B00" d="M150.97 37.5l-4.78-.47 1.4.67 4.3.45z"/><path fill="#0098FF" d="M156.58 91.55l.65 2.5-1.43 4.13-.6-2.55z"/><path fill="#FF2900" d="M163.02 44L158 42.52l.43 2.58 4.62 1.3z"/><path fill="#FF4700" d="M163.05 46.4l-4.62-1.3.38 3.13 4.26 1.08z"/><path fill="#FF8900" d="M159.15 51.81l-3.11-.34.56 4.17 2.83.11z"/><path fill="#B20000" d="M144.82 37.23l-4.24.42 1.82-.25 3.79-.37z"/><path fill="#0000F1" d="M152.1 107.4l.35 2.47-2.46 2.15-.37-2.45z"/><path fill="#E40000" d="M157.55 40.56l-4.72-1.03.9 2.09 4.27.9z"/><path fill="#FFD000" d="M122.3 60.33l-.76 2.99 1.06-4.51.72-2.95z"/><path fill="#0000A8" d="M147.32 113.43l.3 2-2.79.62-.35-2z"/><path fill="#FFB900" d="M156.6 55.64l-1.87.36.66 4.63 1.65-.56z"/><path fill="#FF5D00" d="M158.81 48.23l-3.45-.56.68 3.8 3.1.34z"/><path fill="#0000C4" d="M136.24 113.33l.36 1.54-2.64-2.27-.43-1.61z"/><path fill="#FF1300" d="M158 42.52l-4.27-.9.85 2.74 3.85.74z"/><path fill="#0000E8" d="M133.53 110.98l.43 1.62-2.46-2.9-.5-1.7z"/><path fill="#FF3400" d="M158.43 45.1l-3.85-.74.78 3.31 3.45.56z"/><path fill="#FBF100" d="M155.39 60.63l-.71.98.6 4.95.56-1.15z"/><path fill="#0054FF" d="M155.8 98.18l.3 2.78-1.83 3.54-.3-2.77z"/><path fill="#B00" d="M138.87 38.38l-3.57 1.06 2.1-1.04 3.18-.98z"/><path fill="#BF0000" d="M151.9 38.15l-4.31-.45 1.4 1.44 3.84.4z"/><path fill="#0000AD" d="M139.08 114.98l.27 1.5-2.75-1.6-.36-1.55z"/><path fill="#00B4FF" d="M124.36 93.63l.74 2.4-1.24-4.7-.76-2.5z"/><path fill="#53FFA4" d="M121.6 81.1l.67 2.76-.37-5.02-.68-2.82z"/><path fill="#FF4E00" d="M126.92 49.14l-2.15 2.7 1.85-3.45 1.96-2.6z"/><path fill="#0004FF" d="M131 108l.5 1.7-2.22-3.44-.57-1.8z"/><path fill="#C1FF36" d="M155.28 66.56l.25 1.48.38 5.1-.32-1.62z"/><path fill="#FF7E00" d="M156.04 51.47l-2.18.16.86 4.36 1.88-.35z"/><path fill="#83FF73" d="M155.9 73.14l.91 1.84v5.08l-.9-1.94z"/><path fill="#0000A4" d="M141.96 115.9l.2 1.47-2.8-.9-.28-1.5z"/><path fill="#A40000" d="M146.19 37.03l-3.79.23 1.87.67 3.32-.23z"/><path fill="#CD0000" d="M152.83 39.53l-3.84-.39 1.37 2.19 3.37.29z"/><path fill="#40FFB7" d="M156.8 80.06l1.21 2.03-.48 4.9-1.16-2.1z"/><path fill="#D7FF1F" d="M120.95 68.16l.37 2.84.6-4.82-.38-2.86z"/><path fill="#DA0000" d="M133.37 41.27l-2.8 1.85 2.24-1.93 2.49-1.75z"/><path fill="#0000CD" d="M150 112.02l.24 2.05-2.63 1.37-.3-2.02z"/><path fill="#003CFF" d="M128.72 104.46l.56 1.8-1.92-3.91-.63-1.91z"/><path fill="#FF4E00" d="M155.36 47.67l-2.53-.01 1.03 3.97 2.18-.16z"/><path fill="#E80000" d="M153.73 41.62l-3.37-.3 1.3 2.87 2.92.17z"/><path fill="#FFAE00" d="M154.72 56l-.93.8.89 4.81.7-.98z"/><path fill="#00E4F8" d="M157.53 87l.69 2.47-1 4.59-.64-2.5z"/><path fill="#F20" d="M154.58 44.36l-2.93-.17 1.18 3.47 2.53.01z"/><path fill="#0018FF" d="M154.27 104.5l.33 2.52-2.16 2.85-.35-2.48z"/><path fill="#0000A8" d="M144.83 116.05l.12 1.47-2.8-.15-.19-1.48z"/><path fill="#9F0000" d="M140.58 37.42l-3.17.98 2.24-.2 2.75-.94z"/><path fill="#16FFE1" d="M123.1 88.84l.76 2.48-.8-4.86-.79-2.6z"/><path fill="#FF8D00" d="M123.32 55.86l-.72 2.95 1.5-4.07.67-2.9z"/><path fill="#A80000" d="M147.6 37.7l-3.33.23 1.87 1.47 2.86-.26z"/><path fill="#FEED00" d="M154.68 61.61l.11 1.35.74 5.08-.25-1.48z"/><path fill="#0078FF" d="M126.73 100.44l.63 1.91-1.59-4.29-.67-2.04z"/><path fill="#0098FF" d="M157.23 94.06l.3 2.8-1.43 4.1-.3-2.78z"/><path fill="#97FF60" d="M121.22 76.02l.68 2.82.1-4.96-.67-2.88z"/><path fill="#FF7300" d="M153.86 51.63l-1.22.66 1.15 4.52.94-.81z"/><path fill="#FF1A00" d="M128.58 45.8l-1.96 2.6 2.21-2.8 1.73-2.48z"/><path fill="#C4FF33" d="M155.53 68.04l.85 1.74.43 5.2-.9-1.84z"/><path fill="#B60000" d="M149 39.14l-2.86.26 1.82 2.25 2.4-.33z"/><path fill="#0000FA" d="M152.44 109.87l.2 2.1-2.4 2.1-.25-2.05z"/><path fill="#00B" d="M147.61 115.44l.04 1.5-2.7.58-.12-1.47z"/><path fill="#FF3F00" d="M152.83 47.66l-1.57.52 1.38 4.11 1.22-.66z"/><path fill="#B20000" d="M135.3 39.43l-2.49 1.76 2.47-1.13 2.13-1.66z"/><path fill="#0000D6" d="M136.6 114.88l.12.98-2.54-2.2-.22-1.06z"/><path fill="#0000FA" d="M133.96 112.6l.22 1.07-2.37-2.79-.3-1.18z"/><path fill="#83FF73" d="M156.81 74.98l1.21 1.97v5.14l-1.21-2.03z"/><path fill="#D60000" d="M150.36 41.33l-2.4.32 1.73 2.95 1.96-.41z"/><path fill="#960000" d="M142.4 37.26l-2.75.93 2.3.64 2.32-.9z"/><path fill="#FF1300" d="M151.65 44.19l-1.96.4 1.57 3.6 1.57-.53z"/><path fill="#0000BF" d="M139.35 116.48l.02.93-2.65-1.55-.12-.99z"/><path fill="#FFD000" d="M121.54 63.32l.37 2.86 1.06-4.49-.37-2.88z"/><path fill="#FFAB00" d="M153.8 56.8l-.1 1.24 1.09 4.92-.11-1.35z"/><path fill="#0014FF" d="M131.5 109.7l.3 1.18-2.13-3.31-.39-1.3z"/><path fill="#00BCFF" d="M125.1 96.02l.67 2.04-1.2-4.56-.7-2.18z"/><path fill="#0054FF" d="M156.1 100.96l.32 2.57-1.81 3.5-.34-2.53z"/><path fill="#40FFB7" d="M158.01 82.09l.71 2.44-.5 4.94-.7-2.47z"/><path fill="#56FFA0" d="M122.27 83.86l.78 2.6-.36-4.92-.79-2.7z"/><path fill="#0000B6" d="M142.16 117.37l-.09.9-2.7-.86-.02-.93z"/><path fill="#FF4E00" d="M124.77 51.84l-.66 2.9 1.93-3.5.58-2.85z"/><path fill="#0048FF" d="M129.28 106.26l.4 1.3-1.86-3.76-.46-1.45z"/><path fill="#960000" d="M144.27 37.93l-2.31.9 2.3 1.47 1.88-.9z"/><path fill="#0000DA" d="M150.24 114.07l-.04 1.54-2.55 1.32-.04-1.5z"/><path fill="#FFEA00" d="M154.79 62.96l.73 1.66.86 5.16-.85-1.74z"/><path fill="#FF6C00" d="M152.64 52.29l-.36 1.12 1.42 4.63.1-1.23z"/><path fill="#D7FF1F" d="M121.32 71l.69 2.88.58-4.75-.68-2.95z"/><path fill="#D10000" d="M130.56 43.12l-1.73 2.49 2.51-2.04 1.47-2.38z"/><path fill="#00E4F8" d="M158.21 89.47l.3 2.83-.98 4.57-.3-2.81z"/><path fill="#960000" d="M137.4 38.4l-2.12 1.67 2.61-.28 1.76-1.6z"/><path fill="#0020FF" d="M154.6 107.02l.16 2.16-2.12 2.79-.2-2.1z"/><path fill="#A80000" d="M146.14 39.4l-1.87.9 2.25 2.27 1.45-.92z"/><path fill="#19FFDE" d="M123.86 91.32l.71 2.19-.78-4.73-.74-2.32z"/><path fill="#C4FF33" d="M156.38 69.78l1.17 1.93.47 5.24-1.21-1.97z"/><path fill="#FF3400" d="M151.26 48.18l-.68 1.04 1.7 4.2.36-1.13z"/><path fill="#0080FF" d="M127.36 102.35l.46 1.45-1.53-4.12-.52-1.62z"/><path fill="#C80000" d="M147.96 41.65l-1.45.92 2.13 3 1.05-.97z"/><path fill="#F10800" d="M149.69 44.6l-1.05.97 1.94 3.65.68-1.04z"/><path fill="#FF8D00" d="M122.6 58.8l.37 2.9 1.51-4.05-.37-2.9z"/><path fill="#97FF60" d="M121.9 78.84l.8 2.7.1-4.85-.8-2.8z"/><path fill="#0000ED" d="M136.72 115.86l-.12.4-2.42-2.1v-.5z"/><path fill="#009CFF" d="M157.53 96.86l.3 2.63-1.41 4.04-.32-2.57z"/><path fill="#83FF73" d="M158.02 76.95l.72 2.42-.02 5.17-.7-2.45z"/><path fill="#00F" d="M134.18 113.67v.5l-2.26-2.67-.11-.62z"/><path fill="#FFA300" d="M153.7 58.04l.55 1.59 1.27 4.99-.73-1.66z"/><path fill="#0000CD" d="M147.65 116.93l-.29.92-2.6.57.19-.9z"/><path fill="#0000D6" d="M139.37 117.4l-.24.33-2.53-1.48.12-.39z"/><path fill="#890000" d="M139.65 38.2l-1.76 1.59 2.7.58 1.37-1.54z"/><path fill="#00F" d="M152.64 111.97l-.1 1.6-2.34 2.04.04-1.54z"/><path fill="#0024FF" d="M131.8 110.88l.12.62-2.04-3.16-.2-.77z"/><path fill="#FF1600" d="M126.62 48.4l-.58 2.84 2.3-2.84.49-2.8z"/><path fill="#A80000" d="M132.81 41.19l-1.47 2.38 2.75-1.22 1.19-2.29z"/><path fill="#00C4FF" d="M125.77 98.06l.53 1.62-1.16-4.39-.57-1.79z"/><path fill="#FFD300" d="M121.91 66.18l.68 2.95 1.05-4.43-.67-3.01z"/><path fill="#40FFB7" d="M158.72 84.53l.3 2.85-.5 4.92-.3-2.83z"/><path fill="#FFE600" d="M155.52 64.62l1.08 1.9.95 5.19-1.17-1.93z"/><path fill="#0054FF" d="M129.67 107.57l.21.77-1.77-3.59-.3-.95z"/><path fill="#56FFA0" d="M123.05 86.46l.74 2.32-.35-4.77-.75-2.47z"/><path fill="#005CFF" d="M156.42 103.53l.12 2.24-1.78 3.4-.16-2.15z"/><path fill="#FF6400" d="M152.28 53.42l.32 1.53 1.65 4.68-.56-1.59z"/><path fill="#890000" d="M141.96 38.83l-1.38 1.54 2.7 1.43.99-1.5z"/><path fill="#0000ED" d="M150.2 115.6l-.38.98-2.46 1.27.29-.92z"/><path fill="#0FF8E7" d="M168.03 94.45l6.34-1.48-.79-1.27-6.36 1.46z"/><path fill="#FF2D00" d="M150.58 49.22l.05 1.5 1.97 4.23-.32-1.53z"/><path fill="#1CFFDB" d="M167.22 93.16l6.36-1.45-.68-1.45-6.37 1.43z"/><path fill="#FF4E00" d="M124.1 54.74l.38 2.9 1.93-3.47-.37-2.93z"/><path fill="#C4FF33" d="M157.55 71.7l.7 2.42.49 5.25-.72-2.42z"/><path fill="#9B0000" d="M144.27 40.3l-1 1.5 2.62 2.25.63-1.48z"/><path fill="#D4FF23" d="M122 73.88l.8 2.81.58-4.65-.79-2.91z"/><path fill="#008CFF" d="M127.82 103.8l.3.95-1.46-3.93-.37-1.14z"/><path fill="#8D0000" d="M135.28 40.07l-1.19 2.28 2.91-.38.9-2.18z"/><path fill="#0028FF" d="M154.76 109.18l-.16 1.69-2.06 2.7.1-1.6z"/><path fill="#02E8F4" d="M158.52 92.3l.29 2.68-.98 4.5-.3-2.62z"/><path fill="#1CFFDB" d="M124.57 93.5l.57 1.8-.75-4.55-.6-1.97z"/><path fill="#00F" d="M136.6 116.25l-.26-.2-2.3-1.98.14.09z"/><path fill="#0010FF" d="M134.18 114.16l-.14-.09-2.13-2.5v-.07z"/><path fill="#30FFC7" d="M166.53 91.7l6.37-1.44-.54-1.57-6.38 1.4z"/><path fill="#E80000" d="M148.64 45.57l-.27 1.48 2.26 3.67-.05-1.5z"/><path fill="#B00" d="M146.51 42.57l-.62 1.48 2.48 3 .27-1.48z"/><path fill="#D10000" d="M128.83 45.6l-.48 2.8 2.62-2.09.37-2.74z"/><path fill="#0000F1" d="M139.13 117.73l-.4-.28-2.4-1.4.27.2z"/><path fill="#FF9F00" d="M154.25 59.63l.94 1.88 1.4 5-1.07-1.89z"/><path fill="#0038FF" d="M131.92 111.5l-.01.06-1.93-2.99-.1-.23z"/><path fill="#43FFB4" d="M165.98 90.1l6.38-1.41-.39-1.68-6.4 1.38z"/><path fill="#00D8FF" d="M163.43 98.04l6.5-1.66-.99-.85-6.53 1.63z"/><path fill="#00E4F8" d="M162.4 97.15l6.55-1.62-.91-1.08-6.58 1.58z"/><path fill="#00D0FF" d="M164.5 98.65l6.47-1.68-1.04-.6-6.5 1.67z"/><path fill="#94FF63" d="M122.7 81.54l.74 2.47.1-4.7-.74-2.62z"/><path fill="#0CF4EB" d="M161.46 96.03l6.58-1.59-.81-1.28-6.62 1.53z"/><path fill="#83FF73" d="M158.75 79.37l.6 2.87-.03 5.15-.6-2.85z"/><path fill="#FF9100" d="M122.97 61.69l.67 3 1.5-3.98-.66-3.06z"/><path fill="#0008FF" d="M152.54 113.57l-.48 1.05-2.24 1.96.38-.97z"/><path fill="#0CF" d="M165.6 98.99l6.43-1.7-1.06-.32-6.46 1.68z"/><path fill="#00A0FF" d="M157.83 99.49l.1 2.32-1.39 3.96-.12-2.24z"/><path fill="#0CF" d="M126.3 99.68l.36 1.14-1.1-4.18-.42-1.35z"/><path fill="#0064FF" d="M129.88 108.34l.1.23-1.67-3.4-.2-.42z"/><path fill="#1CFFDB" d="M160.61 94.69l6.61-1.53-.69-1.47-6.64 1.48z"/><path fill="#5AFF9D" d="M165.57 88.4l6.4-1.39-.23-1.73-6.4 1.36z"/><path fill="maroon" d="M137.9 39.79l-.9 2.18 3 .5.58-2.1z"/><path fill="#00D0FF" d="M166.7 99.04l6.39-1.7-1.06-.05-6.42 1.7z"/><path fill="#2CFFCA" d="M159.89 93.17l6.64-1.48-.55-1.6-6.68 1.41z"/><path fill="#FF6000" d="M152.6 54.95l.77 1.88 1.82 4.68-.94-1.88z"/><path fill="#FFE600" d="M156.6 66.52l.66 2.4.98 5.2-.7-2.41z"/><path fill="#56FFA0" d="M123.78 88.78l.6 1.97-.33-4.58-.61-2.16z"/><path fill="#6DFF8A" d="M165.33 86.64l6.41-1.36-.06-1.73-6.42 1.32z"/><path fill="#00D4FF" d="M167.77 98.79l6.34-1.7-1.03.24-6.38 1.7z"/><path fill="#FF1A00" d="M126.04 51.24l.37 2.93 2.3-2.82-.36-2.94z"/><path fill="#000CFF" d="M136.34 116.05l-.26-.75-2.15-1.86.12.63z"/><path fill="#00F" d="M149.82 116.58l-.72.36-2.34 1.22.6-.3z"/><path fill="#00D0FF" d="M157.13 99.86l6.3-1.82-1.02-.89-6.36 1.78z"/><path fill="#00DCFE" d="M156.04 98.93l6.37-1.78-.95-1.12-6.42 1.7z"/><path fill="#0028FF" d="M134.05 114.07l-.12-.63-2-2.35-.02.47z"/><path fill="#A40000" d="M131.34 43.57l-.37 2.74 2.87-1.27.25-2.7z"/><path fill="#00C8FF" d="M158.28 100.52l6.23-1.86-1.08-.62-6.3 1.82z"/><path fill="#0064FF" d="M156.54 105.77l-.22 1.8-1.72 3.3.16-1.7z"/><path fill="gold" d="M122.59 69.13l.78 2.91 1.04-4.33-.77-3.01z"/><path fill="#0098FF" d="M128.11 104.75l.2.43-1.37-3.72-.28-.64z"/><path fill="#43FFB4" d="M159.3 91.5l6.68-1.4-.4-1.7-6.7 1.33z"/><path fill="#06ECF1" d="M155.04 97.73l6.42-1.7-.85-1.34-6.48 1.62z"/><path fill="#00F" d="M138.73 117.45l-.4-.85-2.25-1.3.26.75z"/><path fill="#840000" d="M140.58 40.37l-.58 2.1 3 1.36.27-2.03z"/><path fill="#40FFB7" d="M159.03 87.38l.28 2.75-.5 4.85-.3-2.68z"/><path fill="#00C4FF" d="M159.44 100.88l6.17-1.89-1.1-.33-6.23 1.86z"/><path fill="#004CFF" d="M131.9 111.56l.03-.47-1.8-2.8-.15.28z"/><path fill="#00E0FB" d="M168.78 98.26l6.31-1.68-.97.52-6.35 1.7z"/><path fill="#16FFE1" d="M154.13 96.3l6.48-1.61-.72-1.52-6.53 1.52z"/><path fill="#FF2900" d="M150.63 50.72l.54 1.9 2.2 4.2-.77-1.87z"/><path fill="#83FF73" d="M165.26 84.87l6.42-1.33.1-1.7-6.42 1.3z"/><path fill="#1FFFD7" d="M125.14 95.3l.42 1.34-.72-4.33-.45-1.56z"/><path fill="#00F" d="M141.17 118.22l-.57-.9-2.28-.72.41.85z"/><path fill="#00C4FF" d="M160.6 100.93l6.1-1.9-1.1-.04-6.16 1.89z"/><path fill="#56FFA0" d="M158.88 89.73l6.7-1.34-.25-1.75-6.71 1.27z"/><path fill="#29FFCE" d="M153.36 94.7l6.53-1.53-.59-1.67-6.57 1.42z"/><path fill="#920000" d="M143.27 41.8l-.27 2.03 2.91 2.19-.02-1.97z"/><path fill="#0038FF" d="M154.6 110.87l-.56 1.15-1.98 2.6.48-1.05z"/><path fill="#0074FF" d="M129.98 108.57l.14-.29-1.56-3.18-.25.08z"/><path fill="#00C4FF" d="M151.38 101.84l5.75-1.98-1.08-.94-5.85 1.91z"/><path fill="#00D0FF" d="M150.2 100.84l5.84-1.91-1-1.2-5.93 1.82z"/><path fill="#D1FF26" d="M122.8 76.7l.75 2.61.56-4.5-.74-2.77z"/><path fill="#DF0000" d="M148.37 47.05l.3 1.92 2.5 3.64-.54-1.9z"/><path fill="#C4FF33" d="M158.24 74.12l.31 2.9.5 5.23-.32-2.88z"/><path fill="#00BCFF" d="M152.6 102.56l5.67-2.04-1.14-.66-5.75 1.99z"/><path fill="#B20000" d="M145.9 44.05l.01 1.97 2.75 2.95-.3-1.92z"/><path fill="#0CF" d="M161.73 100.67l6.04-1.88-1.06.25-6.1 1.89z"/><path fill="#00E0FB" d="M149.11 99.55l5.93-1.82-.9-1.42-6 1.7z"/><path fill="#FF5200" d="M124.48 57.65l.66 3.06 1.91-3.43-.64-3.11z"/><path fill="#FF9F00" d="M155.2 61.5l.6 2.42 1.46 5-.66-2.4z"/><path fill="#00D4FF" d="M126.66 100.82l.28.64-1.04-3.95-.34-.87z"/><path fill="#0028FF" d="M136.08 115.3l-.04-1.25-2-1.72-.11 1.11z"/><path fill="#00B8FF" d="M153.86 102.94l5.58-2.06-1.17-.36-5.66 2.03z"/><path fill="#9AFF5D" d="M165.36 83.15l6.42-1.3.28-1.63-6.43 1.28z"/><path fill="#02E8F4" d="M158.81 94.98l.07 2.42-.95 4.4-.1-2.31z"/><path fill="#0040FF" d="M133.93 113.44l.1-1.11-1.85-2.2-.25.96z"/><path fill="#6DFF8A" d="M158.62 87.9l6.71-1.26-.07-1.77-6.73 1.2z"/><path fill="#40FFB7" d="M152.73 92.92l6.57-1.42-.42-1.77-6.6 1.32z"/><path fill="#0FF8E7" d="M148.14 98.01l6-1.7-.78-1.62-6.06 1.58z"/><path fill="#0018FF" d="M138.32 116.6l-.2-1.34-2.08-1.2.04 1.24z"/><path fill="#890000" d="M134.1 42.34l-.26 2.7 3.03-.43.14-2.64z"/><path fill="#0018FF" d="M152.06 114.62l-.82.45-2.14 1.87.72-.36z"/><path fill="#0060FF" d="M131.93 111.09l.25-.95-1.68-2.6-.38.75z"/><path fill="#00B8FF" d="M155.1 103l5.5-2.07-1.16-.05-5.58 2.06z"/><path fill="#94FF63" d="M123.44 84.01l.61 2.16.1-4.52-.6-2.34z"/><path fill="#00D8FF" d="M162.79 100.1l5.99-1.84-1 .53-6.05 1.88z"/><path fill="#00B4FF" d="M146.42 103.96l4.96-2.11-1.18-1.02-5.06 2.02z"/><path fill="#00C0FF" d="M145.14 102.86l5.06-2.03-1.09-1.29-5.16 1.91z"/><path fill="#00A8FF" d="M128.31 105.18l.25-.08-1.29-3.48-.33-.16z"/><path fill="#D10000" d="M128.35 48.4l.37 2.95 2.61-2.08-.36-2.96z"/><path fill="#00A8FF" d="M147.76 104.73l4.85-2.17-1.23-.71-4.96 2.1z"/><path fill="#23FFD4" d="M147.3 96.27l6.06-1.58-.63-1.77-6.12 1.44z"/><path fill="#0010FF" d="M140.6 117.33l-.36-1.4-2.12-.67.2 1.34z"/><path fill="#00D4FF" d="M143.95 101.45l5.16-1.9-.97-1.54-5.25 1.77z"/><path fill="#56FFA0" d="M152.27 91.05l6.6-1.32-.25-1.82-6.63 1.2z"/><path fill="#0008FF" d="M149.1 116.94l-.96-.24-2.2 1.15.82.3z"/><path fill="#83FF73" d="M158.53 86.07l6.73-1.2.1-1.73-6.73 1.13z"/><path fill="#B1FF46" d="M165.63 81.5l6.43-1.28.43-1.5-6.43 1.25z"/><path fill="#00A8FF" d="M149.13 105.16l4.73-2.22-1.25-.38-4.85 2.17zm8.8-3.35l-.26 1.92-1.35 3.83.22-1.8z"/><path fill="#00C0FF" d="M156.32 102.72l5.4-2.05-1.12.26-5.5 2.07z"/><path fill="#0040FF" d="M136.04 114.05l.4-1.64-1.84-1.59-.56 1.5z"/><path fill="#08F" d="M130.12 108.28l.38-.75-1.45-2.95-.5.52z"/><path fill="#5AFF9D" d="M124.38 90.75l.46 1.56-.32-4.36-.47-1.78z"/><path fill="#0058FF" d="M134.04 112.33l.56-1.51-1.71-2.02-.71 1.34z"/><path fill="#FF9400" d="M123.64 64.7l.77 3.01 1.47-3.9-.74-3.1z"/><path fill="#06ECF1" d="M142.89 99.78l5.25-1.77-.84-1.74-5.34 1.6z"/><path fill="#00A0FF" d="M142.44 106.15l3.98-2.19-1.28-1.1-4.1 2.08z"/><path fill="#02E8F4" d="M163.76 99.25l5.94-1.8-.92.8-5.99 1.85z"/><path fill="#00B0FF" d="M141.04 104.94l4.1-2.08-1.18-1.41-4.23 1.95z"/><path fill="#83FF73" d="M159.06 82.24l.59 2.82-.03 5.07-.6-2.75z"/><path fill="#0034FF" d="M138.12 115.26l.25-1.73-1.93-1.12-.4 1.64z"/><path fill="#0008FF" d="M145.93 117.85l-.87-.88-2.19.48.72.9z"/><path fill="#39FFBE" d="M146.61 94.36l6.12-1.44-.46-1.87-6.16 1.29z"/><path fill="#FF6000" d="M153.37 56.83l.53 2.43 1.9 4.66-.6-2.41z"/><path fill="#0094FF" d="M143.9 107l3.86-2.27-1.34-.77-3.98 2.2z"/><path fill="#0074FF" d="M132.18 110.14l.7-1.34-1.54-2.4-.84 1.13z"/><path fill="#00A8FF" d="M150.48 105.22l4.63-2.22-1.25-.06-4.73 2.22z"/><path fill="#00C4FF" d="M139.73 103.4l4.22-1.95-1.06-1.67-4.33 1.79z"/><path fill="#26FFD1" d="M125.56 96.64l.34.87-.68-4.08-.38-1.12z"/><path fill="#0014FF" d="M142.87 117.46l-.52-1.4-2.11-.12.36 1.39z"/><path fill="#6DFF8A" d="M151.99 89.1l6.63-1.2-.09-1.83-6.64 1.1z"/><path fill="maroon" d="M137 41.97l-.13 2.64 3.12.45.01-2.59z"/><path fill="#005CFF" d="M136.44 112.4l1.1-1.93-1.7-1.45-1.24 1.8z"/><path fill="#008CFF" d="M139.49 108.35l2.95-2.2-1.4-1.2-3.1 2.07z"/><path fill="#0070FF" d="M134.6 110.82l1.24-1.8-1.57-1.86-1.38 1.64z"/><path fill="#1CFFDB" d="M141.96 97.88l5.33-1.61-.68-1.91-5.4 1.44z"/><path fill="#009CFF" d="M137.95 107.02l3.09-2.08-1.31-1.54-3.22 1.93z"/><path fill="#0094FF" d="M145.4 107.47l3.73-2.31-1.37-.43-3.85 2.27z"/><path fill="#002CFF" d="M140.24 115.94l.08-1.8-1.95-.61-.25 1.73z"/><path fill="#FFE600" d="M157.26 68.93l.3 2.9 1 5.19-.31-2.9z"/><path fill="#0CF" d="M157.46 102.12l5.33-2.02-1.06.57-5.41 2.05z"/><path fill="#0070FF" d="M156.32 107.56l-.62 1.28-1.66 3.18.56-1.15z"/><path fill="#9AFF5D" d="M158.63 84.28l6.73-1.14.27-1.65-6.73 1.07z"/><path fill="#C4FF33" d="M166.06 79.97l6.43-1.26.59-1.34-6.44 1.23z"/><path fill="#0074FF" d="M137.53 110.47l1.96-2.12-1.54-1.33-2.1 2z"/><path fill="#0080FF" d="M141.1 109.29l2.8-2.29-1.46-.85-2.95 2.2z"/><path fill="#004CFF" d="M138.37 113.53l.92-2.03-1.76-1.03-1.09 1.94z"/><path fill="#00E0FB" d="M126.94 101.46l.33.16-.97-3.7-.4-.4z"/><path fill="#0084FF" d="M135.84 109.02l2.1-2-1.43-1.69-2.24 1.83z"/><path fill="#00E0FB" d="M138.56 101.57l4.33-1.8-.93-1.9-4.42 1.62z"/><path fill="#00B4FF" d="M136.51 105.33l3.22-1.93-1.18-1.83-3.33 1.75z"/><path fill="#008CFF" d="M132.89 108.8l1.38-1.64-1.42-2.2-1.51 1.44z"/><path fill="#00B4FF" d="M128.56 105.1l.49-.52-1.2-3.24-.58.28z"/><path fill="#0068FF" d="M139.3 111.5l1.8-2.21-1.61-.94-1.96 2.12z"/><path fill="#009CFF" d="M130.5 107.53l.84-1.13-1.34-2.73-.95.9z"/><path fill="#13FCE4" d="M164.62 98.13l5.9-1.74-.82 1.06-5.94 1.8z"/><path fill="#00B0FF" d="M151.8 104.92l4.52-2.2-1.21.28-4.63 2.22z"/><path fill="#FFDB00" d="M123.38 72.04l.73 2.77 1-4.2-.7-2.9z"/><path fill="#53FFA4" d="M146.1 92.34l6.17-1.3-.28-1.93-6.2 1.14z"/><path fill="#00A0FF" d="M134.27 107.16l2.24-1.83-1.29-2.01-2.37 1.64z"/><path fill="#007CFF" d="M142.73 109.8l2.67-2.33-1.5-.47-2.8 2.29z"/><path fill="#0094FF" d="M146.88 107.54l3.6-2.32-1.35-.06-3.73 2.3z"/><path fill="#04F" d="M154.04 112.02l-.92.58-1.88 2.47.82-.45z"/><path fill="#FF1E00" d="M126.41 54.17l.64 3.11 2.28-2.78-.61-3.15z"/><path fill="#0048FF" d="M140.32 114.15l.77-2.09-1.8-.56-.92 2.03z"/><path fill="#36FFC1" d="M141.21 95.8l5.4-1.44-.5-2.02-5.46 1.26z"/><path fill="#0064FF" d="M141.09 112.06l1.64-2.26-1.63-.51-1.8 2.2z"/><path fill="#00D0FF" d="M135.22 103.32l3.33-1.75-1-2.08-3.45 1.55z"/><path fill="#FF2900" d="M151.17 52.61l.45 2.45 2.28 4.2-.53-2.43z"/><path fill="#87FF70" d="M151.89 87.16l6.64-1.09.1-1.8-6.65.98z"/><path fill="#0030FF" d="M142.35 116.05l-.09-1.8-1.94-.1-.08 1.79z"/><path fill="#13FCE4" d="M137.54 99.49l4.43-1.61-.75-2.08-4.5 1.4z"/><path fill="#43FFB4" d="M159.36 90.13l.07 2.53-.54 4.74-.08-2.42z"/><path fill="#00ACFF" d="M131.34 106.4l1.51-1.44-1.22-2.5-1.63 1.2z"/><path fill="#002CFF" d="M151.24 115.07l-1.08-.13-2.02 1.76.96.24z"/><path fill="#A80000" d="M130.97 46.31l.36 2.96L134.2 48l-.36-2.96z"/><path fill="#00DCFE" d="M158.5 101.2l5.26-1.95-.97.86-5.33 2z"/><path fill="maroon" d="M140 42.47v2.6l3.12 1.3-.12-2.54z"/><path fill="#0020FF" d="M145.07 116.97l-.68-1.37-2.04.45.52 1.4z"/><path fill="#D7FF1F" d="M166.64 78.6l6.44-1.23.72-1.15-6.43 1.22z"/><path fill="#00C0FF" d="M132.85 104.96l2.37-1.64-1.11-2.28-2.48 1.42z"/><path fill="#0020FF" d="M148.14 116.7l-1-.8-2.07 1.07.86.88z"/><path fill="#B1FF46" d="M158.9 82.56l6.73-1.07.43-1.52-6.73 1z"/><path fill="#CEFF29" d="M123.55 79.31l.6 2.34.55-4.32-.6-2.52z"/><path fill="#007CFF" d="M144.36 109.88l2.52-2.34-1.48-.07-2.67 2.33z"/><path fill="#00BCFF" d="M153.03 104.26l4.43-2.15-1.14.61-4.52 2.2z"/><path fill="#00C4FF" d="M129.05 104.58l.95-.91-1.1-2.99-1.05.66z"/><path fill="#009CFF" d="M148.32 107.21l3.48-2.29-1.32.3-3.6 2.32z"/><path fill="#6DFF8A" d="M145.8 90.25l6.19-1.14-.1-1.95-6.21.99z"/><path fill="#004CFF" d="M142.26 114.25l.6-2.1-1.77-.09-.77 2.08z"/><path fill="#23FFD4" d="M165.34 96.76l5.86-1.66-.68 1.3-5.9 1.73z"/><path fill="#0064FF" d="M142.87 112.15l1.49-2.27-1.63-.08-1.64 2.26z"/><path fill="#09F0EE" d="M134.1 101.04l3.44-1.55-.82-2.28-3.53 1.33z"/><path fill="#DF0000" d="M148.66 48.97l.35 2.48 2.6 3.6-.44-2.44z"/><path fill="#02E8F4" d="M127.27 101.62l.58-.28-.9-3.43-.65.01z"/><path fill="#94FF63" d="M124.05 86.17l.52 1.77.1-4.3-.5-1.99z"/><path fill="#920000" d="M143 43.83l.11 2.55 3.04 2.15-.24-2.51z"/><path fill="#50FFA7" d="M140.66 93.6l5.45-1.26-.32-2.1-5.49 1.08z"/><path fill="#30FFC7" d="M136.72 97.21l4.5-1.4-.56-2.21-4.56 1.2z"/><path fill="#2CFFCA" d="M125.9 97.51l.4.42-.64-3.83-.44-.67z"/><path fill="#00D4FF" d="M130 103.67l1.63-1.21-1-2.74-1.73.97z"/><path fill="#5AFF9D" d="M124.84 92.31l.38 1.12-.3-4.13-.4-1.35z"/><path fill="#B20000" d="M145.91 46.02l.24 2.5 2.86 2.93-.35-2.48z"/><path fill="#00E4F8" d="M131.63 102.46l2.48-1.42-.92-2.5-2.57 1.18z"/><path fill="#9DFF5A" d="M151.98 85.25l6.65-.97.26-1.72-6.64.87z"/><path fill="#E7FF0F" d="M167.37 77.44l6.43-1.22.84-.92-6.43 1.2z"/><path fill="#09F0EE" d="M159.42 99.98l5.2-1.85-.86 1.12-5.26 1.94z"/><path fill="#06ECF1" d="M158.88 97.4l-.28 2.05-.93 4.27.26-1.91z"/><path fill="#003CFF" d="M144.38 115.6l-.24-1.77-1.88.42.09 1.8z"/><path fill="#08F" d="M145.93 109.53l2.39-2.32-1.44.33-2.52 2.34z"/><path fill="#C4FF33" d="M158.55 77.02l.3 2.88.48 5.16-.29-2.82z"/><path fill="#FF9F00" d="M155.8 63.92l.31 2.93 1.46 4.99-.31-2.92z"/><path fill="#C7FF30" d="M159.33 80.97l6.73-1 .58-1.37-6.71.95z"/><path fill="#FF5900" d="M125.14 60.71l.74 3.1 1.88-3.34-.7-3.19z"/><path fill="#00D0FF" d="M154.16 103.26l4.34-2.06-1.04.92-4.43 2.14z"/><path fill="#00ACFF" d="M149.67 106.5l3.36-2.24-1.23.66-3.48 2.3z"/><path fill="#0070FF" d="M144.59 111.77l1.34-2.24-1.57.35-1.5 2.27z"/><path fill="#0054FF" d="M144.14 113.83l.45-2.06-1.72.39-.6 2.09z"/><path fill="#87FF70" d="M145.67 88.15l6.22-.99.09-1.9-6.22.83z"/><path fill="#26FFD1" d="M133.19 98.54l3.52-1.33-.62-2.42-3.59 1.1z"/><path fill="#39FFBE" d="M165.9 95.18l5.84-1.56-.54 1.48-5.86 1.66z"/><path fill="#0038FF" d="M147.13 115.9l-.83-1.3-1.92 1 .69 1.37z"/><path fill="#0CF4EB" d="M127.85 101.34l1.05-.66-.83-3.17-1.12.4z"/><path fill="#00B0FF" d="M157.67 103.73l-.67 1.43-1.3 3.68.62-1.28z"/><path fill="#6AFF8D" d="M140.3 91.32l5.5-1.07-.13-2.1-5.5.88z"/><path fill="#49FFAD" d="M136.1 94.8l4.55-1.2-.35-2.28-4.6.98z"/><path fill="#8D0000" d="M133.84 45.04l.35 2.96 3.03-.41-.35-2.98z"/><path fill="#0040FF" d="M150.16 114.94l-1.14-.7-1.89 1.66 1.01.8z"/><path fill="#1FFFD7" d="M130.62 99.72l2.57-1.18-.68-2.65-2.64.93z"/><path fill="#16FFE1" d="M128.9 100.68l1.72-.96-.76-2.9-1.8.7z"/><path fill="#B4FF43" d="M152.25 83.43l6.64-.87.44-1.59-6.62.77z"/><path fill="#007CFF" d="M155.7 108.84l-1 .73-1.58 3.03.92-.58z"/><path fill="#1CFFDB" d="M160.19 98.51l5.15-1.75-.72 1.37-5.2 1.86z"/><path fill="#0054FF" d="M153.12 112.6h-1.18l-1.78 2.34 1.08.13z"/><path fill="#D60000" d="M128.72 51.34l.61 3.16 2.6-2.04-.6-3.2z"/><path fill="#0098FF" d="M147.41 108.74l2.26-2.25-1.35.72-2.39 2.32z"/><path fill="#D7FF1F" d="M159.93 79.55l6.71-.95.73-1.16-6.7.9z"/><path fill="#FF9C00" d="M124.4 67.71l.71 2.9 1.44-3.77-.67-3.02z"/><path fill="#30FFC7" d="M126.3 97.92l.65-.01-.59-3.56-.7-.25z"/><path fill="#0050FF" d="M146.3 114.6l-.39-1.7-1.77.93.24 1.77z"/><path fill="#00E4F8" d="M155.16 101.94l4.26-1.96-.92 1.22-4.34 2.06z"/><path fill="#00C0FF" d="M150.9 105.4l3.26-2.14-1.13 1-3.36 2.24z"/><path fill="#A0FF56" d="M145.76 86.09l6.22-.84.27-1.82-6.2.7z"/><path fill="#50FFA7" d="M166.3 93.44l5.82-1.47-.38 1.65-5.84 1.56z"/><path fill="#0080FF" d="M146.21 110.91l1.2-2.17-1.48.79-1.34 2.24z"/><path fill="#46FFB1" d="M132.5 95.89l3.6-1.1-.4-2.5-3.64.86z"/><path fill="#83FF73" d="M159.49 85.06l.2 2.64-.04 4.96-.2-2.53z"/><path fill="#0068FF" d="M145.91 112.9l.3-1.99-1.62.86-.45 2.06z"/><path fill="#5DFF9A" d="M125.22 93.43l.44.67-.27-3.86-.47-.94z"/><path fill="#FF6000" d="M153.9 59.26l.32 2.94 1.9 4.65-.32-2.93z"/><path fill="#FFE200" d="M124.1 74.8l.6 2.53.97-4.03-.55-2.69z"/><path fill="#87FF70" d="M140.16 89.03l5.51-.88.09-2.06-5.51.7z"/><path fill="#6AFF8D" d="M135.7 92.3l4.6-.98-.14-2.3-4.62.77z"/><path fill="#36FFC1" d="M126.95 97.9l1.12-.38-.54-3.28-1.17.11z"/><path fill="#CAFF2C" d="M152.7 81.74l6.63-.77.6-1.42-6.6.69z"/><path fill="#E7FF0F" d="M160.67 78.34l6.7-.9.84-.94-6.67.87z"/><path fill="#90FF66" d="M124.53 87.94l.5 1.36.12-4.05-.5-1.6z"/><path fill="#CAFF2C" d="M124.16 81.65l.47 2 .52-4.12-.45-2.2z"/><path fill="#40FFB7" d="M129.87 96.82l2.63-.93-.44-2.74-2.68.66z"/><path fill="#0054FF" d="M149.02 114.24l-.96-1.18-1.76 1.54.83 1.3z"/><path fill="#33FFC4" d="M160.78 96.81l5.12-1.63-.56 1.58-5.15 1.75z"/><path fill="#3CFFBA" d="M128.07 97.52l1.8-.7-.5-3-1.84.42z"/><path fill="#00ACFF" d="M148.77 107.55l2.13-2.15-1.23 1.1-2.26 2.24z"/><path fill="maroon" d="M136.87 44.62l.35 2.97 3.12.46-.35-2.98z"/><path fill="#FFEA00" d="M157.57 71.84l.3 2.95.98 5.1-.3-2.87z"/><path fill="#16FFE1" d="M155.99 100.34l4.2-1.83-.77 1.47-4.26 1.96z"/><path fill="#00D8FF" d="M151.99 103.96l3.17-2.01-1 1.31-3.26 2.14z"/><path fill="#66FF90" d="M166.5 91.57l5.82-1.36-.2 1.76-5.83 1.47z"/><path fill="#B7FF40" d="M146.05 84.12l6.2-.69.46-1.69-6.18.56z"/><path fill="#43FFB4" d="M159.38 92.66l-.3 2.2-.48 4.6.29-2.06z"/><path fill="#FF2500" d="M127.05 57.28l.7 3.19 2.25-2.71-.67-3.26z"/><path fill="#66FF90" d="M132.06 93.15l3.64-.85-.16-2.51-3.66.6z"/><path fill="#0098FF" d="M147.69 109.6l1.08-2.05-1.36 1.2-1.2 2.16z"/><path fill="#0068FF" d="M151.94 112.6l-1.26-.55-1.66 2.2 1.14.69z"/><path fill="#F8F500" d="M161.54 77.37l6.67-.87.94-.68-6.64.84z"/><path fill="#006CFF" d="M148.06 113.06l-.53-1.58-1.62 1.42.4 1.7z"/><path fill="#FF2900" d="M151.62 55.06l.32 2.96 2.28 4.18-.32-2.94z"/><path fill="#60FF97" d="M125.66 94.1l.7.25-.25-3.58-.72-.53z"/><path fill="#DEFF19" d="M153.33 80.24l6.6-.69.74-1.21-6.56.6z"/><path fill="#A4FF53" d="M140.25 86.78l5.5-.7.3-1.96-5.5.52z"/><path fill="#0080FF" d="M147.53 111.48l.16-1.87-1.48 1.3-.3 2z"/><path fill="#87FF70" d="M135.54 89.79l4.62-.76.09-2.25-4.63.54z"/><path fill="#AD0000" d="M131.33 49.27l.6 3.2 2.83-1.25-.57-3.22z"/><path fill="#0CF4EB" d="M158.6 99.45l-.71 1.6-.9 4.1.68-1.42z"/><path fill="#4DFFAA" d="M161.2 94.93l5.1-1.5-.4 1.75-5.12 1.63z"/><path fill="#08F" d="M154.7 109.57l-1.27.17-1.5 2.86h1.2z"/><path fill="maroon" d="M140 45.06l.34 2.98 3.12 1.32-.34-2.98z"/><path fill="#66FF90" d="M129.37 93.81l2.7-.66-.2-2.76-2.7.4z"/><path fill="#00B8FF" d="M157 105.16l-1.07.9-1.23 3.51 1-.73z"/><path fill="#00C8FF" d="M149.95 105.97l2.04-2.01-1.09 1.44-2.14 2.15z"/><path fill="#7DFF7A" d="M166.51 89.62l5.83-1.24-.02 1.83-5.82 1.36z"/><path fill="#60FF97" d="M126.36 94.35l1.17-.11-.23-3.3-1.2-.17z"/><path fill="#FFEA00" d="M162.51 76.66l6.64-.84 1.02-.4-6.6.82z"/><path fill="#DF0000" d="M149.01 51.45l.33 2.97 2.6 3.6-.32-2.96z"/><path fill="#63FF94" d="M127.53 94.24l1.84-.42-.2-3.03-1.87.15z"/><path fill="#90FF66" d="M124.92 89.3l.52.94.1-3.8-.5-1.19z"/><path fill="#2CFFCA" d="M156.63 98.5l4.15-1.69-.6 1.7-4.2 1.83z"/><path fill="#D1FF26" d="M146.53 82.3l6.18-.56.62-1.5-6.14.43z"/><path fill="#FF6000" d="M125.88 63.82l.67 3.02 1.82-3.24-.61-3.13z"/><path fill="#0CF4EB" d="M152.9 102.2l3.09-1.86-.83 1.6-3.17 2.02z"/><path fill="#920000" d="M143.12 46.38l.34 2.98 3.03 2.14-.34-2.97z"/><path fill="#EEFF09" d="M154.11 78.95l6.56-.61.87-.97-6.52.54z"/><path fill="#007CFF" d="M150.68 112.05l-1.09-1.03-1.54 2.04.97 1.18z"/><path fill="#B20000" d="M146.15 48.53l.33 2.98 2.86 2.9-.33-2.96z"/><path fill="#C1FF36" d="M158.84 79.9l.1 2.75.53 5.05-.08-2.64z"/><path fill="#8AFF6D" d="M131.88 90.39l3.66-.6.08-2.47-3.66.36z"/><path fill="#FFE200" d="M163.56 76.24l6.6-.82 1.07-.12-6.57.82z"/><path fill="#BEFF39" d="M140.55 84.64l5.5-.52.48-1.82-5.47.35z"/><path fill="#00B4FF" d="M148.99 107.88l.96-1.91-1.18 1.58-1.08 2.06z"/><path fill="#FFA300" d="M156.11 66.85l.32 3.02 1.44 4.92-.3-2.95z"/><path fill="#C7FF30" d="M124.63 83.65l.39 1.6.5-3.88-.37-1.84z"/><path fill="#A7FF50" d="M135.62 87.32l4.63-.54.3-2.15-4.6.34z"/><path fill="#FFA300" d="M125.11 70.61l.56 2.7 1.38-3.63-.5-2.84z"/><path fill="#63FF94" d="M161.4 92.92l5.1-1.35-.2 1.87-5.1 1.5z"/><path fill="#97FF60" d="M166.34 87.65l5.85-1.13.15 1.86-5.83 1.24z"/><path fill="#FFEA00" d="M124.7 77.33l.45 2.2.92-3.83-.4-2.4z"/><path fill="#0090FF" d="M149.6 111.02l-.66-1.42-1.41 1.88.53 1.58z"/><path fill="#00A0FF" d="M148.94 109.6l.05-1.72-1.3 1.73-.16 1.87z"/><path fill="#FFDE00" d="M164.66 76.12l6.57-.82 1.08.17-6.53.83z"/><path fill="#8DFF6A" d="M125.39 90.24l.72.53.09-3.52-.72-.8z"/><path fill="#E4FF13" d="M147.2 80.67l6.13-.44.78-1.28-6.09.33z"/><path fill="#FEED00" d="M155.03 77.92l6.51-.55.98-.7-6.47.5z"/><path fill="#8AFF6D" d="M129.17 90.8l2.7-.41.09-2.7-2.71.13z"/><path fill="#02E8F4" d="M150.94 104.04l1.95-1.84-.9 1.76-2.04 2z"/><path fill="#0098FF" d="M153.43 109.74l-1.36-.37-1.39 2.68 1.26.55z"/><path fill="#46FFB1" d="M157.07 96.44l4.13-1.5-.42 1.87-4.15 1.68z"/><path fill="#920000" d="M134.2 48l.56 3.22 3-.4-.54-3.23z"/><path fill="#DF0000" d="M129.33 54.5l.67 3.26 2.54-2-.62-3.3z"/><path fill="#FFDE00" d="M165.78 76.3l6.53-.83 1.07.46-6.48.85z"/><path fill="#26FFD1" d="M153.6 100.18l3.03-1.7-.64 1.86-3.1 1.86z"/><path fill="#83FF73" d="M159.7 87.7l-.6 2.35-.02 4.8.6-2.19z"/><path fill="#FFE600" d="M166.9 76.78l6.48-.85 1.03.74-6.44.87z"/><path fill="#8DFF6A" d="M126.11 90.77l1.19.17.08-3.24-1.18-.45z"/><path fill="#8DFF6A" d="M127.3 90.94l1.87-.15.08-2.97-1.87-.12z"/><path fill="#ADFF49" d="M165.98 85.7l5.87-1 .34 1.82-5.85 1.13z"/><path fill="#FEED00" d="M167.97 77.54l6.44-.88.97 1-6.4.9z"/><path fill="#D7FF1F" d="M141.06 82.65l5.47-.35.66-1.63-5.41.2z"/><path fill="#7DFF7A" d="M161.42 90.82l5.1-1.2-.02 1.95-5.09 1.35z"/><path fill="#AAFF4D" d="M131.96 87.68l3.66-.36.32-2.35-3.64.13z"/><path fill="#00C4FF" d="M155.93 106.06l-1.35.36-1.15 3.32 1.27-.17z"/><path fill="#FFE200" d="M156.05 77.16l6.46-.5 1.05-.42-6.4.48z"/><path fill="#C4FF33" d="M135.94 84.97l4.6-.33.52-1.99-4.57.14z"/><path fill="#00D8FF" d="M150.07 105.77l.87-1.73-.99 1.93-.96 1.9z"/><path fill="#46FFB1" d="M159.08 94.86l-.73 1.78-.46 4.41.7-1.6z"/><path fill="#C1FF36" d="M125.02 85.25l.46 1.2.46-3.63-.43-1.45z"/><path fill="#FF6400" d="M154.22 62.2l.35 3.07 1.87 4.6-.33-3.02z"/><path fill="#F8F500" d="M148.02 79.28l6.1-.33.9-1.03-6.02.25z"/><path fill="#00A8FF" d="M152.07 109.37l-1.19-.84-1.29 2.5 1.1 1.02z"/><path fill="#0FF8E7" d="M157.89 101.05l-1.11 1.1-.85 3.9 1.07-.9z"/><path fill="#C4FF33" d="M165.44 83.84l5.91-.9.5 1.76-5.87 1z"/><path fill="#63FF94" d="M157.3 94.24l4.1-1.32-.2 2.01-4.13 1.51z"/><path fill="#FFEA00" d="M157.87 74.79l.1 2.86.95 5-.07-2.75z"/><path fill="#FF3000" d="M127.76 60.47l.61 3.13 2.18-2.62-.55-3.22z"/><path fill="#00C8FF" d="M150.13 107.3l-.06-1.53-1.08 2.1-.05 1.73z"/><path fill="#FFDB00" d="M157.16 76.73l6.4-.48 1.1-.13-6.34.48z"/><path fill="#00B8FF" d="M150.88 108.53l-.75-1.23-1.19 2.3.66 1.42z"/><path fill="#1CFFDB" d="M151.7 101.82l1.9-1.64-.71 2.03-1.95 1.83z"/><path fill="#ADFF49" d="M129.25 87.82l2.71-.14.34-2.58-2.68-.11z"/><path fill="#840000" d="M137.22 47.59l.53 3.23 3.09.45-.5-3.23z"/><path fill="#97FF60" d="M161.22 88.69l5.12-1.04.17 1.97-5.1 1.2z"/><path fill="#43FFB4" d="M154.07 97.93l3-1.5-.44 2.06-3.04 1.69z"/><path fill="#FBF100" d="M125.15 79.53l.36 1.84.88-3.61-.32-2.06z"/><path fill="#D7FF1F" d="M164.73 82.1l5.96-.8.66 1.64-5.91.9z"/><path fill="#EEFF09" d="M141.78 80.87l5.41-.2.83-1.39-5.35.08z"/><path fill="#BEFF39" d="M125.48 86.45l.72.8.43-3.36-.69-1.07z"/><path fill="#FFE600" d="M149 78.17l6.02-.26 1.03-.75-5.95.2z"/><path fill="gold" d="M158.32 76.59l6.35-.47 1.12.18-6.28.48z"/><path fill="#FF6C00" d="M126.55 66.84l.5 2.84 1.76-3.1-.44-2.98z"/><path fill="#CAFF2C" d="M132.3 85.1l3.64-.13.56-2.18-3.6-.1z"/><path fill="#B4FF43" d="M127.38 87.7l1.87.12.37-2.83-1.84-.4z"/><path fill="#FFAE00" d="M125.67 73.3l.4 2.4 1.32-3.44-.34-2.57z"/><path fill="#DEFF19" d="M136.5 82.79l4.56-.14.72-1.78-4.5-.03z"/><path fill="#FF2D00" d="M151.94 58.02l.37 3.12 2.26 4.13-.35-3.07z"/><path fill="#EBFF0C" d="M163.88 80.54l6.02-.7.8 1.47-5.97.8z"/><path fill="#0CF" d="M154.58 106.42l-1.43-.15-1.08 3.1 1.36.37z"/><path fill="#B00" d="M131.92 52.46l.62 3.3 2.77-1.2-.55-3.34z"/><path fill="#B7FF40" d="M126.2 87.25l1.18.45.4-3.1-1.15-.71z"/><path fill="gold" d="M159.51 76.78l6.28-.48 1.1.48-6.2.51z"/><path fill="#7DFF7A" d="M157.3 91.95l4.12-1.13-.01 2.1-4.11 1.32z"/><path fill="#B1FF46" d="M160.82 86.59l5.16-.88.36 1.94-5.12 1.04z"/><path fill="#16FFE1" d="M150.9 103.33l.8-1.51-.76 2.22-.87 1.73z"/><path fill="#F8F500" d="M162.9 79.2l6.08-.63.92 1.27-6.02.7z"/><path fill="#FFDB00" d="M160.7 77.29l6.2-.51 1.07.76-6.14.56z"/><path fill="#890000" d="M140.34 48.04l.5 3.23 3.08 1.3-.46-3.21z"/><path fill="#FFE600" d="M161.84 78.1l6.13-.56 1.01 1.03-6.07.62z"/><path fill="#C1FF36" d="M158.92 82.65l-.29 2.5.46 4.9.3-2.35z"/><path fill="gold" d="M150.1 77.36l5.95-.2 1.1-.44-5.86.15z"/><path fill="#FFEA00" d="M142.67 79.36l5.35-.08.98-1.11-5.27-.03z"/><path fill="#60FF97" d="M154.31 95.52l2.99-1.28-.23 2.2-3 1.49z"/><path fill="#3CFFBA" d="M152.23 99.35l1.84-1.42-.48 2.25-1.88 1.64z"/><path fill="#E40000" d="M149.34 54.42l.4 3.16 2.57 3.56-.37-3.12z"/><path fill="#00D8FF" d="M153.15 106.27l-1.27-.62-1 2.88 1.2.84z"/><path fill="#16FFE1" d="M156.78 102.15l-1.4.58-.8 3.7 1.35-.37z"/><path fill="#0CF4EB" d="M151.04 104.64l-.13-1.3-.84 2.43.05 1.53z"/><path fill="#D1FF26" d="M129.62 84.99l2.68.1.6-2.39-2.63-.34z"/><path fill="#9B0000" d="M143.46 49.36l.46 3.22 3 2.12-.44-3.2z"/><path fill="#F4F802" d="M125.51 81.37l.43 1.45.83-3.37-.38-1.7z"/><path fill="#C7FF30" d="M160.23 84.57l5.2-.73.55 1.87-5.16.88z"/><path fill="#FFA700" d="M156.44 69.87l.12 2.96 1.4 4.82-.09-2.86z"/><path fill="#B00" d="M146.49 51.5l.42 3.2 2.83 2.88-.4-3.16z"/><path fill="#02E8F4" d="M151.88 105.65l-.84-1-.91 2.65.75 1.23z"/><path fill="#80FF77" d="M159.1 90.05l-.74 1.97-.01 4.62.73-1.78z"/><path fill="#F8F500" d="M137.27 80.84l4.5.03.9-1.51-4.42-.19z"/><path fill="#9AFF5D" d="M157.08 89.63l4.14-.94.2 2.13-4.12 1.13z"/><path fill="#49FFAD" d="M158.35 96.64l-1.14 1.3-.43 4.21 1.1-1.1z"/><path fill="#FFD000" d="M151.29 77.2l5.87-.33 1.16-.28-5.78.31z"/><path fill="#E7FF0F" d="M132.9 82.7l3.6.09.77-1.95-3.52-.29z"/><path fill="#F10800" d="M130 57.76l.55 3.22 2.46-1.92-.48-3.3z"/><path fill="#DBFF1C" d="M127.78 84.6l1.84.39.65-2.64-1.78-.63z"/><path fill="#DEFF19" d="M159.47 82.7l5.26-.6.7 1.74-5.2.73z"/><path fill="gold" d="M143.73 78.14l5.27.03 1.1-.81-5.18-.1z"/><path fill="#EBFF0C" d="M125.94 82.82l.69 1.07.76-3.13-.63-1.31z"/><path fill="#9F0000" d="M134.75 51.22l.56 3.34 2.94-.39-.5-3.35z"/><path fill="#36FFC1" d="M151.48 100.63l.75-1.28-.52 2.47-.8 1.51z"/><path fill="#FFB900" d="M126.07 75.7l.32 2.06 1.25-3.24-.25-2.26z"/><path fill="#FC0" d="M152.54 76.84l5.78-.25 1.19.33-5.69.28z"/><path fill="#80FF77" d="M154.3 93l3-1.05v2.3l-2.99 1.27z"/><path fill="#E1FF16" d="M126.63 83.89l1.15.7.71-2.87-1.1-.96z"/><path fill="#F1FC06" d="M158.55 81l5.33-.46.85 1.57-5.26.59z"/><path fill="#5DFF9A" d="M152.49 96.7l1.82-1.18-.24 2.4-1.84 1.43z"/><path fill="#FF3B00" d="M128.37 63.6l.44 2.98 2.1-2.51-.36-3.09z"/><path fill="#1CFFDB" d="M155.38 102.74l-1.5.08-.73 3.45 1.44.15z"/><path fill="#B7FF40" d="M156.64 87.34l4.18-.75.4 2.1-4.14.94z"/><path fill="#FC0" d="M153.82 76.94l5.69-.16 1.18.5-5.6.21z"/><path fill="#FF7A00" d="M127.05 69.68l.34 2.58 1.68-2.95-.26-2.73z"/><path fill="#FFEA00" d="M157.49 79.55l5.42-.36.97 1.35-5.34.47z"/><path fill="#FFDB00" d="M138.25 79.17l4.42.18 1.06-1.21-4.33-.3z"/><path fill="#FFD000" d="M155.1 77.5l5.6-.21 1.13.81-5.5.27z"/><path fill="#F4F802" d="M130.27 82.36l2.63.34.85-2.15-2.56-.55z"/><path fill="#FFDB00" d="M156.33 78.37l5.5-.27 1.08 1.1-5.42.35z"/><path fill="#FFC800" d="M144.92 77.25l5.18.1 1.19-.47-5.07-.15z"/><path fill="#FF6C00" d="M154.57 65.27l.16 3.07 1.83 4.5-.12-2.97z"/><path fill="#FBF100" d="M157.97 77.65l-.26 2.65.92 4.85.3-2.5z"/><path fill="#30FFC7" d="M151.66 101.69l-.18-1.06-.57 2.7.13 1.31z"/><path fill="#FFE600" d="M133.75 80.56l3.52.28.98-1.67-3.44-.45z"/><path fill="#23FFD4" d="M153.89 102.82l-1.33-.37-.68 3.2 1.27.62z"/><path fill="#29FFCE" d="M152.56 102.45l-.9-.76-.62 2.95.84 1z"/><path fill="#D1FF26" d="M155.99 85.14l4.24-.57.6 2.02-4.2.75z"/><path fill="#9DFF5A" d="M154.06 90.46l3.02-.83.22 2.32-3 1.05z"/><path fill="#FFC400" d="M126.39 77.76l.37 1.69 1.17-3.03-.3-1.9z"/><path fill="#4DFFAA" d="M157.2 97.95l-1.42.82-.4 3.97 1.4-.59z"/><path fill="#920000" d="M137.75 50.82l.5 3.35 3.03.45-.44-3.35z"/><path fill="#FFC100" d="M146.22 76.89l5.07.3 1.25-.29-4.96-.33z"/><path fill="#FEED00" d="M128.5 81.72l1.77.63.92-2.35-1.7-.86z"/><path fill="#5AFF9D" d="M151.76 97.72l.73-1.02-.26 2.65-.75 1.28z"/><path fill="#C80000" d="M132.53 55.77l.48 3.29 2.7-1.16-.4-3.34z"/><path fill="#BEFF39" d="M158.63 85.15l-.72 2.17.45 4.7.73-1.98z"/><path fill="#80FF77" d="M152.48 93.94l1.83-.93v2.5l-1.82 1.19z"/><path fill="#FFC800" d="M139.4 77.83l4.33.3 1.2-.88-4.23-.39z"/><path fill="#80FF77" d="M158.36 92.02l-1.15 1.53v4.4l1.14-1.31z"/><path fill="#E7FF0F" d="M155.15 83.09l4.32-.4.76 1.88-4.24.57z"/><path fill="#FFD300" d="M126.76 79.45l.63 1.31 1.09-2.8-.55-1.54z"/><path fill="#FF3400" d="M152.31 61.14l.21 3.15 2.2 4.05-.16-3.07z"/><path fill="#FFDE00" d="M127.4 80.76l1.1.96 1-2.58-1.03-1.18z"/><path fill="#FFB900" d="M147.58 76.58l4.96.26 1.28.35-4.84-.24z"/><path fill="gold" d="M131.2 80l2.55.55 1.07-1.83-2.46-.74z"/><path fill="#FC0" d="M134.81 78.72l3.44.45 1.15-1.34-3.32-.58z"/><path fill="#FF8600" d="M127.39 72.26l.24 2.26 1.59-2.78-.15-2.43z"/><path fill="#BAFF3C" d="M153.57 87.94l3.07-.6.44 2.29-3.02.83z"/><path fill="#960000" d="M140.84 51.27l.44 3.35 3.02 1.29-.38-3.33z"/><path fill="#FBF100" d="M154.13 81.24l4.41-.23.93 1.69-4.32.39z"/><path fill="#56FFA0" d="M152.1 98.52l-.27-.8-.35 2.9.23 1.07z"/><path fill="#4DFFAA" d="M155.78 98.77l-1.52.34-.37 3.7 1.49-.08z"/><path fill="#FF1300" d="M130.55 60.98l.35 3.09 2.38-1.84-.27-3.17z"/><path fill="#FFBD00" d="M148.97 76.8l4.85.14 1.28.55-4.73-.09z"/><path fill="#FFAE00" d="M156.56 72.83l-.22 2.8 1.37 4.68.26-2.66z"/><path fill="#F10800" d="M149.74 57.58l.26 3.23 2.52 3.48-.2-3.15z"/><path fill="#FFB900" d="M140.7 76.86l4.22.4 1.3-.53-4.1-.45z"/><path fill="#FFDB00" d="M152.98 79.65l4.5-.1 1.06 1.46-4.4.23z"/><path fill="#FF4A00" d="M128.81 66.58l.26 2.73 2-2.38-.16-2.86z"/><path fill="#FFC100" d="M150.36 77.4l4.73.1 1.24.87h-4.62z"/><path fill="#FC0" d="M151.71 78.36l4.62.01 1.16 1.18-4.51.1z"/><path fill="#A40000" d="M143.92 52.58l.38 3.33 2.93 2.08-.32-3.29z"/><path fill="#A0FF56" d="M152.2 91.13l1.86-.67.25 2.54-1.83.94z"/><path fill="#C40000" d="M146.91 54.7l.32 3.29L150 60.8l-.26-3.23z"/><path fill="#53FFA4" d="M152.9 99l-.92-.48-.32 3.17.9.75z"/><path fill="#80FF77" d="M151.75 94.7l.73-.76v2.76l-.72 1.02z"/><path fill="#50FFA7" d="M154.26 99.1l-1.36-.1-.34 3.45 1.33.37z"/><path fill="#D7FF1F" d="M152.85 85.52l3.14-.38.65 2.2-3.07.6z"/><path fill="#FFC800" d="M129.5 79.15l1.7.85 1.16-2.02-1.6-1.04z"/><path fill="#AD0000" d="M135.31 54.56l.4 3.34 2.86-.37-.32-3.36z"/><path fill="#FF9800" d="M127.63 74.52l.3 1.9 1.48-2.59-.2-2.09z"/><path fill="#FFB600" d="M136.08 77.25l3.32.58 1.3-.97-3.2-.68z"/><path fill="#80FF77" d="M157.21 93.55l-1.43 1.07v4.15l1.43-.82z"/><path fill="#FFAE00" d="M142.12 76.28l4.1.45 1.36-.15-3.97-.47z"/><path fill="#FFB900" d="M132.36 77.98l2.46.74 1.26-1.47-2.34-.89z"/><path fill="#F8F500" d="M157.7 80.3l-.68 2.36.89 4.66.72-2.17z"/><path fill="#FFB600" d="M128.48 77.96l1.01 1.19 1.27-2.21-.9-1.38z"/><path fill="#FFA700" d="M127.93 76.42l.54 1.54 1.38-2.4-.44-1.73z"/><path fill="#BAFF3C" d="M157.91 87.32l-1.12 1.76.42 4.47 1.15-1.53z"/><path fill="#F1FC06" d="M151.92 83.27l3.23-.18.84 2.05-3.14.38z"/><path fill="#C1FF36" d="M151.66 88.37l1.91-.43.49 2.52-1.86.68z"/><path fill="#80FF77" d="M152.35 95.2l-.6-.5.03 3.02.6.8z"/><path fill="#FF7300" d="M154.73 68.34l-.17 2.94 1.78 4.36.22-2.8z"/><path fill="#FFA700" d="M143.61 76.11l3.97.46 1.4.23-3.84-.44z"/><path fill="#FF5D00" d="M129.07 69.31l.15 2.43 1.88-2.24-.04-2.57z"/><path fill="#A4FF53" d="M151.45 91.62l.75-.49.28 2.8-.73.76z"/><path fill="#DA0000" d="M133.02 59.06l.26 3.17 2.6-1.11-.17-3.23z"/><path fill="#FFE200" d="M150.8 81.24h3.33l1.02 1.85-3.23.18z"/><path fill="#FFA300" d="M137.5 76.18l3.2.68 1.42-.58-3.06-.74z"/><path fill="#80FF77" d="M155.78 94.62l-1.52.6v3.89l1.52-.34z"/><path fill="#A40000" d="M138.25 54.17l.32 3.36 2.93.44-.23-3.35z"/><path fill="#FFAB00" d="M145.14 76.36l3.84.44 1.38.6-3.7-.38z"/><path fill="#FFA700" d="M130.76 76.94l1.6 1.04 1.38-1.62-1.47-1.2z"/><path fill="#80FF77" d="M152.9 95.4l-.93-.2v3.32l.93.48z"/><path fill="#FF2500" d="M130.9 64.07l.16 2.86 2.26-1.74-.04-2.96z"/><path fill="#FC0" d="M149.54 79.5l3.44.15 1.16 1.6h-3.33z"/><path fill="#FFAE00" d="M146.66 77.02l3.7.38 1.35.96-3.57-.29z"/><path fill="#80FF77" d="M154.26 95.23l-1.37.18V99l1.37.1z"/><path fill="#FF9F00" d="M133.74 76.36l2.34.89 1.42-1.07-2.2-1z"/><path fill="#FFBD00" d="M148.14 78.07l3.57.29 1.27 1.3-3.44-.17z"/><path fill="#E1FF16" d="M150.87 85.7l1.98-.18.72 2.42-1.9.43z"/><path fill="#FF3F00" d="M152.52 64.3l-.1 3.06 2.14 3.92.17-2.94z"/><path fill="#FF6F00" d="M129.22 71.74l.19 2.09 1.76-2.09-.07-2.24z"/><path fill="#FFB600" d="M156.34 75.64l-.64 2.54 1.32 4.48.69-2.36z"/><path fill="#FF9800" d="M139.06 75.54l3.06.74 1.49-.17-2.92-.76z"/><path fill="#FF9400" d="M129.85 75.56l.91 1.38 1.5-1.78-.78-1.53z"/><path fill="#B7FF40" d="M156.79 89.08l-1.42 1.33.41 4.21 1.43-1.07z"/><path fill="#A40000" d="M141.28 54.62l.22 3.35 2.93 1.25-.13-3.31z"/><path fill="#A7FF50" d="M151.67 91.84l-.22-.22.37 3.07.25.52z"/><path fill="#C7FF30" d="M150.85 88.58l.81-.21.55 2.76-.76.49z"/><path fill="#FF8200" d="M129.41 73.83l.44 1.73 1.64-1.93-.32-1.89z"/><path fill="#F1FC06" d="M157.02 82.66l-1.09 2 .85 4.42 1.13-1.76z"/><path fill="#FBF100" d="M149.84 83.23l2.08.04.93 2.25-1.98.19z"/><path fill="#FF1300" d="M150 60.81l-.03 3.17 2.45 3.38.1-3.07z"/><path fill="#C40000" d="M135.71 57.9l.16 3.22 2.75-.35-.05-3.24z"/><path fill="#B60000" d="M144.3 55.9l.13 3.32 2.85 2.02-.05-3.25z"/><path fill="#FF9400" d="M140.7 75.35l2.91.76 1.53.25-2.77-.74z"/><path fill="#FF8D00" d="M135.3 75.19l2.2.99 1.56-.64-2.06-1.06zm-3.03-.02l1.47 1.2 1.56-1.18-1.33-1.32z"/><path fill="#D10000" d="M147.23 57.99l.05 3.25 2.69 2.74.03-3.17z"/><path fill="#FF3800" d="M131.06 66.93l.04 2.57 2.13-1.63.1-2.68z"/><path fill="#ADFF49" d="M152.53 91.75l-.9.1.34 3.36.92.2z"/><path fill="#B4FF43" d="M155.37 90.4l-1.5.89.39 3.94 1.52-.61z"/><path fill="#FFD300" d="M148.62 81l2.19.24 1.11 2.03-2.07-.04z"/><path fill="#F10800" d="M133.28 62.23l.04 2.96 2.47-1.05.08-3.02z"/><path fill="#FF9400" d="M142.37 75.62l2.77.74 1.52.66-2.61-.67z"/><path fill="#B1FF46" d="M153.87 91.29l-1.34.46.36 3.66 1.37-.18z"/><path fill="#EBFF0C" d="M149.98 85.66l.89.05.8 2.66-.82.2z"/><path fill="#FF7E00" d="M154.56 71.28l-.57 2.72 1.71 4.18.64-2.54z"/><path fill="#FFB900" d="M147.22 79.07l2.32.42 1.27 1.75-2.2-.24z"/><path fill="#FF9C00" d="M144.05 76.35l2.61.67 1.48 1.05-2.46-.56z"/><path fill="#CEFF29" d="M150.98 88.52l-.13.06.6 3.04.18.23z"/><path fill="#FFA700" d="M145.68 77.5l2.46.58 1.4 1.42-2.32-.43z"/><path fill="#F70" d="M131.49 73.63l.78 1.54 1.7-1.3-.63-1.65z"/><path fill="#FF8200" d="M137 74.48l2.06 1.06 1.63-.19-1.9-1.07z"/><path fill="#FF4A00" d="M131.1 69.5l.07 2.24 2-1.52.06-2.35z"/><path fill="#B60000" d="M138.57 57.53l.05 3.24 2.82.44.06-3.24z"/><path fill="#EBFF0C" d="M155.93 84.65l-1.37 1.58.81 4.17 1.42-1.32z"/><path fill="#FF6000" d="M131.17 71.74l.32 1.89 1.85-1.4-.17-2.01z"/><path fill="#F70" d="M133.97 73.87l1.33 1.32 1.7-.7-1.17-1.39z"/><path fill="#FFC100" d="M155.7 78.18l-1.02 2.21 1.25 4.26 1.09-1.99z"/><path fill="#FFE200" d="M148.85 82.93l1 .3 1.02 2.48-.9-.05z"/><path fill="#D7FF1F" d="M151.82 88.14l-.84.38.65 3.32.9-.09z"/><path fill="#FF4A00" d="M152.42 67.36l-.5 2.87L154 74l.57-2.72z"/><path fill="#FF7A00" d="M138.8 74.28l1.9 1.07 1.67.27-1.73-1.05z"/><path fill="#FF1A00" d="M133.32 65.19l-.09 2.68 2.33-.99.23-2.74z"/><path fill="#DA0000" d="M135.87 61.12l-.08 3.02 2.62-.32.2-3.05z"/><path fill="#F4F802" d="M150.02 85.33l-.04.33.87 2.92.13-.06z"/><path fill="#E4FF13" d="M154.56 86.23l-1.45 1.16.76 3.9 1.5-.88z"/><path fill="#B00" d="M141.5 57.97l-.06 3.24 2.82 1.2.17-3.19z"/><path fill="#FFC100" d="M147.5 80.48l1.12.52 1.22 2.23-.99-.3z"/><path fill="#DEFF19" d="M153.11 87.39l-1.29.75.7 3.61 1.35-.46z"/><path fill="#FF6000" d="M133.34 72.22l.63 1.65 1.86-.77-.48-1.72z"/><path fill="#FF7E00" d="M140.64 74.58l1.73 1.04 1.68.73-1.57-.98z"/><path fill="#FF6C00" d="M135.83 73.1l1.17 1.38 1.8-.2-1-1.4z"/><path fill="#FF1E00" d="M149.97 63.98l-.4 3.01 2.36 3.25.49-2.88z"/><path fill="#FFA700" d="M145.96 78.36l1.25.71 1.4 1.93-1.11-.52z"/><path fill="#C80000" d="M144.43 59.22l-.18 3.2 2.74 1.94.3-3.12z"/><path fill="#FF8600" d="M142.48 75.37l1.57.98 1.63 1.16-1.4-.86z"/><path fill="#FF3000" d="M133.23 67.87l-.06 2.35 2.18-.92.21-2.42z"/><path fill="#FF8900" d="M153.99 74l-.95 2.41 1.64 3.98 1.02-2.2z"/><path fill="#FF9400" d="M144.27 76.65l1.4.86 1.54 1.56-1.25-.7z"/><path fill="#E40000" d="M147.28 61.25l-.29 3.1 2.58 2.64.4-3z"/><path fill="#FFC800" d="M154.68 80.4l-1.3 1.81 1.18 4.02 1.37-1.58z"/><path fill="#FF4A00" d="M133.17 70.22l.17 2 2.01-.84V69.3z"/><path fill="#FFD300" d="M148.8 82.34l.05.6 1.13 2.72.04-.34z"/><path fill="#FEED00" d="M150.79 84.66l-.77.66.96 3.2.84-.38z"/><path fill="#CD0000" d="M138.62 60.77l-.21 3.05 2.68.42.35-3.03z"/><path fill="#FF6400" d="M137.8 72.87l1 1.4 1.84.3-.83-1.37z"/><path fill="#F10800" d="M135.8 64.14l-.24 2.74 2.47-.3.38-2.76z"/><path fill="#FFD300" d="M153.38 82.22L152 83.64l1.11 3.75 1.45-1.16z"/><path fill="#FF5200" d="M135.35 71.38l.48 1.72 1.96-.23-.3-1.74z"/><path fill="#FFE200" d="M152 83.64l-1.21 1.03 1.03 3.47 1.29-.75z"/><path fill="#FFB200" d="M147.31 79.66l.19.82 1.35 2.45-.06-.59z"/><path fill="#FF5900" d="M151.93 70.23l-.85 2.6 1.96 3.58.95-2.4z"/><path fill="#FF6400" d="M139.81 73.2l.83 1.38 1.84.8-.66-1.31z"/><path fill="#F20" d="M135.56 66.89l-.21 2.42 2.3-.28.38-2.44z"/><path fill="#FFC400" d="M149.45 81.42l-.66.92 1.23 2.98.77-.65z"/><path fill="#FF3800" d="M135.34 69.3l.01 2.08 2.14-.25.16-2.1z"/><path fill="#FF9400" d="M153.04 76.41l-1.2 2.06 1.53 3.75 1.3-1.83z"/><path fill="#D10000" d="M141.44 61.2l-.35 3.03 2.68 1.15.49-2.97z"/><path fill="#FF9400" d="M145.63 77.34l.33 1.02 1.54 2.12-.19-.82z"/><path fill="#FF6C00" d="M141.82 74.07l.66 1.3 1.8 1.28-.5-1.19z"/><path fill="#FF7E00" d="M143.78 75.46l.49 1.19 1.69 1.71-.33-1.02z"/><path fill="#FF3000" d="M149.57 66.99l-.73 2.75 2.24 3.1.85-2.6z"/><path fill="#FF4A00" d="M137.49 71.13l.3 1.74 2.02.33-.13-1.72z"/><path fill="#E80000" d="M138.4 63.82l-.37 2.77 2.53.4.53-2.75z"/><path fill="#DF0000" d="M144.25 62.41l-.48 2.98 2.61 1.85.61-2.88z"/><path fill="#FFB200" d="M150.55 80.14l-1.1 1.28 1.34 3.24 1.2-1.02z"/><path fill="#FA0F00" d="M147 64.36l-.62 2.88 2.46 2.5.73-2.75z"/><path fill="#FFA300" d="M151.83 78.47l-1.28 1.67 1.45 3.5 1.38-1.42z"/><path fill="#FF9F00" d="M147.84 78.5l-.53 1.16 1.48 2.68.66-.92z"/><path fill="#FF6800" d="M151.08 72.83l-1.1 2.26 1.85 3.38 1.21-2.06z"/><path fill="#FF3000" d="M137.65 69.03l-.16 2.1 2.2.35.33-2.08z"/><path fill="#FF4A00" d="M139.68 71.48l.13 1.72 2.01.87.05-1.65z"/><path fill="#FF1A00" d="M138.03 66.59l-.38 2.44 2.36.38.55-2.43z"/><path fill="#FF7E00" d="M146 75.98l-.37 1.36 1.68 2.32.53-1.16z"/><path fill="#ED0400" d="M141.1 64.24l-.54 2.74 2.53 1.1.69-2.7z"/><path fill="#F50" d="M141.87 72.43l-.05 1.64 1.96 1.4.22-1.53z"/><path fill="#FF8D00" d="M148.82 76.98l-.98 1.52 1.6 2.92 1.11-1.28z"/><path fill="#FF6800" d="M144 73.94l-.22 1.52 1.85 1.88.38-1.36z"/><path fill="#FF7A00" d="M149.98 75.1l-1.16 1.88 1.73 3.16 1.28-1.67z"/><path fill="#FF4300" d="M148.84 69.74l-.97 2.44 2.11 2.91 1.1-2.26z"/><path fill="#FF3400" d="M140.01 69.4l-.33 2.08 2.19.95.5-2z"/><path fill="#FA0F00" d="M143.77 65.39l-.68 2.68 2.46 1.75.83-2.58z"/><path fill="#FF1A00" d="M140.56 66.98l-.55 2.43 2.37 1.02.7-2.36z"/><path fill="#F20" d="M146.38 67.24l-.83 2.58 2.32 2.36.97-2.44z"/><path fill="#FF6800" d="M146.84 74.27l-.83 1.71 1.83 2.52.98-1.52z"/><path fill="#F50" d="M147.87 72.18l-1.03 2.09 1.98 2.71 1.16-1.89z"/><path fill="#FF3B00" d="M142.38 70.43l-.5 2 2.12 1.51.67-1.88z"/><path fill="#FF4E00" d="M144.67 72.06l-.67 1.88 2 2.04.84-1.71z"/><path fill="#FF2500" d="M143.09 68.07l-.71 2.35 2.3 1.64.87-2.24z"/><path fill="#FF3800" d="M145.55 69.82l-.88 2.24 2.17 2.2 1.03-2.08z"/></g></g></g></svg>