<svg xmlns="http://www.w3.org/2000/svg" width="580" height="183"><defs><radialGradient id="e1lc7qf3kc" r="76.47%" fx="50%" fy="50%" gradientTransform="matrix(.59818 -.78823 .80136 .58837 -.2 .6)"><stop offset="0%" stop-color="#594AFF"/><stop offset="100%" stop-color="#3B2ECE"/></radialGradient><radialGradient id="c9mg2q2gpe" cx="25.84%" cy="25.34%" r="89.15%" fx="25.84%" fy="25.34%" gradientTransform="scale(-1 -.99123) rotate(-63.37 -.41 .42)"><stop offset="0%" stop-color="#594CF2"/><stop offset="100%" stop-color="#281BC1"/></radialGradient><radialGradient id="87is4t13bk" cx="25.84%" cy="25.34%" r="126.43%" fx="25.84%" fy="25.34%" gradientTransform="matrix(-.31605 .62477 -.94874 -.20812 .58 .14)"><stop offset="0%" stop-color="#594CF2"/><stop offset="100%" stop-color="#281BC1"/></radialGradient><radialGradient id="hg5ju0rosl" cx="58.45%" r="125.47%" fx="58.45%" fy="50%" gradientTransform="matrix(-.31847 .62957 -.94793 -.2115 1.25 .24)"><stop offset="0%" stop-color="#594CF2"/><stop offset="100%" stop-color="#281BC1"/></radialGradient><radialGradient id="222giw0zpm" cx="25.84%" cy="25.34%" r="115.55%" fx="25.84%" fy="25.34%" gradientTransform="matrix(-.34582 .68365 -.9383 -.25197 .59 .14)"><stop offset="0%" stop-color="#594CF2"/><stop offset="100%" stop-color="#281BC1"/></radialGradient><radialGradient id="st23g2acqn" cx="25.84%" cy="25.34%" r="110.96%" fx="25.84%" fy="25.34%" gradientTransform="matrix(-.36012 .7119 -.9329 -.2748 .59 .14)"><stop offset="0%" stop-color="#594CF2"/><stop offset="100%" stop-color="#281BC1"/></radialGradient><radialGradient id="210bvn6tuo" cx="25.84%" cy="25.34%" r="110.42%" fx="25.84%" fy="25.34%" gradientTransform="matrix(-.36188 .7154 -.93222 -.27772 .59 .14)"><stop offset="0%" stop-color="#594CF2"/><stop offset="100%" stop-color="#281BC1"/></radialGradient><radialGradient id="qoa0kcjtzp" cx="25.84%" cy="25.34%" r="92.38%" fx="25.84%" fy="25.34%" gradientTransform="matrix(-.43255 .8551 -.9016 -.41024 .6 .14)"><stop offset="0%" stop-color="#594CF2"/><stop offset="100%" stop-color="#281BC1"/></radialGradient><radialGradient id="l0rdlwq1gq" cx="25.84%" cy="25.34%" r="117.25%" fx="25.84%" fy="25.34%" gradientTransform="matrix(-.3408 .6737 -.94014 -.24421 .58 .14)"><stop offset="0%" stop-color="#594CF2"/><stop offset="100%" stop-color="#281BC1"/></radialGradient><radialGradient id="o4knbk8ukr" cx="25.84%" cy="25.34%" r="112.86%" fx="25.84%" fy="25.34%" gradientTransform="matrix(-.35405 .69991 -.93523 -.26497 .59 .14)"><stop offset="0%" stop-color="#594CF2"/><stop offset="100%" stop-color="#281BC1"/></radialGradient><radialGradient id="5zgbr0kxus" cx="25.84%" cy="25.34%" r="111.16%" fx="25.84%" fy="25.34%" gradientTransform="matrix(-.35947 .71063 -.93316 -.27375 .59 .14)"><stop offset="0%" stop-color="#594CF2"/><stop offset="100%" stop-color="#281BC1"/></radialGradient><linearGradient id="qmndumkfia" x1="31.28%" x2="31.28%" y1="0%" y2="50%"><stop offset="0%" stop-color="#EE77BA"/><stop offset="100%" stop-color="#EF40A1"/></linearGradient><linearGradient id="8qv6cte4yb" x1="31.28%" x2="31.28%" y1="0%" y2="50%"><stop offset="0%" stop-color="#EE77BA"/><stop offset="100%" stop-color="#EF40A1"/></linearGradient><linearGradient id="i5wd714v4d" x1="60.39%" x2="27.62%" y1="100%" y2="81.75%"><stop offset="0%" stop-color="#4136DE"/><stop offset="100%" stop-color="#8183FF"/></linearGradient><linearGradient id="nkadnlwr4f" x1="32.02%" x2="32.02%" y1="41.38%" y2="103.55%"><stop offset="0%" stop-color="#C90000"/><stop offset="27.7%" stop-color="#FA0F00"/><stop offset="38.95%" stop-color="#FE9D09"/><stop offset="54.46%" stop-color="#F7DB1E"/><stop offset="68.27%" stop-color="#75FF82"/><stop offset="85.4%" stop-color="#05A2FB"/><stop offset="100%" stop-color="#1212EE"/></linearGradient><linearGradient id="n1eath2dmg" x1="50%" x2="50%" y1="0%" y2="100%"><stop offset="0%" stop-color="#9BB5F6"/><stop offset="100%" stop-color="#627EEA"/></linearGradient><linearGradient id="zapg87c08h" x1="50%" x2="50%" y1="0%" y2="100%"><stop offset="0%" stop-color="#79F8DC"/><stop offset="100%" stop-color="#26A17B"/></linearGradient><linearGradient id="ipskh5ivbi" x1="55.36%" x2="43.44%" y1="19.49%" y2="66.91%"><stop offset="0%" stop-color="#9B9B9B"/><stop offset="100%" stop-color="#626262"/></linearGradient><linearGradient id="fy39rz1kzj" x1="50%" x2="50%" y1="0%" y2="100%"><stop offset="0%" stop-color="#9B9B9B"/><stop offset="100%" stop-color="#626262"/></linearGradient><linearGradient id="9dos5ter7t" x1="76.98%" x2="13.94%" y1="0%" y2="80.7%"><stop offset="0%" stop-color="#EE71B8"/><stop offset="100%" stop-color="#EF40A1"/></linearGradient><linearGradient id="zxxmhy6udu" x1="31.28%" x2="31.28%" y1="0%" y2="50%"><stop offset="0%" stop-color="#EE77BA"/><stop offset="100%" stop-color="#EF40A1"/></linearGradient></defs><g fill="none" fill-rule="evenodd"><path fill="#131319" fill-opacity=".01" d="M0 0h580v183H0z"/><rect width="16.11" height="16.34" x="383.15" y="4.84" fill="url(#qmndumkfia)" stroke="#0A0A0E" stroke-linejoin="round" stroke-width="2" rx="8.05"/><rect width="12" height="12.17" x="167.08" y="14.7" fill="url(#8qv6cte4yb)" stroke="#0A0A0E" stroke-linejoin="round" stroke-width="2" rx="6"/><rect width="16.11" height="16.34" x="41.15" y="29.5" fill="url(#qmndumkfia)" stroke="#0A0A0E" stroke-linejoin="round" stroke-width="2" rx="8.05"/><rect width="14.11" height="14.34" x="102.04" y="68.03" fill="url(#e1lc7qf3kc)" stroke="#0A0A0E" stroke-linejoin="round" stroke-width="2" rx="7.05"/><rect width="14.11" height="14.34" x="527.83" y="36.74" fill="url(#e1lc7qf3kc)" stroke="#0A0A0E" stroke-linejoin="round" stroke-width="2" rx="7.05"/><rect width="14.11" height="14.34" x="108.95" y="115.05" fill="url(#e1lc7qf3kc)" stroke="#0A0A0E" stroke-linejoin="round" stroke-width="2" rx="7.05"/><path stroke="url(#i5wd714v4d)" stroke-linecap="round" stroke-linejoin="round" stroke-width="4" d="M138.3 43.73c-5.96 2.17-8.47 4.65-7.51 7.43 1.43 4.17 10.33.49 10.3 3.61-.02 3.13-9.39 6.26-7.37 9.3 2.02 3.05 9.72-1.88 11.45 2.14 1.15 2.68.21 6.19-2.81 10.53" transform="rotate(-30 138.12 60.23)"/><path fill="url(#c9mg2q2gpe)" stroke="#0A0A0E" d="M27.73 41.64v63.03c0 8.93 4.3 17.33 15.72 17.33h63.31c4.5 0 15.05-4.32 15.05-17.1V43.17c0-5.37-3.12-16.1-15.05-16.1H43.45c-6.1 0-15.71 2.7-15.71 14.56z" transform="translate(156 47.78)"/><path fill="url(#nkadnlwr4f)" stroke="#0A0A0E" d="M64.22 34.95l1.36 79.93H48.64c-4.69 0-7.63-1.54-9.45-3.78-2.73-3.36-2.98-8.22-3-11.65l.01-1.4V48.53c.02-4.97.43-8.51 2.13-10.74 1.5-1.98 4.05-2.85 8.14-2.85h17.75z" transform="translate(156 47.78)"/><g transform="rotate(-20 279.09 -406.8)" fill-rule="nonzero"><ellipse cx="25" cy="25.42" fill="url(#n1eath2dmg)" stroke="#0A0A0E" rx="25" ry="25.42"/><ellipse cx="29.64" cy="25.42" fill="url(#n1eath2dmg)" stroke="#0A0A0E" rx="25" ry="25.42"/><g fill="#FFF"><path fill-opacity=".6" d="M30.42 6.35v14.1l11.71 5.32z"/><path d="M30.42 6.35L18.7 25.77l11.72-5.33z"/><path fill-opacity=".6" d="M30.42 34.9v9.57l11.72-16.49z"/><path d="M30.42 44.47V34.9L18.7 27.97z"/><path fill-opacity=".2" d="M30.42 32.68l11.71-6.91-11.7-5.32z"/><path fill-opacity=".6" d="M18.7 25.77l11.72 6.91V20.45z"/></g></g><g fill-rule="nonzero"><path fill="url(#zapg87c08h)" stroke="#0A0A0E" d="M20.66.5c5.56 0 10.6 2.3 14.24 6 3.65 3.71 5.91 8.84 5.91 14.5s-2.26 10.79-5.9 14.5a19.92 19.92 0 0 1-28.5 0A20.6 20.6 0 0 1 .5 21c0-5.66 2.26-10.79 5.9-14.5 3.65-3.7 8.7-6 14.25-6z" transform="rotate(-20 402.73 -395.62)"/><path fill="url(#zapg87c08h)" stroke="#0A0A0E" d="M20.93.5c5.57 0 10.6 2.3 14.25 6 3.65 3.71 5.9 8.84 5.9 14.5s-2.25 10.79-5.9 14.5a19.92 19.92 0 0 1-28.5 0A20.61 20.61 0 0 1 .78 21c0-5.66 2.25-10.79 5.9-14.5 3.65-3.7 8.69-6 14.25-6z" transform="rotate(-20 401.15 -404.6)"/><path fill="#FFF" d="M191.36 122.18l-1.07-2.94 6.6-2.4-1.63-4.48-17.98 6.55 1.63 4.47 6.6-2.4 1.08 2.94c-5.28 2.2-8.92 4.75-8.45 6.04.47 1.3 4.9.9 10.36-.8l3.42 9.4 4.77-1.73-3.42-9.4c5.27-2.2 8.9-4.75 8.44-6.04-.48-1.3-4.9-.9-10.35.79zm1.62 4.45a54.12 54.12 0 0 1-4.77 1.74c-4.81 1.52-8.66 1.97-9.02.96-.37-1 2.86-3.12 7.53-5.07l1.19 3.27a37.21 37.21 0 0 0 4.77-1.74l-1.19-3.28c4.81-1.5 8.65-1.95 9.02-.95.35 1-2.88 3.13-7.53 5.07"/></g><g transform="translate(205.56 47.78)"><path fill="url(#ipskh5ivbi)" stroke="#0A0A0E" d="M21.61.54c.48-.02.96-.04 1.44.01 4.44.5 7.2 2.48 8.87 5.47 2.15 3.83 2.58 9.26 2.58 15.21-.02 6-.43 11.38-2.52 15.18-1.64 2.99-4.33 4.97-8.67 5.5-.53.07-1.07.05-1.6.03l-.89-.03a20.09 20.09 0 0 1-14.37-6.05C2.77 32.12.5 26.95.5 21.23S2.77 10.35 6.46 6.61A20.08 20.08 0 0 1 20.81.56l.79-.02z"/><ellipse cx="24.66" cy="21.23" fill="url(#fy39rz1kzj)" stroke="#0A0A0E" rx="20.32" ry="20.68"/><path fill="#FFF" fill-rule="nonzero" d="M34.12 18.39c.45-3.05-1.82-4.7-4.92-5.79l1-4.13-2.45-.63-.98 4.03c-.65-.17-1.31-.32-1.97-.48l.99-4.05-2.46-.63-1 4.13c-.54-.12-1.07-.24-1.57-.37v-.02l-3.39-.86-.65 2.69s1.82.42 1.78.45c1 .25 1.18.93 1.15 1.46L18.5 18.9l.26.09-.26-.07-1.61 6.6c-.12.3-.43.77-1.13.6.03.03-1.78-.46-1.78-.46l-1.22 2.88 3.2.82 1.75.46L16.69 34l2.45.63 1.01-4.14c.67.19 1.32.36 1.96.52l-1 4.12 2.45.62 1.02-4.17c4.19.81 7.33.49 8.66-3.4 1.07-3.12-.05-4.92-2.26-6.1 1.6-.38 2.82-1.46 3.14-3.7zm-5.38 8.18c-.77 3.26-5.97 1.5-7.65 1.05l1.36-5.78c1.69.44 7.1 1.32 6.3 4.72zm.6-8.2c-.7 2.72-5.06 1.34-6.47 1l1.25-4.8c1.4.35 5.95.98 5.22 3.8z"/></g><g stroke="#0A0A0E"><path fill="url(#87is4t13bk)" d="M.07 13.35C.07 8.97-1.34 0 8.92 0S49.1 2.83 50.69 2.83c1.58 0 6.48.93 6.48 12.5v55.54c0 3.05-1.23 11.05-9.26 12.24-8.04 1.18-28.06 3.43-30.36 3.43-2.3 0-17.49 3.12-17.49-11.56V13.35z" transform="translate(204.72 79.29)"/><path fill="url(#hg5ju0rosl)" d="M9.49 17.01C9.49 9.7 7.96.74 18.23.74S58.52 3.15 60.1 3.15c1.58 0 6.48.93 6.48 12.47v55.46c0 3.06-1.23 11.04-9.26 12.22-8.03 1.19-33.98 3.18-36.4 3.18-2.42 0-11.43 3.37-11.43-11.29V17.01z" transform="translate(204.72 79.29)"/><g transform="translate(224.26 93.27)"><path fill="url(#222giw0zpm)" d="M21.71 0C33.7 0 43.42 13.34 43.42 29.8c0 16.45-9.72 29.8-21.7 29.8S0 46.25 0 29.8 9.72 0 21.71 0zm.33 7.53c-7.52 0-13.61 9.82-13.61 21.94 0 12.12 6.09 21.94 13.6 21.94 7.52 0 13.61-9.82 13.61-21.94 0-12.12-6.09-21.94-13.6-21.94z"/><path fill="url(#st23g2acqn)" d="M30.74 12.1l-5.92 9.05 2.53 2.28c.35.3.96.61 1.83.93l4.99-5.87a8.29 8.29 0 0 0-1.06-3.62 6.99 6.99 0 0 0-2.37-2.77z"/><path fill="url(#210bvn6tuo)" d="M24.95 38.27l5.65 8.25c.83-.71 1.6-1.68 2.3-2.9a6.54 6.54 0 0 0 1-3.34l-4.66-5.42-4.29 3.4z"/><path fill="url(#qoa0kcjtzp)" d="M19.77 39.3c.48 0 5.5.13 5.95 0 3.08-.92 5.39-4.94 5.39-9.5 0-4.46-2.2-8.47-5.16-9.5-.53-.18-5.62 0-6.18 0-3.76 0-6.8 4.25-6.8 9.5 0 5.24 3.04 9.5 6.8 9.5z"/><ellipse cx="24.95" cy="29.8" fill="url(#l0rdlwq1gq)" rx="6.8" ry="9.5"/><path fill="url(#o4knbk8ukr)" d="M14.17 11.45l5.32 8.85c0 1.1-.36 1.93-1.06 2.47-.7.53-1.87.7-3.52.47l-4.31-5.58A9.94 9.94 0 0 1 12.04 14c.71-1.1 1.42-1.96 2.13-2.56z"/><path fill="url(#5zgbr0kxus)" d="M14.03 47.24l5.02-7.95c-.31-.8-.8-1.55-1.48-2.23a10.6 10.6 0 0 0-1.85-1.55l-5.6 4.6a9.3 9.3 0 0 0 1.25 4.15 9.36 9.36 0 0 0 2.66 2.98z"/></g></g><path stroke="url(#9dos5ter7t)" stroke-linecap="round" stroke-linejoin="round" stroke-width="4" d="M471.97 125c-1.3-6.64-1.3-10.92 0-12.83 1.94-2.87 9.59 6.23 13.11 4.24 3.52-1.98-1.62-6.84 0-10 1.62-3.14 9.84 1.75 11.36-2.76 1-3.01.2-6.04-2.46-9.1"/><g><path fill="#0E0E17" stroke="#4E4E7F" stroke-linecap="round" stroke-linejoin="round" d="M294.89 105.3c1.32-2.92 3.17-11.57 3.17-13.95 0-2.38 2.64-8.7 8.47-4.69 5.84 4.01 10.96 11.04 16.46 9.86s16.5-4.46 22.53 0c6.04 4.46 7.85 10.56 7.85 13.4s.44 5.19 2.7 6.42c.68.37 2.98 1.14 5.03-2.06 2.04-3.2 9.53-17.32 16.48-14.17 5.18 2.34 2.33 9.88.9 14.17-.48 1.46-1.1 3.06-.6 4.68.5 1.62 1.26 2.15 1.93 2.37a18.37 18.37 0 0 1 6.8 3.62c5.92 4.67 7.26 8.85 8.04 15.44.78 6.58 2.1 10.03 3.2 13.2 1.09 3.17 4.88 13.55.74 15.86-4.13 2.31-26.98 3.28-35.74 2.8-8.77-.49-21.04-1.9-23.74-1.05-2.7.84-10.54 9.2-20.16 6.08-9.62-3.12-9.92-6.08-10.21-6.08-2.57.3-6.01.3-9.37-1.06-3.75-1.52-6.98-4.65-9.15-7.66-4.11-5.72-3.43-13.93-7.22-15.33-3.78-1.4-14-5.51-14-10.43s5.27-7.84 11.46-11.22c6.18-3.38 13.11-17.28 14.43-20.2z"/><path stroke="#4E4E7F" stroke-linecap="round" stroke-linejoin="round" d="M322.2 125.94c6.62-1.05 10.82-4.32 12.62-9.8 1.15-3.48.85-6.44-.4-8.91m-11.6 19.07c3.1 5.19 2.5 10.13-1.8 14.82-4.29 4.7-10.1 5.41-17.43 2.16"/><path fill="#4E4E7F" d="M316.32 128.42c-1.25-.84-2.05-2.47-.6-5.46 1.44-2.99 2.73-3.2 4.14-2.97 1.4.23 2.01 2.4 1.75 3.62-.26 1.22 1.39 1.87.78 2.77-.4.6-1.42.8-3.04.59-1.2 1.52-2.2 2-3.03 1.45z"/><path fill="#FED798" stroke="#0A0A0E" stroke-linejoin="round" stroke-width="2" d="M313.42 110.79a13.6 13.6 0 0 1 2.2-3.31c2.2-2.65 4.52-4.05 5.58-4.04 1.19 0 1.95.23 2.63.69 1.66 1.12 2.21 2.5 2.15 4-.08 1.67-1.03 3.53-2.22 5.3-1.19 1.75-2.42 3-3.8 3.47-1.28.44-2.72.3-4.43-.85-.77-.52-1.83-1.45-2.18-2.32a3.74 3.74 0 0 1 .07-2.94z"/><path fill="#000" d="M322.72 113.38c.27-.4.64-1.06.7-1.54.17-1.54-.59-2.9-2.3-4.06a5.93 5.93 0 0 0-2.86-1.03c-1.36-.1-3.93 3.42-3.5 4.53.38 1 1.13 1.96 2.2 2.67a4.71 4.71 0 0 0 3.79.83c.85-.18 1.5-.7 1.97-1.4z"/><path fill="#FED798" stroke="#0A0A0E" stroke-linejoin="round" stroke-width="2" d="M301.39 127.97c.67-1 1.84-2.1 2.98-2.88 1.45-1 2.79-1.32 3.4-1.1l.53.18c.5.16.59.2 1.13.56 1.7 1.14 2.28 2.48 2.26 3.9-.02 1.56-.9 3.3-2.09 5.07-1.2 1.77-2.43 3.15-3.82 3.7-1.27.5-2.7.43-4.4-.72a6.71 6.71 0 0 1-1.73-2.03c-.28-.46-.32-1.72.15-3.27.34-1.12.9-2.38 1.59-3.41z"/><path fill="#000" d="M308.23 134.04c.42-.62.96-1.14.86-1.9a5.55 5.55 0 0 0-2.52-3.75c-.9-.6-1.87-.95-2.8-1.05-1.42-.14-4.05 3.75-3.39 5.01.43.83 1.12 1.6 2.03 2.22a5.57 5.57 0 0 0 4.38.93c.76-.2 1.02-.84 1.44-1.46z"/><path stroke="#4E4E7F" stroke-linecap="round" stroke-linejoin="round" d="M302.89 88.98c.94 5.72 3.56 8.79 7.87 9.2M274.98 138.31c1.06-5.33 4.12-6.95 9.18-4.86M331.15 161.58c-3.7 4.74-6.65 5.83-8.86 3.28-3.33-3.83 3.32-9.6 0-12.14-1.9-1.45-7.72-1.22-11.35 2.85-2.58 2.9-5.32 7.99-2.49 15.67M371.42 149.68c7.2 0 9.22 3.16 11.82 10.66 2.6 7.5 3.88 9.24 6.64 10.66"/><g><g transform="translate(393.25 46.77)"><ellipse cx="27.04" cy="27.49" fill="#2C68DB" rx="27.04" ry="27.49"/><path fill="#FFF" fill-rule="nonzero" d="M25.86 15.71h2.62v23.22h-2.62z"/><path fill="#FFF" fill-rule="nonzero" d="M19.3 32.71a7.9 7.9 0 0 0-1 4.14c0 4.7 3.54 8.6 8.14 8.98a8.9 8.9 0 0 0 9.47-7.5 9 9 0 0 0-6.58-10.21v2.68a6.46 6.46 0 0 1 4 7.54 6.34 6.34 0 0 1-6.9 4.9 6.4 6.4 0 0 1-4.53-9.83l.46 4.26 2.53-.33-1.22-8.13-7.96 1.62.45 2.7 3.14-.82zm16.1-11.29a7.1 7.1 0 0 0 .63-3.33c0-4.7-3.54-8.6-8.13-8.98a8.9 8.9 0 0 0-9.47 7.5A9 9 0 0 0 25 26.82v-2.69a6.42 6.42 0 0 1-4.16-5.85 6.44 6.44 0 0 1 3.81-6.1 6.25 6.25 0 0 1 6.98 1.34 6.51 6.51 0 0 1 1.36 7.09l-1.4-3.78-2.33.74 2.25 7.98 7.7-2.88-.93-2.25-2.87 1z"/></g><path fill="url(#zxxmhy6udu)" stroke="#0A0A0E" stroke-linejoin="round" d="M24.42-.5c1 0 2.1.27 3 .8l18.92 10.75a5.92 5.92 0 0 1 3 5.1v21.57a6.04 6.04 0 0 1-3 5.11L27.41 53.48a6.04 6.04 0 0 1-6 0L2.5 42.75a5.93 5.93 0 0 1-3-5.1V16.15a6.04 6.04 0 0 1 3-5.1L21.5.3c.88-.52 1.9-.8 2.92-.8z" transform="translate(354.13 46.77)"/><path fill="#FFF" d="M378.48 51.16c1.08 0 2.1.32 3.06.82l14.44 8.3a6 6 0 0 1 3.05 5.23v16.55a5.99 5.99 0 0 1-3.05 5.23l-14.44 8.24c-.96.57-1.98.82-3.06.82s-2.1-.25-3.05-.82l-14.44-8.24a5.99 5.99 0 0 1-3.06-5.23V65.51A6 6 0 0 1 361 60.3l14.44-8.31a5.85 5.85 0 0 1 3.05-.82zm0 1.95c-.71 0-1.42.2-2.03.57l-14.5 8.24a4.25 4.25 0 0 0-2.1 3.6V82c0 1.51.82 2.83 2.1 3.59l14.43 8.24a4.2 4.2 0 0 0 4.2 0l14.44-8.18a4.25 4.25 0 0 0 2.1-3.59V65.51c0-1.5-.82-2.83-2.1-3.59l-14.44-8.24a4.2 4.2 0 0 0-2.1-.57zm.1 5.37c.58 0 1.15.13 1.66.5l10.36 5.9a3.2 3.2 0 0 1 1.65 2.81v11.78c0 1.12-.63 2.25-1.65 2.81l-10.36 5.9c-.51.3-1.08.43-1.65.43a3.1 3.1 0 0 1-1.66-.44l-10.36-5.88a3.2 3.2 0 0 1-1.65-2.82V67.63c0-1.13.64-2.26 1.65-2.82l10.36-5.89a3.12 3.12 0 0 1 1.66-.44zm0 1.63c-.25 0-.57.07-.82.25l-10.3 5.89c-.5.31-.82.88-.82 1.44v11.84c0 .62.31 1.12.82 1.44l10.36 5.89c.26.18.51.25.83.25.32 0 .57-.13.83-.25l10.36-5.9c.5-.3.81-.84.82-1.43V67.69c0-.63-.32-1.13-.82-1.44l-10.43-5.89a1.3 1.3 0 0 0-.82-.25zm.11 5.7c.32 0 .57.06.82.25l5.34 3c.5.31.81.86.83 1.45v6.08c0 .62-.32 1.12-.83 1.44l-5.34 3c-.25.2-.5.26-.82.26a2.1 2.1 0 0 1-.83-.25l-5.33-3.01c-.51-.32-.83-.88-.83-1.44V70.5c0-.63.32-1.13.83-1.45l5.33-3c.26-.2.51-.25.83-.25zm.06 1.5h-.12l-5.34 3-.06 6.21 5.4 3.14 5.46-3.01.06-6.2-5.4-3.14z"/></g></g><rect width="16.11" height="16.34" x="511.47" y="83.15" fill="url(#qmndumkfia)" stroke="#0A0A0E" stroke-linejoin="round" stroke-width="2" rx="8.05"/><rect width="14.11" height="14.34" x="324" y="26.4" fill="url(#e1lc7qf3kc)" stroke="#0A0A0E" stroke-linejoin="round" stroke-width="2" rx="7.05"/></g></svg>