<svg xmlns="http://www.w3.org/2000/svg" width="226" height="77"><defs><linearGradient id="9b9dqdf5ta" x1="9.95%" x2="90.05%" y1="21.187%" y2="60.96%"><stop offset="0%" stop-color="#EF349B"/><stop offset="100%" stop-color="#ED7FBD"/></linearGradient><linearGradient id="hd876jxq1b" x1="50%" x2="51.422%" y1="75.698%" y2="0%"><stop offset="0%" stop-color="#EE7FBD"/><stop offset="100%" stop-color="#EE379C"/></linearGradient><linearGradient id="h83pvipc0c" x1="50%" x2="29.935%" y1="0%" y2="73.569%"><stop offset="0%" stop-color="#594CF2"/><stop offset="100%" stop-color="#281BC1"/></linearGradient><linearGradient id="n5ybxxyc7d" x1="50%" x2="39.118%" y1="0%" y2="73.569%"><stop offset="0%" stop-color="#594CF2"/><stop offset="100%" stop-color="#281BC1"/></linearGradient><linearGradient id="0hju87o9ae" x1="50%" x2="28.312%" y1="36.75%" y2="56.246%"><stop offset="0%" stop-color="#594CF2"/><stop offset="100%" stop-color="#281BC1"/></linearGradient><linearGradient id="s9hddbj00f" x1="50%" x2="28.312%" y1="10.532%" y2="68.604%"><stop offset="0%" stop-color="#594CF2"/><stop offset="100%" stop-color="#281BC1"/></linearGradient><linearGradient id="kqizou9bhg" x1="50%" x2="28.312%" y1="37.36%" y2="55.958%"><stop offset="0%" stop-color="#594CF2"/><stop offset="100%" stop-color="#281BC1"/></linearGradient><linearGradient id="km8o40lj7h" x1="37.835%" x2="62.165%" y1="21.187%" y2="60.96%"><stop offset="0%" stop-color="#EF349B"/><stop offset="100%" stop-color="#ED7FBD"/></linearGradient><linearGradient id="aymavw8z7i" x1="46.491%" x2="53.509%" y1="21.187%" y2="60.96%"><stop offset="0%" stop-color="#EF349B"/><stop offset="100%" stop-color="#ED7FBD"/></linearGradient><linearGradient id="q33idw5syj" x1="50%" x2="51.433%" y1="75.698%" y2="0%"><stop offset="0%" stop-color="#EE7FBD"/><stop offset="100%" stop-color="#EE379C"/></linearGradient><linearGradient id="3ko99rqz9k" x1="50%" x2="28.312%" y1="37.592%" y2="55.849%"><stop offset="0%" stop-color="#594CF2"/><stop offset="100%" stop-color="#281BC1"/></linearGradient><linearGradient id="b0s0d9306l" x1="46.463%" x2="53.537%" y1="21.187%" y2="60.96%"><stop offset="0%" stop-color="#EF349B"/><stop offset="100%" stop-color="#ED7FBD"/></linearGradient><linearGradient id="j5n31j5dhm" x1="50%" x2="52.942%" y1="75.698%" y2="0%"><stop offset="0%" stop-color="#EE7FBD"/><stop offset="100%" stop-color="#EE379C"/></linearGradient><linearGradient id="tfak7tvf7n" x1="50%" x2="41.433%" y1="0%" y2="73.569%"><stop offset="0%" stop-color="#594CF2"/><stop offset="100%" stop-color="#281BC1"/></linearGradient></defs><g fill="none" fill-rule="evenodd"><path fill="#212131" fill-opacity=".01" d="M0 0h225.946v76.671H0z"/><path fill="url(#9b9dqdf5ta)" stroke="#0A0A0E" d="M27.241 37.356a9.147 9.147 0 0 1 5.787 1.411c1.69 1.08 3.212 2.854 4.17 4.524.534.93.892 1.827 1.024 2.56.16.888-.026 1.535-.444 1.894-.414.356-.804.577-1.216.66-.398.08-.824.037-1.32-.175-.818-.35-1.885-1.218-3.498-2.799-.71-.695-1.48-1.137-2.268-1.325a3.802 3.802 0 0 0-2.36.199c-1.558.643-2.938 2.271-3.8 4.751-1.004 2.895-1.462 5.831-1.828 8.168-.325 2.076-.6 3.695-1.069 4.474-.398.664-.948 1.088-1.641 1.284-.723.203-1.618.15-2.69-.196l-.996-13.992c2.013-4.132 4.163-7.131 6.433-9.01 1.736-1.436 3.725-2.25 5.716-2.428z" transform="translate(143.935 6.457)"/><path stroke="url(#hd876jxq1b)" stroke-linecap="round" stroke-linejoin="round" stroke-width="2" d="M17.242 60.455c-3.84-19.775-2.307-32.94 4.602-39.495" transform="translate(143.935 6.457)"/><g stroke="#0A0A0E" stroke-linejoin="round"><path fill="url(#h83pvipc0c)" d="M25.525 23.192c5.685 0 10.604 1.747 14.76 5.234 2.394 2.009 3.883 4.734 4.744 7.374a20.83 20.83 0 0 1 .99 5.17c.054.944.023 1.754-.063 2.36-.13.911-.448 1.357-.697 1.48-.67.328-5.165.33-9.87-1.393-2.716-.994-5.488-2.548-7.585-4.895-.561-.628-1.53-5.513-2.774-14.763l-.075-.561c.19-.004.38-.006.57-.006z" transform="translate(165.788 6.457)"/><path fill="url(#n5ybxxyc7d)" d="M14.397 21.562c5.471-.977 9.786.998 13.353 5.598 2.056 2.652 2.892 5.74 3.056 8.581a19.185 19.185 0 0 1-.44 5.314c-.484 2.105-1.277 3.476-1.799 3.76-.877.476-3.448.369-6.419-1.425-1.89-1.142-3.935-2.951-5.725-5.677-2.946-4.482-3.634-9.863-2.026-16.151z" transform="translate(165.788 6.457)"/><path fill="url(#0hju87o9ae)" stroke-linecap="round" d="M17.957 14.286c9.1-4.77 16.575-5.923 22.43-3.57 3.403 1.368 5.86 3.098 7.566 4.776 2.766 2.718 3.527 5.292 3.308 6.198-.126.526-1.376 1.655-3.514 2.747a27.947 27.947 0 0 1-5.683 2.132c-3.125.797-6.67 1.1-9.972.217-7.739-2.069-10.962-6.83-13.287-10.284-.357-.53-.692-1.028-1.02-1.479-.11-.152-.226-.306-.344-.464l.516-.273z" transform="translate(165.788 6.457)"/><path fill="url(#s9hddbj00f)" d="M7.276 17.869c2.024-5.083 4.677-9.228 7.96-12.435C20.163.624 28.783-1.322 30.334.94c1.551 2.261.148 9.43-4.568 14.447-2.588 2.752-6.504 4.562-9.718 5.636" transform="translate(165.788 6.457)"/><path fill="url(#kqizou9bhg)" d="M.034 20.408c4.215-4.834 8.589-6.64 13.181-6.08 3.076.375 5.238 1.005 6.689 1.731.893.447 1.527.936 1.951 1.426.531.612.75 1.238.75 1.819 0 .612-.419 1.608-1.344 2.658-.691.784-1.66 1.605-2.906 2.308-1.857 1.049-4.333 1.837-7.417 1.837-2.551 0-4.73-.477-6.539-1.418-1.83-.951-3.286-2.377-4.365-4.28z" transform="translate(165.788 6.457)"/></g><path fill="url(#km8o40lj7h)" stroke="#0A0A0E" d="M2.541 6.33a7.73 7.73 0 0 1 3.643.766c1.744.843 3.417 2.461 4.3 5.295.517 1.659 1.116 4.291 1.794 7.898-2.071 6.635-3.763 10.036-4.947 10.656-1.649-.296-1.888-.782-2.117-1.461-.376-1.113-.652-2.933-.816-5.466-.61-9.448-2.751-12.2-3.933-13.695-.793-1.004-1.15-1.562-.75-2.698.121-.347.479-.707 1.087-.953.456-.184 1.056-.313 1.74-.342z" transform="translate(143.935 6.457)"/><path fill="url(#aymavw8z7i)" stroke="#0A0A0E" d="M14.2 12.077c.756-.471 1.44-.608 2.003-.458.522.14.86.467 1.044.964.155.42.187.987.098 1.683-.195 1.526-.966 3.741-1.856 6.279-1.43 4.077-3.174 9.012-3.15 13.213.04 6.902 1.223 10.668 2.225 13.855.266.847.52 1.654.736 2.468.258.967.849 2.235 1.485 3.61.205.444.415.9.623 1.362 1.064 2.415 1.893 4.745 1.721 6.46-.08.791-.36 1.464-.884 1.986-.468.467-1.138.82-2.074 1.005-1.421.28-2.816-.322-4.115-1.638-1.325-1.342-2.554-3.433-3.617-5.923-2.455-5.756-4.042-13.657-4.042-19.125 0-6.179 1.558-12.146 3.584-16.808 1.274-2.93 2.733-5.345 4.106-6.983.74-.882 1.459-1.543 2.113-1.95z" transform="translate(143.935 6.457)"/><g><path stroke="url(#q33idw5syj)" stroke-linecap="round" stroke-linejoin="round" stroke-width="2" d="M12.392 48.408c-3.825-19.615-2.298-32.673 4.583-39.174" transform="translate(54.788 18.537)"/><path fill="url(#3ko99rqz9k)" stroke="#0A0A0E" stroke-linejoin="round" d="M-.141 9.038C6.232 2.168 12.819-.514 19.678.32c4.23.514 7.309 1.483 9.467 2.559 1.415.705 2.442 1.46 3.147 2.168.968.972 1.338 1.878 1.338 2.505 0 .654-.73 2.188-2.329 3.872-1.089 1.147-2.569 2.372-4.437 3.423-2.715 1.527-6.251 2.684-10.593 2.684-7.641 0-13.101-2.847-16.412-8.493z" transform="translate(71.771 18.537)"/><path fill="url(#b0s0d9306l)" stroke="#0A0A0E" d="M9.361.419c.754-.468 1.435-.604 1.996-.454.52.138.858.464 1.041.958.155.416.187.98.098 1.672-.194 1.514-.961 3.711-1.848 6.228-1.425 4.044-3.161 8.939-3.137 13.104.04 6.845 1.218 10.58 2.215 13.741.265.84.518 1.641.734 2.448.257.959.845 2.217 1.478 3.58 1.153 2.484 2.432 5.3 2.38 7.384-.023.88-.271 1.638-.803 2.227-.47.522-1.173.92-2.19 1.12-1.416.28-2.805-.32-4.098-1.624-1.32-1.332-2.545-3.406-3.603-5.877C1.178 39.216-.402 31.38-.402 25.955c0-6.13 1.551-12.05 3.57-16.674C4.436 6.374 5.89 3.978 7.257 2.354 7.994 1.478 8.71.823 9.36.419z" transform="translate(54.788 18.537)"/></g><g stroke-linejoin="round"><path stroke="url(#j5n31j5dhm)" stroke-linecap="round" stroke-width="2" d="M3.938 24.775s-1.221 2.176-1.221 6.098c0 1.729.392 3.5 1.177 5.315" transform="translate(1.685 32.257)"/><path fill="url(#tfak7tvf7n)" stroke="#0A0A0E" d="M13.207-.067c.058.16.115.322.172.486 2.023 5.81 2.474 11.028 1.376 15.656-.566 2.387-1.725 4.294-3.467 5.728-1.72 1.414-4.016 2.368-6.899 2.842-2.346-1.563-3.66-3.33-4.334-5.388-.67-2.042-.707-4.376-.096-7.003C1.164 7.074 5.386 3.004 12.724.118c.162-.064.323-.126.483-.185z" transform="translate(1.685 32.257)"/></g></g></svg>