<svg xmlns="http://www.w3.org/2000/svg" xmlns:xlink="http://www.w3.org/1999/xlink" width="198" height="117"><defs><linearGradient id="c" x1="100%" x2="0%" y1="50%" y2="50%"><stop offset="0%" stop-color="#5346E6"/><stop offset="100%" stop-color="#EF359C"/></linearGradient><linearGradient id="d" x1="91.69%" x2="0%" y1="50%" y2="50%"><stop offset="0%" stop-color="#4136DE"/><stop offset="100%" stop-color="#8183FF"/></linearGradient><path id="a" d="M6 0h186a6 6 0 0 1 6 6v105a6 6 0 0 1-6 6H6a6 6 0 0 1-6-6V6a6 6 0 0 1 6-6z"/></defs><g fill="none" fill-rule="evenodd"><mask id="b" fill="#fff"><use xlink:href="#a"/></mask><g mask="url(#b)"><path d="M-5.94 81.15L87 27.49l53.6 92.85-92.94 53.65z"/><path fill="url(#c)" d="M53.5 0c1.86 0 3.89.49 5.58 1.47L97.4 22.86a10.78 10.78 0 0 1 5.57 9.3V75.1c0 3.76-2.2 7.35-5.57 9.3l-38.34 21.23a11.37 11.37 0 0 1-11.15 0L9.61 84.24a10.78 10.78 0 0 1-5.57-9.3V32.16c0-3.75 2.2-7.35 5.57-9.3L48.1 1.47C49.73.51 51.6 0 53.5 0z" transform="rotate(-30 148.45 51.66)"/><path fill="#FFF" d="M44.65 62.04c1.9-1.1 4-1.58 6.17-1.68l33.61-.3A11.9 11.9 0 0 1 95 65.95l16.48 28.55a11.9 11.9 0 0 1-.16 12.1l-17.13 28.85a12.02 12.02 0 0 1-4.54 4.5c-1.9 1.1-3.94 1.7-6.18 1.68l-33.55.42a11.9 11.9 0 0 1-10.55-5.91L22.88 107.6a11.9 11.9 0 0 1 .15-12.1L40.1 66.55a12 12 0 0 1 4.55-4.5zm1.94 3.36a8.17 8.17 0 0 0-3 3.04L26.33 97.36a8.43 8.43 0 0 0-.12 8.31l16.42 28.43a8.28 8.28 0 0 0 7.26 4.06l33.55-.41a8.66 8.66 0 0 0 7.36-4.26l17.2-28.74a8.44 8.44 0 0 0 .11-8.3L91.64 67.9a8.28 8.28 0 0 0-7.25-4.06l-33.55.41c-1.5 0-3.02.45-4.25 1.15zm5.53 9.16c1-.57 2.13-.94 3.4-.8l24.04-.35a6.36 6.36 0 0 1 5.7 3.18L97 96.9a6.51 6.51 0 0 1-.1 6.54l-12.32 20.65a6.4 6.4 0 0 1-2.46 2.43c-1 .58-2.13.94-3.34.92l-24.04.34a6.36 6.36 0 0 1-5.7-3.18l-11.79-20.41a6.51 6.51 0 0 1 .1-6.54L49.66 77a6.38 6.38 0 0 1 2.46-2.43zm1.62 2.81a2.9 2.9 0 0 0-1.2 1.27l-12.2 20.59a3.43 3.43 0 0 0-.02 3.31l11.78 20.42A3.28 3.28 0 0 0 55 124.6l24.04-.35c.63.07 1.14-.08 1.7-.4.55-.33.87-.8 1.2-1.27l12.32-20.65c.57-1.05.58-2.3.01-3.32L82.47 78.2a3.28 3.28 0 0 0-2.88-1.65l-24.15.4a2.65 2.65 0 0 0-1.7.41zm5.85 9.71a2.63 2.63 0 0 1 1.7-.4l12.36-.22c1.19.03 2.27.65 2.88 1.65l6.05 10.48a3.28 3.28 0 0 1-.01 3.33L76.2 112.5c-.26.58-.64.95-1.2 1.27a4.3 4.3 0 0 1-1.7.4l-12.36.22a3.44 3.44 0 0 1-2.88-1.65l-6.05-10.48a3.28 3.28 0 0 1 .01-3.32l6.37-10.6c.26-.58.64-.94 1.2-1.27zm1.6 2.53l-.21.13-6.37 10.6 6.06 10.76 12.6-.07 6.59-10.72-6.07-10.76-12.6.07z"/><g><path d="M102.88 18.8l123.3 21.74-21.72 123.18-123.3-21.74z"/><path fill="url(#d)" d="M62.54.1c2.17 0 4.54.56 6.5 1.71l44.75 24.95c3.95 2.28 6.5 6.28 6.5 10.85V87.7c0 4.38-2.55 8.57-6.5 10.85l-44.74 24.76a13.28 13.28 0 0 1-13 0L11.29 98.36c-3.95-2.29-6.51-6.28-6.51-10.86V37.61c0-4.38 2.56-8.57 6.5-10.85L56.25 1.8a12.54 12.54 0 0 1 6.3-1.72z" transform="rotate(10 -56 597.37)"/><path fill="#FFF" d="M159.29 52.6l-1.14 6.45 3.22.57 1.14-6.45 1.87.35c1.81.37 3.45.87 4.94 1.47l-1.03 5.85 3.22.56.87-4.91c6.91 4.06 9.41 10.82 9.52 17.2l-16-2.82-.57 3.22 16.42 2.9-.11.88-.07.4-.04.26-.16.92-.08.47-.14.79-.16.9-16.47-2.9-.57 3.22 16.48 2.9c4.64 1 7.77 5.1 7.03 9.32a7.48 7.48 0 0 1-3.19 4.85l-2.21 12.56c-1.34 7.56-6.07 12.72-9.84 15.5a30.73 30.73 0 0 1-13.4 5.25l.06-.24c-1.07 4.96-3.51 7.17-7.34 6.6l-.24-.04-3.73-.66-2.1 11.96-3.23-.57 2.1-11.96-3.32-.58c-4.1-.72-5.82-3.59-5.19-8.6-4.41-1.95-8.53-4.86-11.17-8.47a24.3 24.3 0 0 1-4.43-17.9l.08-.43 2.3-13.07a7.52 7.52 0 0 1-1.52-5.9c.75-4.24 5.1-7.02 9.82-6.34v-.01l16.45 2.9.57-3.22-16.44-2.9a131.4 131.4 0 0 1 .92-4.6l16.33 2.89.57-3.23-15.93-2.8c2.31-6.29 6.93-11.88 15.54-13.04l-.91 5.16 3.23.57 1.05-5.96c1.47 0 3.04.11 4.72.35l2.28.38zm-20.5 76.77v.03c-.18 2.82.85 4.16 3.8 4.68l8.17 1.44c1.96.35 3.33.2 4.33-1.09.4-.5.48-1.17.63-1.94-.96-.02-1.9-.1-2.85-.27l-2.6-.47-.75-.14-2.14-.36c-.25-.04-1.02-.14-2.22-.34l-.46-.08-2.25-.45c-1.2-.25-2.43-.6-3.66-1zM127.6 95l16.43 2.9.57-3.23-16.44-2.9-.1-.03a9.8 9.8 0 0 1-2.6-.96l-1.84 10.48a21.5 21.5 0 0 0 3.42 15.55c3.45 4.91 9.73 9.2 15.33 10.16l2.74.47.53.1 1.16.2.92.17.07.02.17.03c2.86.46 4.4.74 6.11.94 5.43.65 11.98-1.55 15.88-4.53 3.9-2.98 7.89-7.07 9-13.36l1.86-10.58c-.98.18-2.03.21-3.1.07h-.03l-16.5-2.9-.56 3.22 16.48 2.9-.12.7-.57 3.26-.12.65-16.48-2.9-.57 3.22 16.35 2.89c-1.93 6.32-7.47 11.7-15.27 13.37l.71-4.06-3.22-.57-.9 5.1a27.33 27.33 0 0 1-7.06-.43l1.04-5.9-3.22-.56-1.04 5.9-1.86-.35a29.94 29.94 0 0 1-4.95-1.47l.93-5.3-3.22-.57-.78 4.4c-7.49-4.2-10.82-11.38-10.4-18.25l16.3 2.88.57-3.23-16.42-2.9.06-.31.74-4.3zm27.76-11.85a1.48 1.48 0 0 0-.8.06l-3.94 1.42-.14.06c-.44.2-.76.6-.85 1.1l-.72 4.08-.02.14c-.03.49.17.97.55 1.28l3.23 2.67.13.1c.18.12.38.2.6.23.26.05.53.03.79-.07l3.94-1.4.14-.05c.45-.2.76-.62.85-1.1l.72-4.09.02-.14a1.5 1.5 0 0 0-.55-1.28l-3.23-2.68-.13-.1c-.18-.11-.37-.2-.59-.23zm24.5 4.92l-.57 3.21-10.02-1.77-.57 3.23 10.02 1.77-.46 2.62.96.16c2.3-.13 4.25-1.64 4.63-3.78.43-2.44-1.34-4.81-4-5.44zm-49.69-8.77c-2.95-.52-5.71 1.12-6.16 3.66-.38 2.14 1 4.24 3.2 5.16l1.36.24.47-2.61 10.64 1.87.57-3.22-10.65-1.88.57-3.22z"/></g></g></g></svg>