<svg xmlns="http://www.w3.org/2000/svg" xmlns:xlink="http://www.w3.org/1999/xlink" width="110" height="125" viewBox="0 0 110 125">
    <defs>
        <linearGradient id="ekc7vklj9c" x1="91.693%" x2="0%" y1="50%" y2="50%">
            <stop offset="0%" stop-color="#4136DE"/>
            <stop offset="100%" stop-color="#8183FF"/>
        </linearGradient>
        <rect id="qzzngbchea" width="110" height="125" x="0" y="0" rx="6"/>
    </defs>
    <g fill="none" fill-rule="evenodd">
        <g>
            <g transform="translate(-244 -1176) translate(244 1176)">
                <mask id="efzr1qfl9b" fill="#fff">
                    <use xlink:href="#qzzngbchea"/>
                </mask>
                <g mask="url(#efzr1qfl9b)">
                    <g>
                        <path fill="url(#ekc7vklj9c)" d="M77.577.249c2.904 0 6.071.761 8.708 2.288l59.908 33.295c5.279 3.05 8.708 8.388 8.708 14.487v66.842c0 5.844-3.43 11.437-8.708 14.486l-59.908 33.04c-2.632 1.522-5.644 2.313-8.708 2.285-3.059-.006-6.062-.794-8.708-2.285L8.965 131.392C3.687 128.34.253 123.005.253 116.905V50.32c0-5.848 3.434-11.441 8.712-14.487L69.132 2.537c2.55-1.49 5.469-2.28 8.445-2.288z" transform="translate(5.915 1)"/>
                        <path fill="#FFF" d="M76.07 31.476l-.001 8.737h4.386v-8.735l.24.001c1.026.005 1.994.012 2.301.02 2.476.071 4.758.342 6.858.785v7.929h4.386v-6.667c10.057 3.746 14.923 12.049 16.55 20.404H89.038v4.371h22.32c.027.398.047.794.06 1.188.001.017.002.065.002.144l.001.14.002.534.001.286.001.5.001.379v.203l.001.431.001.71v.513l.001.268.001.558v.389l-22.392.002v4.37h22.397v.009c6.359.218 11.438 4.884 11.438 10.607 0 2.74-1.164 5.237-3.074 7.12v17.017c0 10.242-5.044 18.124-9.36 22.66-3.168 3.33-9.41 7.836-16.45 9.999-.323 6.577-3.046 9.925-8.169 10.042l-.282.003h-5.065v16.21h-4.386v-16.21h-4.523c-5.559 0-8.504-3.364-8.837-10.094-6.272-1.544-12.383-4.414-16.7-8.552-6.327-6.067-9.864-14.387-9.997-22.59l-.004-.483V86.96c-2.092-1.913-3.38-4.527-3.38-7.409 0-5.734 5.099-10.406 11.473-10.608v-.008h22.362v-4.37H44.14c.016-2.376.042-4.169.08-5.057.017-.395.04-.79.067-1.187h22.195V53.95H44.825c1.59-8.791 6.383-17.211 17.458-20.737l.001 7h4.386V32.14c1.943-.345 4.043-.562 6.31-.634.465-.015 1.882-.025 3.09-.03zm-9.178 105.651l.021.185c.452 3.633 2.13 5.128 6.074 5.128h11.116c2.665 0 4.438-.505 5.46-2.439.398-.755.36-1.656.374-2.703-1.109.176-2.226.282-3.344.305l-.468.005h-.459c-.567-.002-1.04-.006-1.5-.01l-.344-.004c-.458-.005-.922-.009-1.472-.01h-.9c-.737.002-1.632.009-2.8.024-.326.004-1.362.053-2.976.06h-.529c-.913 0-1.981-.017-3.186-.06-1.651-.06-3.352-.22-5.067-.481zm48.681-47.783c-1.278.479-2.669.764-4.127.815v.008H89.037v4.372h22.41v6.243l-22.41.001v4.371h22.238c-1.078 8.76-7.141 17.104-17.035 21.113l-.001-5.502h-4.386v6.923c-2.371.588-4.915.948-7.62 1.038-.267.009-.988.016-1.78.021v-7.982H76.07v7.988l-.197-.001-.493-.003c-.817-.004-1.58-.01-1.84-.018-2.438-.075-4.728-.345-6.869-.785v-7.181h-4.386l-.001 5.974c-10.85-3.797-16.918-12.457-17.953-21.585h22.151v-4.371H44.17c-.003-1.597-.01-3.75-.017-6.244h22.328v-4.371h-22.34v-.007l.41.007c-1.477 0-2.892-.24-4.198-.68l.001 14.2c0 6.118 2.432 13.98 8.123 19.644 5.691 5.665 14.967 9.848 22.58 9.81 1.718-.008 3.023-.012 4.02-.014h1.826c1.028.003 1.333.01 1.512.013l.04.001h.195c3.891-.052 5.968-.042 8.284-.173 7.306-.412 15.438-4.815 19.883-9.637 4.445-4.82 8.756-11.123 8.756-19.643V89.344zM77.995 72.53c-.365 0-.71.084-1.031.273l-4.877 2.777-.142.088c-.554.37-.89.99-.889 1.658v5.533l.007.166c.054.658.436 1.252 1.024 1.58l4.877 2.757.162.086c.275.129.564.187.869.187.365 0 .708-.084 1.03-.273l4.877-2.757.143-.087c.553-.371.889-.991.888-1.659v-5.533l-.007-.165c-.054-.659-.435-1.253-1.024-1.58l-4.876-2.778-.163-.079c-.275-.121-.564-.194-.868-.194zm33.443.793v.75l.001 1.216v.616l.001 1.242v.532H97.81v4.372h13.632l.001 1.405v.314l.001 1.826h1.299c3.008-.701 5.228-3.14 5.228-6.043 0-3.308-2.885-6.015-6.533-6.23zm-67.548-.014c-4.018 0-7.275 2.796-7.275 6.244 0 2.902 2.306 5.342 5.431 6.042l1.843-.001v-3.544h14.474v-4.37H43.889v-4.371z" transform="translate(5.915 1)"/>
                    </g>
                </g>
            </g>
        </g>
    </g>
</svg>
