<svg xmlns="http://www.w3.org/2000/svg" width="99" height="85"><defs><linearGradient id="a" x1="50%" y1="59.65%" y2="31.22%"><stop offset="0%" stop-color="#EE7FBD"/><stop offset="100%" stop-color="#EE379C"/></linearGradient><linearGradient id="b" x1="100%" x2="0%" y1="50%" y2="50%"><stop offset="0%" stop-color="#5346E6"/><stop offset="100%" stop-color="#EF359C"/></linearGradient></defs><g fill="none" fill-rule="evenodd"><path d="M0 0s3.42 8.33 17.47 19.53c14.05 11.2 31.44 10.43 31.44 10.43" stroke="url(#a)" stroke-linecap="round" stroke-linejoin="round" stroke-width="2" transform="translate(48.68 53.24)"/><path d="M1.72 26.68L46.68.72l25.95 44.96-44.95 25.95z"/><path fill="url(#b)" d="M25.88 0c.9 0 1.88.24 2.7.71l18.54 10.36c1.63.95 2.7 2.6 2.7 4.5v20.8a5.32 5.32 0 0 1-2.7 4.5L28.58 51.15a5.48 5.48 0 0 1-5.4 0L4.65 40.79a5.22 5.22 0 0 1-2.7-4.5V15.56a5.32 5.32 0 0 1 2.7-4.5L23.27.7c.79-.46 1.69-.7 2.61-.71z" transform="rotate(-30 50.65 10.12)"/><path fill="#FFF" d="M26.2 17.44a6.47 6.47 0 0 1 2.98-.81l16.27-.14a5.76 5.76 0 0 1 5.1 2.86l7.99 13.82a5.76 5.76 0 0 1-.08 5.86l-8.28 13.96a5.8 5.8 0 0 1-2.2 2.18 5.8 5.8 0 0 1-2.99.81l-16.23.2a5.76 5.76 0 0 1-5.1-2.87L15.66 39.5a5.75 5.75 0 0 1 .08-5.86L24 19.62a5.81 5.81 0 0 1 2.2-2.18zm.94 1.63c-.61.35-1.11.86-1.46 1.47l-8.34 14a4.08 4.08 0 0 0-.05 4.02l7.95 13.76a4.01 4.01 0 0 0 3.51 1.97l16.23-.2a4.17 4.17 0 0 0 3.57-2.05l8.31-13.9c.72-1.26.75-2.82.06-4.03l-7.98-13.82a4 4 0 0 0-3.51-1.97l-16.24.2c-.72-.01-1.46.2-2.05.55zm2.67 4.43a2.67 2.67 0 0 1 1.65-.39l11.63-.16a3.08 3.08 0 0 1 2.76 1.54l5.68 9.84c.54.94.54 2.19-.05 3.16l-5.95 10c-.28.5-.7.89-1.2 1.17s-1.02.45-1.6.44l-11.64.16a3.08 3.08 0 0 1-2.76-1.54l-5.7-9.88c-.55-.95-.55-2.2.04-3.17l5.95-9.99c.28-.51.7-.9 1.2-1.18zm.79 1.36a1.4 1.4 0 0 0-.58.62l-5.9 9.96a1.66 1.66 0 0 0-.01 1.6l5.7 9.9c.3.51.82.78 1.4.79l11.63-.16c.31.03.56-.04.83-.2.26-.15.42-.38.58-.61l5.95-10c.28-.5.28-1.1 0-1.6l-5.7-9.89c-.3-.52-.81-.78-1.4-.8l-11.68.2c-.3-.03-.55.04-.82.2zm2.83 4.7c.27-.15.52-.22.82-.19l5.98-.1c.58.01 1.1.31 1.4.8l2.93 5.07c.3.53.27 1.1 0 1.61l-3.09 5.13c-.12.28-.3.46-.58.61a2.1 2.1 0 0 1-.82.2l-5.98.1a1.67 1.67 0 0 1-1.4-.8l-2.92-5.07a1.6 1.6 0 0 1 0-1.61l3.08-5.13c.13-.28.31-.46.58-.61zm.78 1.23l-.1.06-3.09 5.13 2.94 5.21 6.1-.03 3.18-5.18-2.94-5.22-6.09.03z"/></g></svg>