<svg xmlns="http://www.w3.org/2000/svg" xmlns:xlink="http://www.w3.org/1999/xlink" width="254" height="200" viewBox="0 0 254 200">
    <defs>
        <linearGradient id="xbhqor0poc" x1="81.522%" x2="41.563%" y1="25.461%" y2="92.32%">
            <stop offset="0%" stop-color="#594CF2"/>
            <stop offset="100%" stop-color="#281BC1"/>
        </linearGradient>
        <linearGradient id="4wlxr74n2d" x1="41.983%" x2="55.852%" y1="6.541%" y2="91.419%">
            <stop offset="0%" stop-color="#594CF2"/>
            <stop offset="100%" stop-color="#281BC1"/>
        </linearGradient>
        <linearGradient id="nm6l0ov6ce" x1="50%" x2="42.404%" y1="0%" y2="73.569%">
            <stop offset="0%" stop-color="#594CF2"/>
            <stop offset="100%" stop-color="#281BC1"/>
        </linearGradient>
        <linearGradient id="t98leyckmf" x1="13.719%" x2="71.361%" y1="32.84%" y2="50%">
            <stop offset="0%" stop-color="#EF349B"/>
            <stop offset="61.792%" stop-color="#EE74B8"/>
            <stop offset="100%" stop-color="#F74AAB"/>
        </linearGradient>
        <linearGradient id="9suwmew8sg" x1="81.522%" x2="27.604%" y1="25.716%" y2="69.579%">
            <stop offset="0%" stop-color="#594CF2"/>
            <stop offset="100%" stop-color="#281BC1"/>
        </linearGradient>
        <linearGradient id="42taib26jh" x1="61.381%" x2="46.954%" y1="21.008%" y2="100%">
            <stop offset="0%" stop-color="#594CF2"/>
            <stop offset="100%" stop-color="#281BC1"/>
        </linearGradient>
        <linearGradient id="8gvcx0ru2i" x1="55.248%" x2="41.739%" y1="17.557%" y2="64.894%">
            <stop offset="0%" stop-color="#594CF2"/>
            <stop offset="100%" stop-color="#281BC1"/>
        </linearGradient>
        <linearGradient id="lbzujkum2j" x1="12.838%" x2="71.879%" y1="32.84%" y2="50%">
            <stop offset="0%" stop-color="#EF349B"/>
            <stop offset="61.792%" stop-color="#EE74B8"/>
            <stop offset="100%" stop-color="#F74AAB"/>
        </linearGradient>
        <linearGradient id="2bhszr9jsk" x1="65.731%" x2="8.87%" y1="31.527%" y2="91.496%">
            <stop offset="0%" stop-color="#6B5EFF"/>
            <stop offset="100%" stop-color="#281BC1"/>
        </linearGradient>
        <linearGradient id="mut1jrnx0l" x1="46.926%" x2="53.162%" y1="19.855%" y2="88.814%">
            <stop offset="0%" stop-color="#594CF2"/>
            <stop offset="100%" stop-color="#281BC1"/>
        </linearGradient>
        <linearGradient id="5ktmnyd5am" x1="60.494%" x2="47.191%" y1="21.008%" y2="100%">
            <stop offset="0%" stop-color="#594CF2"/>
            <stop offset="100%" stop-color="#281BC1"/>
        </linearGradient>
        <linearGradient id="rrr4tgzn7n" x1="16.25%" x2="69.87%" y1="32.84%" y2="50%">
            <stop offset="0%" stop-color="#EF349B"/>
            <stop offset="61.792%" stop-color="#EE74B8"/>
            <stop offset="100%" stop-color="#F74AAB"/>
        </linearGradient>
        <rect id="w4j0yu9oha" width="254" height="200" x="0" y="0" rx="6"/>
    </defs>
    <g fill="none" fill-rule="evenodd">
        <g>
            <g transform="translate(-549 -436) translate(549 436)">
                <mask id="t2ktdwuhtb" fill="#fff">
                    <use xlink:href="#w4j0yu9oha"/>
                </mask>
                <g mask="url(#t2ktdwuhtb)">
                    <g stroke="#0A0A0E" stroke-width="2">
                        <g>
                            <path fill="url(#xbhqor0poc)" d="M75.742 123.507h-7.717c9.212-18.423 15.406-29.378 18.582-32.863 4.766-5.229 10.405-24.665 17.42-28.883 7.015-4.218 8.386 4.218 11.3 0 2.913-4.218 15.188-14 22.07-14.99 6.881-.988 11.193-1.748 13.932 3.329 2.738 5.076-1.6 12.546-3.123 17.96-1.523 5.414-10.81 13.08-10.81 20.29 0 7.21-16.2 3.676-19.113 9.008-2.914 5.332-9.051 4.087-23.01 6.808-9.307 1.813-15.817 8.26-19.53 19.341z" transform="translate(33 -10) rotate(10 28.661 344.269)"/>
                            <path fill="url(#4wlxr74n2d)" d="M60.698 122.432l2.39-20.697c-2.158-6.893-6.745-10.339-13.761-10.339-10.523 0-14.452-6.998-12.488-9.596 1.965-2.597 8.455.106 8.455-3.825 0-3.93-21.756-9.205-21.756-18.15 0-8.944 10.255-.345 10.255-6.43 0-6.083-16.752-14.972-4.971-23.136 11.78-8.163 20.363 9.03 22.951 9.03 2.588 0 7.821-6.165 14.894-6.165 7.072 0-4.31 29.697 0 29.697s7.329-7.782 13.003-5.388c5.675 2.393-6.385 20.418-6.385 27.19 0 4.516-3.393 17.512-10.18 38.989l-2.407-1.18z" transform="translate(33 -10) rotate(10 28.661 344.269)"/>
                            <path fill="url(#nm6l0ov6ce)" d="M67.137 123.834c4.807-29.763 6.41-46.677 4.807-50.742-2.403-6.097-13.496-40.527-4.807-49.459 8.689-8.932 10.112 2.044 17.555-3.444C92.134 14.7 97.205 3.81 102.47 6.568c5.266 2.756 7.544 6.043 13.63 0 6.086-6.043 21.049-11.096 21.049 0 0 11.095-18.177 19.125-18.177 24.405 0 5.28 10.285 8.552 0 16.152-10.286 7.6-30.2 18.591-30.2 25.967 0 7.376 8.137 3.376 8.137 11.39 0 8.013-11.329 11.276-16.361 19.256-3.355 5.319-6.223 12.018-8.604 20.096h-4.807z" transform="translate(33 -10) rotate(10 28.661 344.269)"/>
                            <path fill="url(#t98leyckmf)" d="M42.256 121.858c20.175-6.45 36.28-3.673 50.037 15.95 13.758 19.622 5.347 39.206 0 53.552-3.564 9.564-9.928 24.36-19.092 44.39H.11c8.866-30.886 13.3-50.628 13.3-59.226 0-12.897 8.67-48.218 28.845-54.666z" transform="translate(33 -10) rotate(10 28.661 344.269)"/>
                        </g>
                        <g>
                            <path fill="url(#9suwmew8sg)" d="M62.843 102.412h-6.41c7.651-15.279 12.796-24.363 15.435-27.254 3.958-4.336 8.641-20.454 14.468-23.952 5.827-3.498 6.965 3.498 9.385 0s14.84-12.43 18.33-12.43c3.491 0 9.298-1.45 11.573 2.76 2.274 4.21-2.594 10.583-2.594 14.894 0 4.31-8.978 10.848-8.978 16.826 0 5.979-13.456 3.049-15.876 7.47-2.42 4.422-7.517 3.39-19.111 5.646-7.73 1.504-13.137 6.85-16.222 16.04z" transform="translate(33 -10) rotate(10 -363.916 444.87)"/>
                            <path fill="url(#42taib26jh)" d="M50.607 101.437l1.966-17.104c-1.776-5.696-5.551-8.544-11.325-8.544-8.66 0-11.894-5.783-10.277-7.93 1.616-2.146 6.958.088 6.958-3.16 0-3.249-17.905-7.607-17.905-14.999s8.44-.286 8.44-5.313c0-5.028-13.787-12.374-4.092-19.12s16.759 7.462 18.89 7.462c2.13 0 6.436-5.095 12.257-5.095 5.82 0-3.547 24.541 0 24.541 3.546 0 6.031-6.43 10.702-4.452 4.67 1.977-5.256 16.873-5.256 22.47 0 3.73-2.792 14.47-8.378 32.219l-1.98-.975z" transform="translate(33 -10) rotate(10 -363.916 444.87)"/>
                            <path fill="url(#8gvcx0ru2i)" d="M56.433 102.412c3.956-24.616 5.275-38.605 3.956-41.966-1.978-5.043-11.107-33.518-3.956-40.906 7.151-7.387 8.322 1.69 14.448-2.848 6.125-4.539 10.298-13.545 14.631-11.266 4.333 2.28 6.208 4.998 11.217 0s17.323-9.176 17.323 0c0 9.177-14.96 15.818-14.96 20.185 0 4.367 8.465 7.073 0 13.358-8.464 6.286-24.853 15.377-24.853 21.477s6.696 2.792 6.696 9.42c0 6.627-9.323 9.326-13.465 15.925-2.76 4.4-5.12 9.94-7.08 16.62h-3.957z" transform="translate(33 -10) rotate(10 -363.916 444.87)"/>
                            <path fill="url(#lbzujkum2j)" d="M35.035 101.226c16.77-5.33 32.411-3.86 43.848 12.359 11.436 16.22-1.2 40.32-5.644 52.177-2.963 7.906-7.123 17.774-12.48 29.605H0c3.242-24.503 5.463-40.768 6.663-48.797 1.8-12.043 11.601-40.013 28.372-45.344z" transform="translate(33 -10) rotate(10 -363.916 444.87)"/>
                        </g>
                        <g>
                            <path fill="url(#2bhszr9jsk)" d="M63.136 102.415h-6.44c7.687-15.279 12.856-24.364 15.506-27.254 3.976-4.336 8.682-20.455 14.536-23.953 5.854-3.499 6.998 3.498 9.429 0 2.43-3.499 14.91-12.431 18.416-12.431 3.506 0 9.34-1.45 11.625 2.76s-2.605 10.584-2.605 14.895c0 4.31-9.02 10.848-9.02 16.827 0 5.978-13.519 3.048-15.95 7.47-2.43 4.422-7.552 3.39-19.2 5.646-7.766 1.504-13.198 6.85-16.297 16.04z" transform="translate(33 -10) translate(0 39)"/>
                            <path fill="url(#mut1jrnx0l)" d="M50.842 101.44l1.976-17.104c-1.785-5.696-5.577-8.544-11.378-8.544-8.7 0-11.95-5.784-10.325-7.93 1.624-2.147 6.99.087 6.99-3.161 0-3.249-17.988-7.607-17.988-15 0-7.391 8.479-.285 8.479-5.313s-13.851-12.374-4.11-19.12c9.74-6.746 16.836 7.462 18.976 7.462 2.14 0 6.467-5.095 12.315-5.095s-3.563 24.542 0 24.542 6.06-6.43 10.752-4.453c4.692 1.978-5.28 16.874-5.28 22.471 0 3.731-2.805 14.471-8.417 32.22l-1.99-.975z" transform="translate(33 -10) translate(0 39)"/>
                            <path fill="url(#5ktmnyd5am)" d="M52.832 102.415c6.55-24.616 9.163-38.606 7.839-41.967-1.988-5.043-11.16-33.52-3.975-40.907 7.184-7.387 8.36 1.69 14.515-2.849C77.364 12.154 81.557 3.147 85.91 5.427c4.354 2.28 6.237 4.998 11.27 0 5.031-4.999 17.403-9.177 17.403 0s-15.03 15.818-15.03 20.185c0 4.367 8.505 7.073 0 13.359-8.504 6.285-24.969 15.376-24.969 21.477 0 6.1 6.728 2.792 6.728 9.42 0 6.627-5.94 8.868-10.101 15.468-2.774 4.4-5.867 11.628-9.278 21.685l-9.1-4.606z" transform="translate(33 -10) translate(0 39)"/>
                            <path fill="url(#rrr4tgzn7n)" d="M35.198 101.23c17.592-8.06 34.49-2.476 41.789 13.184 7.3 15.66 1.137 36.365-3.329 48.224-2.977 7.905-7.182 18.817-12.617 32.736H0c6.194-24.462 9.897-40.78 11.108-48.956 1.816-12.263 6.499-37.13 24.09-45.188z" transform="translate(33 -10) translate(0 39)"/>
                        </g>
                    </g>
                </g>
            </g>
        </g>
    </g>
</svg>
