<svg xmlns="http://www.w3.org/2000/svg" width="369" height="360"><g fill="none" fill-rule="evenodd"><path fill="none" d="M0 0h369v360H0z"/><g transform="translate(34 82)"><rect width="199" height="117" y="31" fill="#494972" rx="6"/><path fill="#13131B" fill-rule="nonzero" d="M71.2 134.8c20.7 0 37-16.4 37-37.3 0-.8-.5-1.3-1.3-1.3-.7 0-1.2.5-1.2 1.3a34.3 34.3 0 0 1-34.5 34.7 34.3 34.3 0 0 1-34.5-34.7A34 34 0 0 1 71.2 63c5.1 0 10.4.6 14 1.8l-18.5 19c-.4.3-.4.6-.4 1 0 .7.5 1.3 1.2 1.3.4 0 .7-.2 1-.4L88 65.4c.8-.7 1-1.1 1-1.5 0-.4-.3-.8-1-1.5L68.5 42c-.3-.2-.5-.3-1-.3-.8 0-1.2.5-1.2 1.2 0 .4 0 .7.4 1L84.3 62c-3.3-.8-8.1-1.6-13.1-1.6-20.8 0-37 16.3-37 37 0 20.9 16.2 37.3 37 37.3z"/><circle cx="9" cy="39" r="3" fill="#13131B"/><circle cx="19" cy="39" r="3" fill="#13131B"/><circle cx="29" cy="39" r="3" fill="#13131B"/><path fill="#0E0E17" stroke="#4E4E7F" stroke-linecap="round" stroke-linejoin="round" stroke-width="3" d="M159 2.1c7.7-7 20.9 5.5 32.2 9 11.3 3.6 35.8.4 43.3-2 7.5-2.3 20.8-11.7 27.6-7 6.7 4.7.3 24.6 3.5 28.6s15.3 17 12.2 37.6c-3 20.6-10.2 20-10.2 24.4 0 4.5 6.6 1.9 15.8-2 9.2-3.9 17.6 0 17.6 11.7s-16.7 24.8-23.2 28.9c-6.5 4-4.1 16.9-9.4 29.2-5.3 12.2-9.7 15.4-9.7 21.7 0 6.4 1.7 30.6-14.5 33.1s-21.8-20.3-25.6-22a42.2 42.2 0 0 0-19.7 0c-3.5 1.6-14.5 25.2-32.2 22-17.7-3.2-9-29.2-11.5-36.3-2.6-7-5.2-17.6-7-26.7-1.7-9.1-1.7-16.5-4.4-19.8-2.8-3.2-34.3-23.9-25.9-38 8.4-14 30.4 0 34.8 0 4.5 0 7.3-2 0-7.2-7.2-5.3-14.2-22-10.6-36.3 3.7-14.3 16.8-22 16.8-27S151.1 9.2 159 2z"/></g></g></svg>