<svg viewBox="0 0 1440 750" xmlns="http://www.w3.org/2000/svg" xmlns:xlink="http://www.w3.org/1999/xlink"><title>landing copy</title><defs><radialGradient cx="81.2172812%" cy="35.2039763%" fx="81.2172812%" fy="35.2039763%" r="197.67578%" gradientTransform="translate(0.812173,0.352040),scale(1.000000,0.364785),rotate(89.553308),scale(1.000000,0.983409),translate(-0.812173,-0.352040)" id="radialGradient-1"><stop stop-color="#0a0a0e" offset="0"/><stop stop-color="#14141c" offset="100%"/></radialGradient><radialGradient cx="38.4224325%" cy="46.3171042%" fx="38.4224325%" fy="46.3171042%" r="122.592562%" gradientTransform="translate(0.384224,0.463171),scale(1.000000,0.601001),rotate(89.279715),scale(1.000000,0.983409),translate(-0.384224,-0.463171)" id="radialGradient-2"><stop stop-color="#0a0a0e" offset="0"/><stop stop-color="#1e1e2c" offset="100%"/><stop stop-color="#191924" offset="100%"/></radialGradient><radialGradient cx="32.7068992%" cy="42.8276811%" fx="32.7068992%" fy="42.8276811%" r="132.527411%" gradientTransform="translate(0.327069,0.428277),scale(1.000000,0.642704),rotate(85.191796),scale(1.000000,0.983409),translate(-0.327069,-0.428277)" id="radialGradient-3"><stop stop-color="#0a0a0e" offset="0"/><stop stop-color="#1e1e2c" offset="100%"/><stop stop-color="#191924" offset="100%"/></radialGradient><radialGradient cx="59.7478628%" cy="9.07479748%" fx="59.7478628%" fy="9.07479748%" r="370.089693%" gradientTransform="translate(0.597479,0.090748),scale(1.000000,0.237855),rotate(88.847469),scale(1.000000,0.983409),translate(-0.597479,-0.090748)" id="radialGradient-4"><stop stop-color="#0a0a0e" offset="0"/><stop stop-color="#242436" offset="99.961757%"/></radialGradient></defs><g id="landing-copy" stroke="none" stroke-width="1" fill="none" fill-rule="evenodd"><g id="header" transform="translate(-1.000000, -2.000000)"><path id="Rectangle-Copy-5" fill="url(#radialGradient-1)" transform="translate(721.125663, 263.519641) rotate(-90.000000) translate(-721.125663, -263.519641)" d="M458.480359-456.480359H983.770966v1440H458.480359z"/><path d="M864.55911 56.1784254H1288.05651C1306.88573 154.794778 1296.88573 271.155732 1258.05651 405.26129 1219.22729 539.366847 1219.22729 663.005892 1258.05651 776.178425H910.445849C939.984369 634.236291 948.220851 506.657496 935.155295 393.44204 922.089739 280.226584 898.557677 167.805379 864.55911 56.1784254z" id="Rectangle-Copy-4" fill="url(#radialGradient-2)" transform="translate(1080.919531, 416.178425) rotate(-90.000000) translate(-1080.919531, -416.178425)"/><path d="M210.860877-46.8583141H741.368242C691.003651 92.223025 691.003651 265.309945 741.368242 472.402446 791.127474 677.005789 791.725558 818.963254 743.162493 898.274841 742.071978 900.055834 740.133866 901.141686 738.045527 901.141686H323.617706v0C307.145196 845.665817 280.442025 786.012365 243.508193 722.181329 186.527802 623.704751 182.637312 508.288931 174.434976 422.704735 162.25139 295.579694 174.393357 139.058677 210.860877-46.8583141z" id="Rectangle-Copy-2" fill="url(#radialGradient-3)" transform="translate(474.500000, 427.141686) rotate(-90.000000) translate(-474.500000, -427.141686)"/><path d="M302.056752 340.896544H367.858388C426.826013 446.782513 426.826013 585.284371 367.858388 756.40212 337.129311 845.57462 316.728526 928.24237 306.656034 1004.40537 306.636082 1004.55624 306.606244 1004.78248 306.566522 1005.08411 286.647751 932.794229 273.956897 880.662854 268.49396 848.689982 255.189508 770.823161 254.481039 703.778625 254.118956 650.451989 253.834575 608.569057 257.463318 562.666811 265.005186 512.745251 270.321862 477.552813 282.672384 420.269911 302.056752 340.896544z" id="Rectangle" fill="url(#radialGradient-4)" transform="translate(333.093781, 672.990325) rotate(-90.000000) translate(-333.093781, -672.990325)"/></g></g></svg>