<svg xmlns="http://www.w3.org/2000/svg" xmlns:xlink="http://www.w3.org/1999/xlink" width="108" height="125" viewBox="0 0 108 125">
    <defs>
        <linearGradient id="eiunittqic" x1="100%" x2="0%" y1="50%" y2="50%">
            <stop offset="0%" stop-color="#5346E6"/>
            <stop offset="100%" stop-color="#EF359C"/>
        </linearGradient>
        <rect id="r1d8bpqhza" width="108" height="125" x="0" y="0" rx="6"/>
    </defs>
    <g fill="none" fill-rule="evenodd">
        <g>
            <g transform="translate(-804 -368) translate(804 368)">
                <mask id="vmhi7znu1b" fill="#fff">
                    <use xlink:href="#r1d8bpqhza"/>
                </mask>
                <g mask="url(#vmhi7znu1b)">
                    <g>
                        <path d="M0 0H163V163H0z" transform="translate(-1 1)"/>
                        <path fill="url(#eiunittqic)" d="M81.268 0c2.822 0 5.9.744 8.464 2.235l58.228 32.519c5.13 2.978 8.463 8.192 8.463 14.149v65.282c0 5.708-3.333 11.171-8.463 14.15l-58.228 32.27c-2.558 1.486-5.486 2.257-8.464 2.23-2.973-.005-5.893-.775-8.464-2.23l-58.224-32.52c-5.13-2.982-8.467-8.192-8.467-14.149V48.903c0-5.712 3.337-11.175 8.467-14.15L73.06 2.236C75.538.78 78.375.008 81.268 0z" transform="translate(-1 1)"/>
                        <path fill="#FFF" d="M81.055 13.3c3.328 0 6.46.953 9.399 2.475l44.445 25.15c5.815 3.223 9.407 9.268 9.398 15.816v50.109c.008 6.547-3.584 12.59-9.398 15.812l-44.445 24.96c-2.938 1.715-6.071 2.478-9.4 2.478-3.327 0-6.46-.763-9.398-2.478l-44.445-24.96c-5.814-3.222-9.406-9.265-9.399-15.812V56.74c-.008-6.548 3.584-12.593 9.399-15.815l44.445-25.149c2.938-1.715 6.071-2.477 9.399-2.477zm0 5.905c-2.208.006-4.374.6-6.266 1.716L30.15 45.88c-3.916 2.283-6.464 6.476-6.464 10.86v49.917c0 4.573 2.548 8.572 6.464 10.86l44.445 24.96c1.963 1.118 4.191 1.709 6.46 1.714 2.274.02 4.51-.572 6.462-1.713l44.448-24.77c3.916-2.285 6.46-6.478 6.46-10.86V56.742c0-4.572-2.544-8.574-6.46-10.86L87.516 20.92c-1.957-1.145-4.307-1.716-6.461-1.716zm.315 16.262c1.76.002 3.522.38 5.087 1.52l31.883 17.822c3.13 1.704 5.087 4.928 5.087 8.53v35.646c0 3.414-1.957 6.825-5.087 8.532L86.457 125.34c-1.565.949-3.328 1.326-5.087 1.326-1.76 0-3.52-.377-5.085-1.329L44.4 107.517c-3.13-1.707-5.084-4.928-5.084-8.532V63.15c0-3.414 1.954-6.825 5.084-8.535l31.886-17.82c1.565-.949 3.325-1.33 5.085-1.33zm0 4.93c-.783 0-1.76.19-2.543.762l-31.69 17.82c-1.565.948-2.54 2.655-2.54 4.36v35.836c0 1.894.977 3.411 2.542 4.363l31.883 17.82c.783.568 1.565.758 2.545.758.975 0 1.76-.38 2.54-.758l31.889-17.823c1.548-.939 2.504-2.58 2.539-4.36V63.339c0-1.895-.977-3.412-2.542-4.36L83.912 41.156c-.783-.568-1.565-.759-2.542-.759zm.32 17.236c.974 0 1.756.188 2.538.76l16.424 9.106c1.548.94 2.503 2.582 2.538 4.363v18.405c0 1.9-.977 3.414-2.54 4.366l-16.422 9.108c-.782.568-1.564.759-2.54.759-.783 0-1.76-.381-2.541-.76l-16.421-9.107c-1.564-.949-2.541-2.657-2.541-4.366V71.862c0-1.895.977-3.413 2.54-4.363l16.422-9.107c.782-.571 1.564-.759 2.54-.759zm.192 4.554h-.39l-16.42 9.104-.195 18.786 16.616 9.488 16.81-9.107.195-18.786-16.616-9.485z" transform="translate(-1 1)"/>
                    </g>
                </g>
            </g>
        </g>
    </g>
</svg>
