<svg xmlns="http://www.w3.org/2000/svg" xmlns:xlink="http://www.w3.org/1999/xlink" width="208" height="125" viewBox="0 0 208 125"><defs><linearGradient id="dhedleyexc" x1="100%" x2="0" y1="50%" y2="50%"><stop offset="0" stop-color="#5346e6"/><stop offset="100%" stop-color="#ef359c"/></linearGradient><rect id="nlh1lk83ra" width="208" height="125" x="0" y="0" rx="6"/></defs><g fill="none" fill-rule="evenodd"><g><g transform="translate(-1132 -284) translate(1132 284)"><mask id="n7src2f85b" fill="#fff"><use xlink:href="#nlh1lk83ra"/></mask><g mask="url(#n7src2f85b)"><g><path fill="url(#dhedleyexc)" d="M5.64 41.725C21.03 30.55 32.71 22.602 40.674 17.883 48.641 13.164 60.438 7.203 76.065.0c17.864 8.68 31.216 15.634 40.057 20.863 8.842 5.23 19.007 12.183 30.497 20.862v79.32L75.6 162.978c-16.508-8.659-28.737-15.552-36.686-20.68-7.95-5.13-19.042-13.28-33.276-24.455V41.725z" transform="translate(93 6.62)"/><path fill="#fff" d="M76.129.0c4.006.0 7.777 1.136 11.314 2.948l53.501 29.964c7 3.839 11.324 11.04 11.314 18.842v59.697c.01 7.8-4.315 15-11.314 18.839l-53.501 29.736c-3.537 2.044-7.308 2.952-11.314 2.952s-7.777-.908-11.314-2.952L11.314 130.29C4.314 126.452-.01 119.252.0 111.45V51.754c-.01-7.802 4.314-15.003 11.314-18.842l53.501-29.96C68.352.908 72.123.0 76.13.0zm0 7.035c-2.658.008-5.265.714-7.542 2.044L14.85 38.816c-4.714 2.72-7.78 7.715-7.78 12.938v59.47c0 5.447 3.066 10.211 7.78 12.938L68.352 153.9c2.362 1.331 5.045 2.035 7.777 2.04 2.736.025 5.427-.681 7.777-2.04l53.505-29.509c4.714-2.724 7.778-7.719 7.778-12.939V51.754c0-5.447-3.064-10.215-7.778-12.938L83.906 9.079c-2.355-1.364-5.183-2.044-7.777-2.044zm0 19.746c2.12.004 4.244.456 6.13 1.82l38.417 21.337c3.77 2.04 6.13 5.9 6.13 10.212v42.675c0 4.087-2.36 8.17-6.13 10.214l-38.417 21.338c-1.886 1.136-4.01 1.588-6.13 1.588s-4.24-.452-6.126-1.592l-38.42-21.334c-3.772-2.043-6.127-5.9-6.127-10.214v-42.9c0-4.087 2.355-8.17 6.126-10.218l38.42-21.334c1.886-1.136 4.007-1.592 6.127-1.592zm0 5.904c-.943.0-2.12.227-3.063.911L34.88 54.93c-1.885 1.136-3.06 3.18-3.06 5.22v42.902c0 2.268 1.178 4.084 3.064 5.224L73.3 129.61c.942.68 1.885.907 3.066.907 1.174.0 2.12-.455 3.06-.907l38.424-21.338c1.866-1.124 3.018-3.089 3.06-5.22V60.15c0-2.268-1.178-4.084-3.064-5.22L79.192 33.593c-.943-.68-1.885-.908-3.063-.908zm.004 20.885c1.174.0 2.116.224 3.06.908l19.802 10.895c1.866 1.123 3.018 3.088 3.06 5.22V92.61c0 2.271-1.178 4.084-3.064 5.223l-19.799 10.895c-.943.68-1.885.908-3.063.908-.943.0-2.12-.456-3.063-.908l-19.8-10.895c-1.885-1.136-3.062-3.18-3.062-5.223V70.592c0-2.268 1.177-4.084 3.063-5.22l19.799-10.894c.943-.684 1.885-.908 3.063-.908zm.23 5.447h-.469L56.095 69.91l-.235 22.473 20.034 11.35 20.269-10.894.235-22.474-20.034-11.347z" transform="translate(93 6.62)"/></g></g></g></g></g></svg>