<svg xmlns="http://www.w3.org/2000/svg" viewBox="0 0 580 183"><defs><linearGradient id="1m0bt7u3ra" x1="91.693%" x2="0" y1="50%" y2="50%"><stop offset="0" stop-color="#4136de"/><stop offset="100%" stop-color="#8183ff"/></linearGradient><linearGradient id="qerqvhruob" x1="100%" x2="0" y1="50%" y2="50%"><stop offset="0" stop-color="#5346e6"/><stop offset="100%" stop-color="#ef359c"/></linearGradient></defs><g fill="none" fill-rule="evenodd"><g><g><path fill="#131319" fill-opacity=".01" d="M0 0H580V183H0z" transform="translate(-430 -206) translate(430 206)"/><g><g><path d="M0 0H120V120H0z" transform="translate(-430 -206) translate(430 206) translate(196 32)"/><path fill="url(#1m0bt7u3ra)" stroke="#0a0a0e" d="M59.947.091c2.079.0 4.346.548 6.234 1.645l42.888 23.935c3.778 2.193 6.234 6.03 6.234 10.415v48.051c0 4.201-2.456 8.222-6.234 10.414L66.18 118.303c-1.884 1.094-4.04 1.663-6.234 1.643-2.19-.005-4.34-.571-6.234-1.643L10.828 94.368c-3.779-2.195-6.237-6.03-6.237-10.414V36.086c0-4.204 2.458-8.225 6.237-10.415L53.901 1.736C55.727.666 57.816.096 59.947.091z" transform="translate(-430 -206) translate(430 206) translate(196 32)"/><path fill="#fff" d="M58.867 22.54v6.28h3.14v-6.28l.238.002c.71.004 1.368.009 1.581.015 1.773.05 3.406.245 4.91.564v5.7h3.14v-4.793c7.2 2.693 10.682 8.662 11.848 14.668H68.152v3.143H84.13c.02.285.034.57.044.853l.002.393.001.261.002.913v.46l.001.123.001.661.001.824h-16.03v3.143l16.032-.001.001.007c4.553.157 8.189 3.51 8.189 7.625.0 1.969-.833 3.764-2.2 5.117v12.234c0 7.363-3.612 13.03-6.702 16.291-2.268 2.393-6.736 5.633-11.775 7.187l.006-.151-.01.238c-.251 4.653-2.185 7.03-5.804 7.132l-.243.003H62.02v11.652h-3.14v-11.652h-3.238c-3.98.0-6.088-2.419-6.327-7.257-4.49-1.11-8.864-3.172-11.954-6.147-4.51-4.342-7.038-10.287-7.156-16.158l-.004-.43-.001-12.733c-1.497-1.375-2.419-3.254-2.419-5.326.0-4.122 3.65-7.48 8.213-7.626v-.006h16.01v-3.142H36.007c.012-1.708.03-2.996.058-3.635.012-.284.028-.569.048-.854h15.89v-3.142H36.5c1.138-6.32 4.57-12.373 12.498-14.907v5.032h3.14v-5.803c1.391-.248 2.895-.404 4.518-.456.333-.01 1.346-.018 2.211-.022zm-6.57 75.95.007.062c.31 2.663 1.507 3.758 4.356 3.758h7.959c1.908.0 3.177-.363 3.908-1.753.285-.543.258-1.192.268-1.945-.773.125-1.552.2-2.332.22l-.397.004h-.386c-.918-.003-1.498-.016-2.43-.017h-.392c-.554.0-1.233.005-2.143.017-.38.005-2.116.096-4.79.0-1.183-.042-2.4-.158-3.628-.345zm34.851-34.35c-.901.34-1.882.543-2.91.584l-.045.003v.005H68.152v3.143l16.042-.001.001 2.938v1.551H68.152v3.143h15.92C83.3 81.802 78.959 87.8 71.876 90.683v-3.956h-3.14v4.977c-1.698.423-3.52.681-5.455.746-.192.007-.708.012-1.274.015v-5.738h-3.14v5.743c-.744-.004-1.573-.009-1.81-.016-1.746-.054-3.386-.248-4.919-.565v-5.162h-3.14v4.295c-7.767-2.73-12.112-8.955-12.852-15.517h15.857v-3.143l-15.972.002c-.002-1.148-.007-2.697-.012-4.49h15.984v-3.143H36.01v-.005l.294.005c-1.058.0-2.07-.172-3.005-.488v10.208c0 4.398 1.741 10.05 5.815 14.122 4.074 4.072 10.715 7.079 16.165 7.052 1.131-.006 2.013-.009 2.702-.01h1.772l.158.002c.293.002.45.004.551.006h.056l.047.002H60.714c2.347-.032 3.771-.032 5.153-.087l.518-.024.26-.014c5.23-.296 11.052-3.461 14.234-6.927 3.182-3.466 6.269-7.996 6.269-14.122V64.14zM60.246 52.052c-.262.0-.508.06-.739.197l-3.49 1.996-.12.075c-.386.268-.62.708-.618 1.18v3.978l.006.14c.046.465.317.883.732 1.115l3.49 1.981.14.073c.19.085.39.124.599.124.261.0.507-.06.738-.197l3.49-1.981.12-.075c.386-.268.62-.708.619-1.18V55.5l-.007-.14c-.045-.465-.316-.883-.731-1.115l-3.491-1.997-.14-.067c-.19-.08-.39-.13-.598-.13zm23.942.57V53.996l.001 1.575v.183h-9.758v3.143l9.76-.001v2.552l.932-.004c2.153-.504 3.741-2.257 3.741-4.343.0-2.378-2.064-4.324-4.676-4.479zm-48.358-.01c-2.876.0-5.208 2.01-5.208 4.489.0 2.085 1.649 3.837 3.883 4.342h1.325v-2.547H46.19v-3.142H35.83v-3.142z" transform="translate(-430 -206) translate(430 206) translate(196 32)"/></g><g><path d="M0 0H120V120H0z" transform="translate(-430 -206) translate(430 206) translate(196 32) translate(67.636)"/><path fill="url(#qerqvhruob)" stroke="#0a0a0e" d="M59.83.0c2.077.0 4.343.548 6.23 1.645l42.867 23.94c3.777 2.193 6.231 6.031 6.231 10.417v48.06c0 4.203-2.454 8.225-6.23 10.417L66.06 118.236c-1.883 1.094-4.039 1.663-6.23 1.643-2.19-.004-4.339-.571-6.232-1.643l-42.864-23.94C6.957 92.1 4.5 88.266 4.5 83.879V36.002c0-4.205 2.457-8.227 6.234-10.417l43.052-23.94C55.611.575 57.7.005 59.83.0z" transform="translate(-430 -206) translate(430 206) translate(196 32) translate(67.636)"/><path fill="#fff" d="M59.672 9.791c2.45.0 4.757.702 6.92 1.822l32.72 18.516c4.281 2.372 6.926 6.823 6.92 11.644v36.89c.005 4.82-2.64 9.269-6.92 11.64l-32.72 18.376c-2.163 1.263-4.47 1.824-6.92 1.824s-4.756-.561-6.919-1.824l-32.72-18.376c-4.28-2.371-6.925-6.82-6.92-11.64v-36.89c-.006-4.821 2.639-9.272 6.92-11.644l32.72-18.514c2.163-1.263 4.47-1.824 6.92-1.824zm0 4.348c-1.625.004-3.22.44-4.612 1.263L22.195 33.777c-2.883 1.681-4.758 4.768-4.758 7.996v36.749c0 3.366 1.875 6.31 4.758 7.995l32.72 18.375c1.446.823 3.086 1.258 4.757 1.261 1.674.015 3.32-.42 4.757-1.26L97.15 86.657c2.883-1.684 4.757-4.77 4.757-7.996v-36.89c0-3.366-1.874-6.312-4.757-7.995L64.43 15.402c-1.44-.843-3.17-1.263-4.757-1.263zm.232 11.971c1.296.002 2.593.28 3.745 1.12l23.472 13.12c2.305 1.255 3.746 3.628 3.746 6.28v26.242c0 2.513-1.441 5.025-3.746 6.282L63.65 92.274c-1.152.7-2.45.977-3.745.977-1.296.0-2.591-.278-3.743-.978l-23.474-13.12c-2.305-1.256-3.744-3.627-3.744-6.28V46.491c0-2.514 1.44-5.025 3.744-6.284L56.16 27.09c1.152-.698 2.447-.979 3.743-.979zm0 3.63c-.576.0-1.296.14-1.872.56l-23.33 13.12c-1.152.698-1.87 1.955-1.87 3.21v26.382c0 1.395.72 2.511 1.872 3.212l23.472 13.12c.576.417 1.152.557 1.874.557.717.0 1.295-.28 1.87-.558l23.476-13.121c1.14-.691 1.844-1.9 1.869-3.21V46.63c0-1.395-.72-2.512-1.872-3.21L61.776 30.299c-.576-.419-1.152-.559-1.872-.559zm.236 12.69c.717.0 1.293.137 1.868.558L74.1 49.693c1.14.691 1.843 1.9 1.868 3.212v13.55c0 1.397-.72 2.513-1.87 3.214l-12.09 6.705c-.575.418-1.151.558-1.87.558-.576.0-1.295-.28-1.87-.558l-12.09-6.705c-1.151-.7-1.87-1.957-1.87-3.214v-13.55c0-1.396.719-2.513 1.87-3.212l12.09-6.705c.575-.42 1.15-.559 1.87-.559zm.141 3.352h-.286l-12.09 6.702-.143 13.83L59.995 73.3l12.376-6.704.143-13.83-12.233-6.983z" transform="translate(-430 -206) translate(430 206) translate(196 32) translate(67.636)"/></g></g></g></g></g></svg>