<svg xmlns="http://www.w3.org/2000/svg" xmlns:xlink="http://www.w3.org/1999/xlink" width="221" height="133" viewBox="0 0 221 133">
    <defs>
        <linearGradient id="8ygg2lw4bc" x1="100%" x2="0%" y1="50%" y2="50%">
            <stop offset="0%" stop-color="#544CF2"/>
            <stop offset="100%" stop-color="#D93CEF"/>
        </linearGradient>
        <linearGradient id="gez746b0vd" x1="91.693%" x2="0%" y1="50%" y2="50%">
            <stop offset="0%" stop-color="#4136DE"/>
            <stop offset="100%" stop-color="#8183FF"/>
        </linearGradient>
        <rect id="id4rrcuhca" width="221" height="133" x="0" y="0" rx="6"/>
    </defs>
    <g fill="none" fill-rule="evenodd">
        <g>
            <g>
                <g transform="translate(-1119 -276) translate(852 192) translate(267 84)">
                    <mask id="4c584zcqcb" fill="#fff">
                        <use xlink:href="#id4rrcuhca"/>
                    </mask>
                    <g mask="url(#4c584zcqcb)">
                        <g>
                            <path fill="url(#8ygg2lw4bc)" d="M5.984 44.424c16.332-11.898 28.724-20.36 37.175-25.384C51.611 14.016 64.13 7.67 80.711 0c18.954 9.242 33.121 16.646 42.503 22.213 9.381 5.567 20.167 12.971 32.359 22.211V128.878l-75.355 44.645c-17.516-9.218-30.492-16.558-38.927-22.018-8.435-5.46-20.204-14.14-35.307-26.036V44.424z" transform="translate(0 5.984)"/>
                            <path fill="#FFF" d="M80.778 0c4.25 0 8.252 1.21 12.005 3.139l56.769 31.903c7.427 4.087 12.015 11.754 12.004 20.06v63.561c.01 8.305-4.578 15.97-12.004 20.057l-56.77 31.66c-3.752 2.177-7.753 3.143-12.004 3.143-4.25 0-8.252-.966-12.005-3.142l-56.768-31.66C4.578 134.633-.01 126.967 0 118.662v-63.56c-.011-8.307 4.577-15.974 12.005-20.06l56.768-31.9C72.526.967 76.527 0 80.778 0zm0 7.49c-2.82.008-5.586.76-8.003 2.177l-57.018 31.66c-5.002 2.896-8.256 8.215-8.256 13.776v63.317c0 5.8 3.254 10.873 8.256 13.776l56.769 31.66c2.507 1.418 5.353 2.168 8.252 2.174 2.903.025 5.758-.726 8.252-2.173l56.773-31.418c5.002-2.9 8.252-8.219 8.252-13.776v-63.56c0-5.8-3.25-10.876-8.252-13.776L89.03 9.667c-2.499-1.452-5.5-2.176-8.252-2.176zm0 21.024c2.25.004 4.504.486 6.504 1.937l40.763 22.719c4.002 2.172 6.505 6.281 6.505 10.872v45.436c0 4.352-2.503 8.7-6.505 10.876l-40.763 22.718c-2 1.21-4.254 1.69-6.504 1.69s-4.5-.48-6.5-1.694L33.51 120.354c-4.002-2.176-6.5-6.282-6.5-10.876V63.803c0-4.352 2.498-8.7 6.5-10.88L74.277 30.21c2.001-1.21 4.251-1.695 6.501-1.695zm0 6.285c-1 0-2.25.243-3.25.97L37.01 58.485c-2 1.21-3.246 3.385-3.246 5.558v45.679c0 2.414 1.25 4.348 3.25 5.56l40.763 22.715c1 .724 2 .967 3.254.967 1.246 0 2.25-.485 3.247-.967l40.77-22.718c1.98-1.197 3.202-3.289 3.246-5.557V64.04c0-2.414-1.25-4.347-3.25-5.557L84.028 35.766c-1-.724-2-.967-3.25-.967zm.004 22.237c1.246 0 2.246.24 3.246.967l21.012 11.6c1.98 1.196 3.203 3.288 3.247 5.557v23.442c0 2.419-1.25 4.348-3.25 5.561l-21.009 11.6c-1 .724-2 .967-3.25.967-1 0-2.25-.485-3.25-.967l-21.008-11.6c-2.001-1.209-3.25-3.385-3.25-5.56V75.16c0-2.415 1.249-4.348 3.25-5.557l21.008-11.6c1-.728 2-.967 3.25-.967zm.245 5.8h-.498L59.52 74.432l-.25 23.928 21.258 12.085 21.506-11.6.25-23.928-21.258-12.08z" transform="translate(0 5.984)"/>
                        </g>
                        <g>
                            <path fill="url(#gez746b0vd)" d="M83.376 1.33c3.081 0 6.442.81 9.24 2.436l63.566 35.45c5.6 3.246 9.24 8.93 9.24 15.424v71.166c0 6.223-3.64 12.177-9.24 15.424l-63.566 35.178c-2.793 1.62-5.99 2.462-9.24 2.433-3.246-.006-6.433-.845-9.24-2.433l-63.562-35.45c-5.6-3.25-9.244-8.93-9.244-15.423V54.64c0-6.227 3.643-12.182 9.244-15.425L74.415 3.766c2.706-1.586 5.803-2.428 8.96-2.436z" transform="translate(109.2)"/>
                            <path fill="#FFF" d="M83.564 0C87.96 0 92.1 1.25 95.982 3.247l58.726 33.003c7.684 4.228 12.43 12.16 12.419 20.753v65.752c.01 8.591-4.736 16.521-12.419 20.749l-58.726 32.752c-3.882 2.25-8.021 3.25-12.418 3.25-4.398 0-8.537-1-12.419-3.25l-58.726-32.752C4.736 139.276-.01 131.346 0 122.754V57.004C-.011 48.41 4.735 40.478 12.419 36.25l58.726-33C75.027 1 79.166 0 83.564 0zm0 7.749c-2.918.008-5.78.786-8.28 2.25L16.3 42.753c-5.174 2.996-8.54 8.498-8.54 14.251v65.5c0 6 3.366 11.248 8.54 14.252l58.727 32.752c2.08 1.177 4.387 1.908 6.767 2.155V156.93h-4.798c-5.899 0-9.024-3.582-9.378-10.747-6.654-1.643-13.139-4.699-17.718-9.105-6.72-6.465-10.472-15.331-10.61-24.072l-.003-.495V93.654c-2.219-2.037-3.586-4.82-3.586-7.89 0-6.104 5.41-11.079 12.174-11.295l-.001-.008 23.728.001v-4.654l-23.707-.001c.018-2.529.045-4.437.086-5.383.018-.42.041-.842.07-1.264h23.551v-4.654H48.624c1.686-9.36 6.773-18.325 18.523-22.079l.002 7.452h4.654l-.002-8.593c2.062-.368 4.29-.599 6.697-.676.493-.015 1.997-.026 3.278-.033v9.302h4.653v-9.3c1.18.006 2.346.013 2.697.023 2.626.076 5.048.364 7.276.835v8.442h4.654v-7.098c10.672 3.988 15.834 12.829 17.561 21.725h-23.08v4.654h23.683c.028.423.05.845.064 1.264.005.139.009 2.202.012 5.381l-23.76.003v4.654h23.765v.009c6.747.232 12.137 5.2 12.137 11.293 0 2.916-1.234 5.574-3.26 7.58l-.002 18.119c0 10.905-5.352 19.297-9.932 24.127-3.361 3.545-9.984 8.343-17.454 10.645-.343 7.007-3.236 10.571-8.678 10.692l-.29.004h-5.374v14.6c1.989-.327 3.906-1.01 5.652-2.024l58.73-32.501c5.175-3 8.537-8.502 8.537-14.251V57.003c0-6-3.362-11.25-8.536-14.25L92.1 10c-2.586-1.502-5.69-2.251-8.537-2.251zM72.038 147.065l.013.114c.464 3.927 2.24 5.542 6.454 5.542H90.3c2.828 0 4.71-.538 5.793-2.596.423-.804.383-1.764.397-2.879-1.34.214-2.693.33-4.044.33h-.473c-2.341-.006-3.183-.056-7.459 0-.564.008-3.136.143-7.1 0-1.752-.062-3.556-.233-5.376-.511zm51.654-50.875c-1.356.51-2.832.813-4.38.868v.008H95.537v4.655l23.777.04.001 1.858v4.749l-23.778.001v4.654h23.596c-1.144 9.327-7.578 18.21-18.077 22.48v-5.86h-4.654v7.372c-2.517.627-5.216 1.009-8.085 1.105-.284.01-1.049.017-1.888.023v-8.5h-4.654v8.506c-1.103-.005-2.33-.013-2.683-.024-2.588-.08-5.019-.367-7.29-.836v-7.645H67.15l-.002 6.36c-11.511-4.043-17.95-13.262-19.048-22.98l23.503-.001v-4.654l-23.674.001c-.003-1.7-.01-3.993-.017-6.648l23.691-.001v-4.654H47.897v-.006l.436.006c-1.568 0-3.069-.256-4.454-.723v15.119c0 6.513 2.581 14.883 8.62 20.915 6.038 6.03 15.88 10.484 23.958 10.444 8.077-.04 7.546.007 8.057 0 4.129-.056 6.333-.045 8.79-.185 7.752-.438 16.381-5.126 21.097-10.26 4.716-5.133 9.291-11.842 9.291-20.914V96.19zM83.82 78.286c-.323 0-.63.063-.921.2l-.173.092-5.174 2.956-.141.086c-.548.364-.897.958-.947 1.61l-.006.164v5.89l.006.165c.05.65.399 1.244.947 1.608l.14.087 5.175 2.934.173.092c.29.137.598.2.92.2.324 0 .63-.063.922-.2l.173-.092 5.174-2.934.14-.087c.549-.364.898-.957.948-1.608l.006-.164v-5.891l-.006-.164c-.05-.652-.4-1.246-.947-1.61l-.141-.086-5.174-2.957-.173-.083c-.291-.13-.598-.208-.921-.208zm35.485.845v.798c.002 1.253.002 2.538.003 3.84h-14.463v4.655h14.465l.002 3.773h1.379c3.191-.746 5.547-3.343 5.547-6.433 0-3.522-3.061-6.404-6.933-6.633zm-71.673-.015c-4.263 0-7.72 2.977-7.72 6.648 0 3.09 2.447 5.687 5.763 6.433h1.957v-3.774h15.357V83.77H47.631v-4.654z" transform="translate(109.2)"/>
                        </g>
                    </g>
                </g>
            </g>
        </g>
    </g>
</svg>
